<?xml version="1.0" encoding="UTF-8" standalone="no"?>
<!-- Created with Inkscape (http://www.inkscape.org/) -->

<svg
   width="24.999939"
   height="24.999977"
   viewBox="0 0 6.614567 6.6145774"
   version="1.1"
   id="svg1721"
   sodipodi:docname="img-nav-logo.svg"
   inkscape:version="1.1.1 (3bf5ae0d25, 2021-09-20)"
   xmlns:inkscape="http://www.inkscape.org/namespaces/inkscape"
   xmlns:sodipodi="http://sodipodi.sourceforge.net/DTD/sodipodi-0.dtd"
   xmlns="http://www.w3.org/2000/svg"
   xmlns:svg="http://www.w3.org/2000/svg">
  <sodipodi:namedview
     id="namedview1723"
     pagecolor="#ffffff"
     bordercolor="#666666"
     borderopacity="1.0"
     inkscape:pageshadow="2"
     inkscape:pageopacity="0.0"
     inkscape:pagecheckerboard="0"
     inkscape:document-units="mm"
     showgrid="true"
     inkscape:zoom="0.77682379"
     inkscape:cx="487.24048"
     inkscape:cy="443.47252"
     inkscape:window-width="1842"
     inkscape:window-height="1057"
     inkscape:window-x="70"
     inkscape:window-y="-8"
     inkscape:window-maximized="1"
     inkscape:current-layer="layer1"
     fit-margin-left="0.5"
     fit-margin-right="0.5"
     fit-margin-top="0.5"
     fit-margin-bottom="0.5"
     units="px">
    <inkscape:grid
       type="xygrid"
       id="grid1878"
       originx="-4.4805907"
       originy="-0.41521804" />
  </sodipodi:namedview>
  <defs
     id="defs1718" />
  <g
     inkscape:label="Layer 1"
     inkscape:groupmode="layer"
     id="layer1"
     transform="translate(165.916,-4.7452183)">
    <path
       style="fill:#9ed2ec;stroke-width:0.0527777"
       d="m -163.19292,11.177102 c -0.30098,-0.05854 -0.34662,-0.105714 -0.28346,-0.292949 l 0.0503,-0.149111 0.61086,0.01899 c 0.46289,0.01439 0.68646,-0.0026 0.92301,-0.07035 1.07031,-0.306328 1.75819,-1.0769943 2.00625,-2.247719 0.0272,-0.128366 0.0542,-0.144513 0.24164,-0.144513 0.2487,0 0.25811,0.04032 0.12699,0.544193 -0.21755,0.8359757 -0.90275,1.679264 -1.66517,2.049361 -0.63628,0.308862 -1.3735,0.415972 -2.01043,0.292096 z m -1.19869,-0.488194 c -0.59797,-0.399236 -1.13728,-1.1573533 -1.31838,-1.853263 -0.13713,-0.526975 -0.0954,-0.625519 0.23106,-0.546083 0.10777,0.02622 0.14421,0.0887 0.21658,0.371421 0.18094,0.7067527 0.57755,1.2825277 1.13708,1.65073 0.29668,0.195233 0.33615,0.270505 0.23761,0.453058 -0.0783,0.145055 -0.20065,0.126638 -0.50395,-0.07586 z m 1.15744,-0.0622 c -0.63568,-0.138167 -1.23959,-0.560913 -1.6027,-1.1219163 -0.63602,-0.9826317 -0.48922,-2.3168357 0.35333,-3.2111437 0.19014,-0.201828 0.36559,-0.36696 0.38989,-0.36696 0.0243,0 0.15852,-0.06682 0.29828,-0.148493 0.63486,-0.370986 1.6714,-0.379651 2.38277,-0.01992 1.63573,0.827179 1.97494,2.907298 0.68297,4.1881647 -0.43699,0.4332293 -0.84908,0.6286573 -1.48648,0.7049373 -0.56719,0.06788 -0.5954,0.06719 -1.01806,-0.02467 z m 1.56215,-0.7458393 c 0.61065,-0.5775 0.66796,-0.673918 0.54067,-0.909718 -0.0778,-0.1440957 -0.12645,-0.1274377 -0.24037,0.08228 -0.0549,0.10116 -0.1293,0.183927 -0.16522,0.183927 -0.0359,0 -0.12008,0.05855 -0.18701,0.130119 -0.17647,0.188682 -0.40642,0.220233 -0.58576,0.08038 -0.14196,-0.110707 -0.14489,-0.124518 -0.14324,-0.6741237 l 0.002,-0.561102 0.18384,-0.181396 c 0.10111,-0.09977 0.18383,-0.200271 0.18383,-0.223339 0,-0.0757 -0.18221,-0.04355 -0.35907,0.06335 -0.38169,0.230719 -0.46378,0.0915 -0.41679,-0.706888 0.0188,-0.319436 0.0493,-0.704942 0.0679,-0.856681 0.0317,-0.259504 0.0267,-0.275889 -0.0832,-0.275889 -0.31437,0 -0.36242,0.145637 -0.3837,1.162785 -0.0179,0.854708 -0.12544,0.926138 -0.57784,0.383724 -0.1584,-0.189916 -0.34217,-0.404324 -0.40839,-0.476461 -0.15029,-0.163735 -0.34901,-0.151368 -0.37398,0.02327 -0.0129,0.09014 0.0585,0.193332 0.27885,0.403271 0.27434,0.261331 0.5578,0.727489 0.55987,0.920723 4.3e-4,0.04335 0.0328,0.13952 0.0718,0.213704 0.0391,0.07418 0.0881,0.204245 0.10892,0.2890257 0.0208,0.08478 0.0938,0.238827 0.16202,0.342322 0.0683,0.103495 0.20857,0.354451 0.3118,0.557679 0.1575,0.3100773 0.22441,0.3871533 0.41598,0.4792243 0.12555,0.06035 0.27598,0.110794 0.33429,0.112108 0.0644,0.0014 0.34053,-0.219396 0.70311,-0.5622973 z m -0.34075,-0.616137 c 0.13786,-0.136676 -0.008,-0.7630787 -0.17806,-0.7630787 -0.0754,0 -0.0647,0.7018657 0.0118,0.7777447 0.0789,0.07821 0.0719,0.07882 0.16623,-0.01467 z m 0.44863,-0.300636 c 0.10424,-0.1033417 0.0725,-0.1996907 -0.0658,-0.1996907 -0.15902,0 -0.21931,0.08397 -0.13371,0.1862277 0.0778,0.09299 0.11664,0.09561 0.19949,0.01346 z m 0.30942,-0.4684387 c 0.0425,-0.035 0.0702,-0.112997 0.0615,-0.173332 -0.0128,-0.08861 -0.0871,-0.127143 -0.38685,-0.200462 -0.20407,-0.04992 -0.40086,-0.08022 -0.4373,-0.06734 -0.17372,0.06142 9e-5,0.418683 0.25178,0.517525 0.11332,0.0445 0.41957,-0.0013 0.51084,-0.07639 z m -0.36286,-0.658069 c -0.0558,-0.05533 -0.12131,-0.07206 -0.18363,-0.04691 -0.0916,0.03698 -0.0911,0.04145 0.009,0.08232 0.0583,0.02377 0.14094,0.04488 0.18363,0.04691 0.064,0.003 0.0624,-0.01134 -0.009,-0.08232 z m -4.15649,-0.09592 c -0.0177,-0.04578 0.008,-0.242061 0.0572,-0.436188 0.35138,-1.386839 1.68206,-2.42797 3.10321,-2.42797 1.42114,0 2.75182,1.041131 3.1032,2.42797 0.10583,0.417706 0.0823,0.513023 -0.12672,0.513023 -0.18836,0 -0.24829,-0.06901 -0.29665,-0.341577 -0.0704,-0.396852 -0.39704,-0.978419 -0.74022,-1.317951 -1.05885,-1.047582 -2.69886,-1.066055 -3.79305,-0.04273 -0.40601,0.379723 -0.6408,0.773197 -0.7826,1.311535 -0.0957,0.363321 -0.0966,0.364494 -0.29408,0.380779 -0.14265,0.01176 -0.2071,-0.007 -0.2303,-0.0669 z"
       id="path1611" />
    <path
       style="fill:#94b6d6;stroke-width:0.0527777"
       d="m -163.15966,11.130964 c -0.26034,-0.04997 -0.32885,-0.11679 -0.25672,-0.250402 0.0506,-0.09376 0.10075,-0.10023 0.60461,-0.07801 0.64811,0.02858 0.98788,-0.03306 1.46695,-0.266129 0.69345,-0.33737 1.35482,-1.1801003 1.4656,-1.867504 0.0335,-0.207826 0.13528,-0.378653 0.22443,-0.376658 0.0198,4.51e-4 0.0695,0.02186 0.11053,0.0476 0.11385,0.07146 -0.022,0.6227277 -0.27913,1.1324607 -0.60343,1.1963183 -2.03554,1.9083033 -3.33627,1.6586453 z m -1.24455,-0.50968 c -0.58218,-0.391623 -1.09334,-1.1285573 -1.2553,-1.809748 -0.10962,-0.461052 -0.10828,-0.467534 0.0971,-0.467534 0.17584,0 0.17959,0.0049 0.24061,0.312377 0.12874,0.6487517 0.59902,1.3288957 1.20433,1.74178 0.23803,0.162364 0.25464,0.190052 0.19947,0.332585 -0.049,0.126577 -0.1788,0.09736 -0.48624,-0.10946 z m 1.12798,-0.02868 c -0.38931,-0.128376 -0.84387,-0.374864 -1.07018,-0.580316 -0.55795,-0.5065303 -0.85237,-1.198658 -0.79135,-1.860328 0.0182,-0.197853 0.0328,-0.423355 0.0324,-0.501116 -0.001,-0.183919 0.35073,-0.475037 0.4279,-0.354148 0.0715,0.112037 0.0628,0.135761 -0.0962,0.262601 l -0.14576,0.116274 0.19688,-0.03003 c 0.18443,-0.02813 0.20967,-0.01447 0.39916,0.21598 0.29427,0.357868 0.4789,0.646196 0.5196,0.811418 0.0197,0.07976 0.0563,0.157609 0.0814,0.173007 0.0251,0.0154 0.072,0.1275017 0.10424,0.2491177 0.0322,0.121616 0.12399,0.303887 0.20399,0.405046 0.08,0.101159 0.2141,0.309847 0.29802,0.463749 0.10384,0.1904433 0.22115,0.3187883 0.36726,0.4018083 0.41284,0.23457 0.39586,0.239935 0.99061,-0.312959 0.55539,-0.5162923 0.78776,-0.7961663 0.78776,-0.9487863 0,-0.04755 -0.0464,-0.14494 -0.10311,-0.2164127 -0.0816,-0.102895 -0.0969,-0.181572 -0.0735,-0.377889 0.0351,-0.293579 -0.0105,-0.345066 -0.35347,-0.399437 -0.13119,-0.0208 -0.31265,-0.04983 -0.40324,-0.06452 -0.20836,-0.03379 -0.26553,0.08322 -0.14943,0.30581 0.0941,0.180442 0.35503,0.307833 0.63048,0.307833 0.10297,0 0.18722,0.02488 0.18722,0.05528 0,0.135994 -0.24816,0.4754717 -0.37043,0.5067337 -0.0725,0.01855 -0.17565,0.08887 -0.22912,0.15626 -0.0591,0.07444 -0.15293,0.122218 -0.23914,0.121729 -0.30284,-0.0017 -0.37493,-0.158696 -0.35517,-0.7733747 0.0141,-0.43867 0.0291,-0.49988 0.16074,-0.656201 0.20418,-0.24247 0.2428,-0.25541 0.50005,-0.167542 0.25056,0.08558 0.321,0.06386 0.23439,-0.07228 -0.0865,-0.135951 -0.77035,-0.13975 -0.94284,-0.0052 -0.13107,0.102215 -0.23947,0.128346 -0.2469,0.05952 -0.002,-0.02168 -0.001,-0.193122 0.002,-0.380989 0.0107,-0.590841 0.0115,-0.70522 0.006,-0.867081 -0.003,-0.08671 9.5e-4,-0.356624 0.009,-0.599814 0.0172,-0.535689 0.11548,-0.630636 0.16514,-0.159575 0.0203,0.192802 0.0741,0.372198 0.13431,0.44808 l 0.1004,0.126548 0.0236,-0.159235 c 0.013,-0.08758 -0.007,-0.199717 -0.0454,-0.249196 -0.0862,-0.112496 -0.0915,-0.255936 -0.0112,-0.305112 0.0803,-0.04919 0.57499,-0.08729 0.57499,-0.04428 0,0.01833 -0.0709,0.09903 -0.15764,0.179317 -0.15317,0.141857 -0.15671,0.156202 -0.12511,0.507174 0.0179,0.198654 0.0402,0.37019 0.0497,0.381191 0.009,0.011 0.16713,-0.07277 0.35039,-0.186168 0.30289,-0.187419 0.33471,-0.224183 0.34984,-0.404198 0.0128,-0.152505 0.0372,-0.194199 0.10601,-0.181377 0.0491,0.0092 0.11292,0.06972 0.14169,0.134582 0.0288,0.06486 0.0782,0.117931 0.10973,0.117931 0.0316,0 0.15643,0.08404 0.27748,0.186765 0.29071,0.246702 0.5829,0.833792 0.65966,1.32547 0.15963,1.022399 -0.44994,2.1710637 -1.39758,2.633574 -0.47509,0.231875 -1.46487,0.339994 -1.87485,0.204801 z m 1.29462,-1.3241633 c 0.13459,-0.160771 -0.0934,-0.8957247 -0.24845,-0.8007517 -0.0526,0.03224 -0.0454,0.7270017 0.008,0.8133837 0.0519,0.08327 0.1647,0.07733 0.24001,-0.01263 z m 0.45316,-0.326206 c 0.0928,-0.09203 0.0834,-0.2073147 -0.0162,-0.1988457 -0.034,0.0029 -0.10955,0.0088 -0.16785,0.01314 -0.0646,0.0048 -0.10602,0.04554 -0.10602,0.104224 0,0.1828227 0.14642,0.2239467 0.29012,0.08149 z m -0.7768,-2.1737057 0.0169,-0.234537 -0.10964,0.138178 c -0.13807,0.17402 -0.14771,0.372945 -0.0169,0.34834 0.0686,-0.0129 0.0971,-0.07855 0.10963,-0.251981 z m -1.28407,0.988476 c -0.0464,-0.06575 -0.0845,-0.144141 -0.0845,-0.17421 0,-0.03007 -0.0537,-0.07802 -0.11927,-0.106546 -0.0656,-0.02853 -0.17707,-0.140778 -0.24773,-0.24944 -0.085,-0.130651 -0.2241,-0.242414 -0.4108,-0.329979 -0.15528,-0.07283 -0.28232,-0.151426 -0.28232,-0.174665 0,-0.107755 0.0892,-0.09572 0.38401,0.05182 0.21301,0.106606 0.36025,0.148822 0.44526,0.127669 0.28197,-0.07016 0.55333,0.28022 0.53397,0.689464 -0.0132,0.278668 -0.0951,0.340805 -0.21867,0.165884 z m -2.12326,-0.04052 c -0.0557,-0.08942 0.11666,-0.68226 0.31418,-1.080365 0.35138,-0.708225 1.05009,-1.299942 1.8333,-1.552578 0.55895,-0.180295 1.34394,-0.180295 1.90289,0 0.48056,0.15501 1.08054,0.5432 1.40871,0.911429 0.28313,0.317696 0.62623,0.991706 0.7098,1.394383 0.0667,0.321232 0.0477,0.376598 -0.12876,0.376598 -0.10149,0 -0.13795,-0.03946 -0.1821,-0.197064 -0.0304,-0.108385 -0.0553,-0.223885 -0.0555,-0.256667 -1e-4,-0.03278 -0.0949,-0.247019 -0.21056,-0.476084 -0.62998,-1.247841 -2.10435,-1.835458 -3.41862,-1.362504 -0.86984,0.313021 -1.41854,0.897692 -1.7313,1.844807 -0.12132,0.367379 -0.15626,0.423301 -0.27328,0.437386 -0.0738,0.0089 -0.14973,-0.0088 -0.16876,-0.039341 z m 2.07382,-0.883552 c -0.11193,-0.07615 -0.30244,-0.151579 -0.42335,-0.16763 -0.23962,-0.03181 -0.30221,-0.135199 -0.20476,-0.338254 0.0294,-0.06123 0.0668,-0.152715 0.0831,-0.203295 0.0447,-0.138675 0.13898,-0.110318 0.13898,0.0418 0,0.157131 0.14874,0.310559 0.49313,0.508683 0.13693,0.07877 0.24896,0.179273 0.24896,0.223339 0,0.114167 -0.10203,0.09454 -0.33603,-0.06464 z m 0.34862,-0.955792 c -0.0944,-0.07812 -0.17161,-0.156992 -0.17161,-0.175278 0,-0.01829 0.12523,-0.02839 0.27828,-0.02245 0.25489,0.0099 0.27828,0.02134 0.27828,0.136156 0,0.201231 -0.1812,0.230212 -0.38495,0.06157 z"
       id="path1609" />
    <path
       style="fill:#6dc6e9;stroke-width:0.0527777"
       d="m -163.15966,11.130964 c -0.26034,-0.04997 -0.32885,-0.11679 -0.25672,-0.250402 0.0506,-0.09376 0.10075,-0.10023 0.60461,-0.07801 0.64811,0.02858 0.98788,-0.03306 1.46695,-0.266129 0.69345,-0.33737 1.35482,-1.1801003 1.4656,-1.867504 0.0335,-0.207826 0.13528,-0.378653 0.22443,-0.376658 0.0198,4.51e-4 0.0695,0.02186 0.11053,0.0476 0.11385,0.07146 -0.022,0.6227277 -0.27913,1.1324607 -0.60343,1.1963183 -2.03554,1.9083033 -3.33627,1.6586453 z m -1.24455,-0.50968 c -0.58218,-0.391623 -1.09334,-1.1285573 -1.2553,-1.809748 -0.10962,-0.461052 -0.10828,-0.467534 0.0971,-0.467534 0.17584,0 0.17959,0.0049 0.24061,0.312377 0.12874,0.6487517 0.59902,1.3288957 1.20433,1.74178 0.23803,0.162364 0.25464,0.190052 0.19947,0.332585 -0.049,0.126577 -0.1788,0.09736 -0.48624,-0.10946 z m 1.2605,-0.07017 c -0.0437,-0.02802 -0.1459,-0.0513 -0.22704,-0.05175 -0.36539,-0.002 -1.05911,-0.5146293 -1.39363,-1.0298403 -0.29157,-0.449061 -0.36417,-0.8238637 -0.34238,-1.7676077 0.004,-0.159533 0.0391,-0.221556 0.19292,-0.337881 0.15552,-0.1176 0.1968,-0.12936 0.23638,-0.06735 0.0732,0.114684 0.0622,0.141553 -0.10944,0.267365 -0.0875,0.06411 -0.15902,0.138652 -0.15902,0.165658 0,0.02701 0.0358,0.01966 0.0795,-0.01632 0.0437,-0.03598 0.0795,-0.04987 0.0795,-0.03086 0,0.01901 0.0452,0.01056 0.1005,-0.01877 0.0851,-0.04514 0.13798,-0.0098 0.34454,0.229872 0.13422,0.155757 0.24404,0.299657 0.24404,0.319778 0,0.02012 0.0596,0.106842 0.13251,0.192714 0.11041,0.130085 0.13252,0.210909 0.13252,0.484491 0,0.3060287 0.0153,0.3479737 0.22527,0.6167817 0.1239,0.158632 0.29488,0.398062 0.37994,0.5320663 0.0969,0.152657 0.24042,0.288744 0.3843,0.364414 0.12629,0.06642 0.22963,0.138547 0.22963,0.160274 0,0.05759 -0.43659,0.04684 -0.53006,-0.01305 z m 1.06011,-0.04069 c 0,-0.07028 0.48857,-0.5372963 0.56213,-0.5373333 0.0939,-4.5e-5 0.59588,-0.553954 0.63225,-0.697616 0.0182,-0.07204 -0.002,-0.234236 -0.0445,-0.3604367 -0.0427,-0.126202 -0.0948,-0.332461 -0.11582,-0.458355 -0.021,-0.125893 -0.0833,-0.267779 -0.13856,-0.315302 -0.20573,-0.177045 -0.28843,-0.257592 -0.38259,-0.372651 -0.0712,-0.08701 -0.12704,-0.108288 -0.21202,-0.0808 -0.0635,0.02052 -0.21266,0.03398 -0.33157,0.02989 -0.14773,-0.0051 -0.26088,0.02741 -0.35728,0.102591 -0.0776,0.06051 -0.16387,0.09605 -0.19173,0.07898 -0.048,-0.02942 -0.0681,-0.284722 -0.0498,-0.632671 0.008,-0.156689 0.007,-0.328961 -0.003,-0.630604 -0.003,-0.08671 9.6e-4,-0.356625 0.009,-0.599814 0.0172,-0.53569 0.11548,-0.630636 0.16514,-0.159576 0.0203,0.192803 0.0741,0.372199 0.1343,0.448081 l 0.10041,0.126547 0.0236,-0.159234 c 0.013,-0.08758 -0.007,-0.199717 -0.0454,-0.249197 -0.0862,-0.112495 -0.0915,-0.255936 -0.0112,-0.305111 0.0803,-0.04919 0.57499,-0.08729 0.57499,-0.04428 0,0.01833 -0.0709,0.09903 -0.15763,0.179317 -0.15318,0.141856 -0.15672,0.156202 -0.12512,0.507174 0.0179,0.198654 0.0402,0.37019 0.0497,0.381191 0.009,0.011 0.16714,-0.07278 0.35039,-0.186169 0.30289,-0.187418 0.33471,-0.224182 0.34984,-0.404197 0.0128,-0.152505 0.0372,-0.1942 0.10602,-0.181377 0.0491,0.0092 0.11299,0.0699 0.14186,0.134976 0.0289,0.06508 0.16027,0.191242 0.292,0.280361 0.41728,0.282299 0.74213,1.003388 0.74213,1.647347 0,0.741177 -0.24466,1.3252567 -0.7742,1.8482477 -0.31915,0.3151983 -0.80149,0.5974083 -1.00592,0.5885343 -0.0559,-0.0024 -0.14334,0.0131 -0.19435,0.0345 -0.0522,0.02192 -0.0928,0.01623 -0.0928,-0.01302 z m -0.22165,-3.741898 0.0169,-0.234537 -0.10964,0.138178 c -0.13807,0.17402 -0.14771,0.372945 -0.0169,0.34834 0.0686,-0.0129 0.0971,-0.07855 0.10963,-0.251981 z m -1.25125,1.040121 c -0.0833,-0.08263 -0.086,-0.272401 -0.003,-0.221605 0.0379,0.02323 0.0468,0.01441 0.0234,-0.02317 -0.0208,-0.03337 -0.0919,-0.06067 -0.15797,-0.06067 -0.12347,0 -0.29194,-0.148944 -0.39677,-0.350776 -0.0327,-0.06286 -0.19068,-0.175884 -0.35117,-0.251153 -0.16048,-0.07527 -0.29179,-0.155868 -0.29179,-0.179107 0,-0.107755 0.0892,-0.09572 0.38401,0.05182 0.21302,0.106606 0.36025,0.148822 0.44526,0.127669 0.28197,-0.07016 0.55334,0.28022 0.53398,0.689464 -0.012,0.253867 -0.0749,0.327504 -0.18586,0.217529 z m -2.15608,-0.09216 c -0.0557,-0.08942 0.11666,-0.68226 0.31418,-1.080365 0.35138,-0.708225 1.05009,-1.299942 1.8333,-1.552578 0.55895,-0.180295 1.34394,-0.180295 1.90289,0 0.48056,0.15501 1.08054,0.5432 1.40871,0.911429 0.28313,0.317696 0.62623,0.991706 0.7098,1.394383 0.0667,0.321232 0.0477,0.376598 -0.12876,0.376598 -0.10149,0 -0.13795,-0.03946 -0.1821,-0.197064 -0.0304,-0.108385 -0.0553,-0.223885 -0.0555,-0.256667 -1e-4,-0.03278 -0.0949,-0.247019 -0.21056,-0.476084 -0.62998,-1.247841 -2.10435,-1.835458 -3.41862,-1.362504 -0.86984,0.313021 -1.41854,0.897692 -1.7313,1.844807 -0.12132,0.367379 -0.15626,0.423301 -0.27328,0.437386 -0.0738,0.0089 -0.14973,-0.0088 -0.16876,-0.039341 z m 2.07382,-0.883552 c -0.11193,-0.07615 -0.30244,-0.151579 -0.42335,-0.16763 -0.23962,-0.03181 -0.30221,-0.135199 -0.20476,-0.338254 0.0294,-0.06123 0.0668,-0.152715 0.0831,-0.203295 0.0447,-0.138675 0.13898,-0.110318 0.13898,0.0418 0,0.157131 0.14874,0.310559 0.49313,0.508683 0.13693,0.07877 0.24896,0.179273 0.24896,0.223339 0,0.114167 -0.10203,0.09454 -0.33603,-0.06464 z m 0.34862,-0.955792 c -0.0944,-0.07812 -0.17161,-0.156992 -0.17161,-0.175278 0,-0.01829 0.12523,-0.02839 0.27828,-0.02245 0.25489,0.0099 0.27828,0.02134 0.27828,0.136156 0,0.201231 -0.1812,0.230212 -0.38495,0.06157 z"
       id="path1607" />
    <path
       style="fill:#5ca6dc;stroke-width:0.0527777"
       d="m -163.22322,11.083022 c -0.11203,-0.02375 -0.15902,-0.06461 -0.15902,-0.138295 0,-0.099 0.0299,-0.103572 0.55883,-0.08562 0.39699,0.01347 0.65624,-0.0058 0.89512,-0.06645 1.02362,-0.259985 1.85652,-1.1026853 2.08782,-2.112395 0.0562,-0.245319 0.0921,-0.309988 0.17211,-0.309988 0.14789,0 0.15176,0.136717 0.0166,0.5880007 -0.14839,0.495571 -0.51133,1.0608293 -0.89918,1.4004313 -0.32998,0.288925 -1.00651,0.629661 -1.41602,0.713175 -0.2989,0.06096 -0.99229,0.06711 -1.25628,0.01114 z m -1.17263,-0.502043 c -0.55809,-0.37261 -1.03444,-1.0451233 -1.21395,-1.713857 -0.11428,-0.425752 -0.10436,-0.52312 0.0533,-0.52312 0.10016,0 0.13932,0.03444 0.16433,0.144514 0.10053,0.442546 0.15516,0.5973897 0.32298,0.9154327 0.17605,0.333641 0.61196,0.8028573 0.99528,1.0713143 0.10706,0.07498 0.14376,0.135322 0.11986,0.197063 -0.05,0.129321 -0.13876,0.11098 -0.44181,-0.09135 z m 1.25214,-0.02986 c -0.0437,-0.02802 -0.1459,-0.0513 -0.22704,-0.05175 -0.21537,-0.0012 -0.64919,-0.236497 -0.95419,-0.5175923 -0.50801,-0.468193 -0.77999,-1.0416537 -0.77999,-1.6445797 v -0.30303 l 0.16355,0.05652 c 0.0926,0.032 0.28739,0.04209 0.44895,0.02327 l 0.28541,-0.03326 0.18711,0.275461 c 0.15869,0.233605 0.18712,0.320085 0.18712,0.569141 0,0.2652307 0.0218,0.3216217 0.22527,0.5821027 0.1239,0.158632 0.29488,0.398062 0.37994,0.5320663 0.0969,0.152657 0.24042,0.288744 0.3843,0.364414 0.12629,0.06642 0.22963,0.138547 0.22963,0.160274 0,0.05759 -0.43659,0.04684 -0.53006,-0.01305 z m 1.06011,-0.04069 c 0,-0.07028 0.48857,-0.5372963 0.56213,-0.5373333 0.0939,-4.5e-5 0.59588,-0.553954 0.63225,-0.697616 0.0182,-0.07204 -0.002,-0.234236 -0.0445,-0.3604367 -0.0427,-0.126202 -0.0948,-0.332461 -0.11582,-0.458355 -0.021,-0.125893 -0.0833,-0.267779 -0.13856,-0.315302 -0.2033,-0.174953 -0.28793,-0.256993 -0.37331,-0.36191 -0.0771,-0.09472 -0.13018,-0.104246 -0.45055,-0.08082 -0.19974,0.0146 -0.416,0.05937 -0.48057,0.09948 -0.18323,0.113822 -0.20094,0.09313 -0.19615,-0.229265 0.006,-0.435336 0.0103,-0.448806 0.1205,-0.42024 0.14167,0.03673 0.2713,-0.05165 0.35479,-0.241884 0.0399,-0.09104 0.0736,-0.135958 0.0747,-0.09983 0.004,0.118276 0.18182,0.06833 0.52427,-0.147049 0.21818,-0.137219 0.35704,-0.265247 0.39455,-0.363777 l 0.0579,-0.152037 0.12226,0.164284 c 0.19259,0.258796 0.14055,0.385812 -0.14911,0.363931 -0.085,-0.0064 -0.29286,0.07558 -0.51832,0.204452 -0.30266,0.172996 -0.37645,0.240031 -0.37645,0.342004 0,0.226398 0.16567,0.148554 0.42906,-0.201606 0.083,-0.11035 0.15325,-0.144514 0.29717,-0.144514 0.11322,0 0.3019,-0.06434 0.47257,-0.161144 0.15625,-0.08863 0.30597,-0.147738 0.33271,-0.131352 0.0871,0.05335 0.32876,0.500809 0.43345,0.802493 0.19206,0.553415 0.10822,1.349036 -0.20333,1.9296587 -0.28191,0.525398 -1.11747,1.1921933 -1.47451,1.1766943 -0.0559,-0.0024 -0.14334,0.0131 -0.19436,0.0345 -0.0522,0.02192 -0.0928,0.01623 -0.0928,-0.01302 z m -0.24995,-3.054747 c 0.11027,-0.185071 0.1126,-0.215231 0.0166,-0.215231 -0.0577,0 -0.1907,0.243744 -0.1907,0.349419 0,0.06898 0.0981,-0.0066 0.17409,-0.134188 z m -1.18121,0.313374 c 0,-0.0272 0.0239,-0.06406 0.053,-0.08193 0.0292,-0.01786 0.053,0.0044 0.053,0.04945 0,0.04506 -0.0239,0.08193 -0.053,0.08193 -0.0291,0 -0.053,-0.02225 -0.053,-0.04945 z m -2.14831,-0.305272 c 0.12393,-0.836712 0.77242,-1.697126 1.60669,-2.131757 1.69864,-0.884935 3.80863,-0.03501 4.38574,1.766618 0.16616,0.518722 0.16781,0.614753 0.0105,0.614753 -0.10482,0 -0.13311,-0.04748 -0.2142,-0.359563 -0.12432,-0.478452 -0.41577,-0.953516 -0.80678,-1.315046 -0.5729,-0.529714 -1.12756,-0.742705 -1.9341,-0.742705 -0.94331,0 -1.74302,0.41143 -2.28391,1.175001 -0.22147,0.312658 -0.35462,0.624165 -0.50293,1.176625 -0.01,0.03613 -0.0807,0.06569 -0.15783,0.06569 -0.1371,0 -0.13938,-0.0055 -0.10323,-0.249614 z m 1.70077,-0.182481 c -0.1167,-0.165174 -0.10275,-0.244022 0.0499,-0.282 0.18304,-0.04555 0.28382,0.0037 0.34751,0.169748 0.0406,0.105983 0.0371,0.152285 -0.014,0.184468 -0.12526,0.07879 -0.2999,0.04589 -0.38334,-0.07222 z m 1.26721,-0.6341 c -0.0439,-0.173459 0.058,-0.410845 0.1597,-0.372138 0.13042,0.04961 0.16019,0.27127 0.0523,0.389444 -0.12255,0.134245 -0.17474,0.129986 -0.21202,-0.01731 z m -1.50102,-0.103278 c -0.0894,-0.08861 0.0344,-0.218659 0.13182,-0.138498 0.0399,0.0328 0.0725,0.07785 0.0725,0.100126 0,0.07113 -0.14398,0.09817 -0.2043,0.03837 z m 1.90242,-0.58866 c -0.0781,-0.09334 -0.0291,-0.186228 0.0984,-0.186228 0.13471,0 0.16879,0.05193 0.10798,0.16456 -0.0637,0.118069 -0.12066,0.124046 -0.20636,0.02167 z m -0.87838,-0.08409 c -0.021,-0.03374 -0.008,-0.08015 0.03,-0.103149 0.0878,-0.05381 0.22084,-0.0039 0.19496,0.07318 -0.028,0.08333 -0.17915,0.103471 -0.22497,0.02997 z"
       id="path1605" />
    <path
       style="fill:#22a4d5;stroke-width:0.0527777"
       d="m -163.10455,11.078753 c -0.237,-0.04557 -0.27476,-0.07564 -0.2324,-0.185085 0.0237,-0.06116 0.0697,-0.07276 0.17882,-0.04504 0.27216,0.06917 0.98704,0.03831 1.3108,-0.05658 0.49102,-0.143913 0.79278,-0.318825 1.18846,-0.688888 0.41204,-0.3853523 0.70571,-0.8777313 0.81868,-1.372645 0.058,-0.25427 0.0912,-0.310717 0.19073,-0.32515 0.11034,-0.01599 0.11751,-0.0027 0.0851,0.157651 -0.16165,0.8000997 -0.58261,1.483034 -1.20343,1.952369 -0.61021,0.46132 -1.61171,0.702771 -2.33677,0.56337 z m -1.20718,-0.466618 c -0.29746,-0.18909 -0.78412,-0.6967843 -0.9652,-1.0069253 -0.14153,-0.242402 -0.31987,-0.7339347 -0.37656,-1.0378687 -0.0285,-0.152612 -0.0188,-0.170789 0.0909,-0.170789 0.10624,0 0.13189,0.04066 0.19062,0.302165 0.14681,0.6536747 0.62899,1.353484 1.17368,1.703397 0.15162,0.0974 0.25691,0.202068 0.24817,0.246698 -0.0254,0.129677 -0.11405,0.120684 -0.3616,-0.03668 z m 1.09798,-0.115567 c -0.16392,-0.127835 -0.4777,-0.7360583 -0.45053,-0.8733143 0.0146,-0.07373 0.0619,-0.0341 0.19816,0.165882 0.23644,0.3470793 0.42268,0.5444633 0.60069,0.6366453 0.0802,0.04152 0.14576,0.09852 0.14576,0.126684 0,0.09339 -0.354,0.05334 -0.49408,-0.0559 z m 1.19489,-0.05917 c 0.0113,-0.03364 0.10143,-0.122322 0.20026,-0.197064 0.18357,-0.138834 0.17541,-0.072 -0.0171,0.139994 -0.11459,0.126188 -0.21715,0.158145 -0.18317,0.05707 z m -1.81393,-0.152255 c -0.40319,-0.219849 -0.7706,-0.5934073 -0.9623,-0.9783933 -0.16725,-0.335875 -0.16476,-0.4372437 0.0108,-0.4372437 0.16689,0 0.63789,-0.196409 0.71711,-0.299037 0.0626,-0.08107 0.0808,-0.08384 0.12394,-0.01874 0.0278,0.04199 0.0385,0.136583 0.0238,0.210201 -0.0429,0.2147967 0.12438,0.8933167 0.31159,1.263682 0.095,0.187868 0.18061,0.359313 0.19033,0.38099 0.0367,0.08187 -0.13378,0.032 -0.41521,-0.12146 z m 2.12024,0.106286 c 0,-0.0308 0.1642,-0.227987 0.36488,-0.4381963 0.20069,-0.210209 0.40468,-0.458478 0.45331,-0.551709 0.0837,-0.160513 0.0824,-0.193776 -0.0241,-0.6266527 -0.16088,-0.653616 -0.15796,-0.646019 -0.29708,-0.773841 l -0.12664,-0.116363 0.35812,-0.216688 c 0.42933,-0.259778 0.383,-0.288872 -0.0766,-0.04809 -0.23091,0.120976 -0.34537,0.155685 -0.38472,0.116672 -0.0393,-0.03901 0.0376,-0.10774 0.25866,-0.231011 0.20588,-0.114804 0.3255,-0.218223 0.34598,-0.299114 0.0387,-0.152861 0.1902,-0.161616 0.32081,-0.01854 0.0528,0.0578 0.13911,0.105101 0.19187,0.105101 0.22208,0 0.33938,0.61357 0.23319,1.219809 -0.14541,0.8301277 -0.7022,1.557123 -1.41892,1.852658 -0.12429,0.05125 -0.19877,0.06098 -0.19877,0.02597 z m -2.96906,-1.891105 c -0.0719,-0.133167 -0.0694,-0.136872 0.12427,-0.185061 0.14072,-0.03501 0.14878,-0.02811 0.13241,0.113518 -0.0215,0.186142 -0.17215,0.228128 -0.25668,0.07154 z m -0.96374,-0.814706 c -0.0174,-0.01728 0.002,-0.176466 0.0442,-0.353752 0.23986,-1.019314 1.06815,-1.884103 2.11294,-2.206032 0.51075,-0.157376 1.23711,-0.157591 1.74919,-5.22e-4 0.94158,0.288814 1.74864,1.050628 2.03529,1.921197 0.15293,0.46444 0.16338,0.640611 0.038,0.640611 -0.077,0 -0.11681,-0.06651 -0.17316,-0.289026 -0.32019,-1.264292 -1.47413,-2.154564 -2.79269,-2.154564 -0.67452,0 -1.38757,0.290912 -1.8994,0.774921 -0.40011,0.378355 -0.62123,0.725938 -0.79275,1.246104 -0.1253,0.380014 -0.22771,0.514108 -0.32157,0.421059 z m 3.34973,-0.12987 c 0.0642,-0.118993 0.16073,-0.134937 0.25443,-0.04204 0.10686,0.10594 0.0722,0.147141 -0.12378,0.147141 -0.17096,0 -0.18241,-0.0092 -0.13065,-0.105101 z m -0.37104,-0.179547 c 0,-0.08831 0.0291,-0.135755 0.0832,-0.135755 0.0553,0 0.0775,0.03833 0.0663,0.114123 -0.025,0.168239 -0.14945,0.186258 -0.14945,0.02163 z m -1.23239,-0.03486 c -0.1245,-0.07189 -0.12065,-0.295236 0.006,-0.335018 0.23214,-0.07305 0.42813,0.187415 0.24236,0.322085 -0.11343,0.08223 -0.12692,0.08293 -0.24814,0.01293 z m 2.30576,0.02196 c -0.10588,-0.04236 -0.0766,-0.267367 0.0459,-0.352405 0.14372,-0.0998 0.3323,-0.03623 0.35573,0.119932 0.0314,0.209124 -0.16942,0.32536 -0.40161,0.232473 z m -1.06332,-0.841352 c 0.0192,-0.224803 0.11554,-0.282418 0.20261,-0.121122 0.0493,0.09123 0.0433,0.131827 -0.0311,0.213394 -0.1376,0.150735 -0.1898,0.122645 -0.17148,-0.09227 z m 1.43891,0.0055 c -0.0442,-0.114137 0.068,-0.221474 0.14826,-0.141886 0.0678,0.06727 0.0258,0.224244 -0.06,0.224244 -0.031,0 -0.0707,-0.03706 -0.0882,-0.08236 z m -2.98613,-0.04592 c 0,-0.04165 0.0212,-0.08868 0.047,-0.104522 0.0584,-0.03576 0.17716,0.09815 0.12922,0.145669 -0.0631,0.06252 -0.17622,0.0361 -0.17622,-0.04115 z m 1.91737,-0.58952 c 0.0223,-0.115002 0.17636,-0.131272 0.17636,-0.01863 0,0.04296 -0.0439,0.08649 -0.0976,0.09673 -0.0708,0.01352 -0.0924,-0.0079 -0.0788,-0.07811 z m -0.85725,-0.04418 c 0,-0.05413 0.0347,-0.0799 0.0928,-0.06882 0.11172,0.02133 0.10468,0.114595 -0.0105,0.138362 -0.048,0.0099 -0.0823,-0.01905 -0.0823,-0.06954 z"
       id="path1603" />
    <path
       style="fill:#2a6fc5;stroke-width:0.0527777"
       d="m -163.21375,10.496568 c -0.16392,-0.127835 -0.4777,-0.7360583 -0.45053,-0.8733143 0.0146,-0.07373 0.0619,-0.0341 0.19816,0.165882 0.23644,0.3470793 0.42268,0.5444633 0.60069,0.6366453 0.0802,0.04152 0.14576,0.09852 0.14576,0.126684 0,0.09339 -0.354,0.05334 -0.49408,-0.0559 z m 1.19489,-0.05917 c 0.0113,-0.03364 0.10143,-0.122322 0.20026,-0.197064 0.18357,-0.138834 0.17541,-0.072 -0.0171,0.139994 -0.11459,0.126188 -0.21715,0.158145 -0.18317,0.05707 z m -1.81393,-0.152255 c -0.16034,-0.08743 -0.40607,-0.270273 -0.54607,-0.4063123 -0.2516,-0.244498 -0.6163,-0.872925 -0.54665,-0.9419707 0.0198,-0.01962 0.23955,-0.08795 0.48836,-0.151831 0.3216,-0.08258 0.45743,-0.09855 0.46988,-0.05525 0.01,0.0335 0.0547,0.2604497 0.10013,0.5043407 0.0479,0.257246 0.15596,0.588221 0.25726,0.7882553 0.096,0.189649 0.18258,0.362552 0.1923,0.384229 0.0367,0.08187 -0.13378,0.032 -0.41521,-0.121461 z m 2.12024,0.106286 c 0,-0.0308 0.1642,-0.227987 0.36488,-0.4381963 0.20069,-0.210209 0.40468,-0.458478 0.45331,-0.551709 0.0837,-0.160513 0.0824,-0.193776 -0.0241,-0.6266527 -0.16088,-0.653616 -0.15796,-0.646019 -0.29708,-0.773841 l -0.12664,-0.116363 0.35812,-0.216688 c 0.42933,-0.259778 0.383,-0.288872 -0.0766,-0.04809 -0.23091,0.120976 -0.34537,0.155685 -0.38472,0.116672 -0.0393,-0.03901 0.0375,-0.107671 0.25825,-0.23078 0.17284,-0.09638 0.32581,-0.219042 0.33993,-0.272573 0.0404,-0.153346 0.18592,-0.176957 0.32013,-0.05196 0.066,0.06146 0.15935,0.111749 0.20746,0.111749 0.21379,0 0.32893,0.624974 0.22474,1.219809 -0.14541,0.8301277 -0.7022,1.557123 -1.41892,1.852658 -0.12429,0.05125 -0.19877,0.06098 -0.19877,0.02597 z m 0.17667,-3.128621 c -0.0414,-0.107071 0.11357,-0.239839 0.22883,-0.19599 0.0424,0.01615 0.0699,0.07955 0.0611,0.140904 -0.0205,0.142228 -0.24006,0.183948 -0.28993,0.05509 z"
       id="path1601" />
    <path
       style="fill:#2462bd;stroke-width:0.0527777"
       d="m -163.12516,10.541875 c -0.0627,-0.03007 -0.17449,-0.16493 -0.24846,-0.299683 -0.28442,-0.5180803 -0.29671,-0.7342423 -0.0168,-0.2949443 0.083,0.1302113 0.25515,0.3109973 0.38261,0.4017453 0.30023,0.213756 0.21568,0.352685 -0.11738,0.192882 z m -0.68113,-0.300727 c -0.27616,-0.157687 -0.66257,-0.4993933 -0.66257,-0.5859183 0,-0.02751 0.0906,-0.05002 0.20142,-0.05002 0.11078,0 0.2295,-0.02783 0.26381,-0.06186 0.0479,-0.04744 0.0826,-0.01376 0.14916,0.144514 0.0477,0.113502 0.14408,0.3186943 0.21413,0.4559823 0.0701,0.137287 0.121,0.249392 0.11322,0.249121 -0.008,-2.73e-4 -0.1334,-0.06859 -0.27917,-0.151824 z m 2.25275,0.06941 c 0,-0.01818 0.16662,-0.220211 0.37027,-0.4489563 0.40893,-0.459322 0.46711,-0.594102 0.37925,-0.878528 -0.0327,-0.1058157 -0.0803,-0.3165417 -0.1057,-0.4682807 l -0.0463,-0.27589 h 0.2069 c 0.1138,0 0.30136,-0.04777 0.41681,-0.106168 l 0.20992,-0.106169 V 8.25114 c 0,0.322953 -0.17729,0.8910107 -0.36017,1.1540617 -0.1962,0.282205 -0.67733,0.7365883 -0.9018,0.8516723 -0.0931,0.04771 -0.1692,0.07187 -0.1692,0.05368 z"
       id="path1599" />
  </g>
</svg>
