<svg width="25" height="25" version="1.1" viewBox="0 0 6.6146 6.6146" xmlns="http://www.w3.org/2000/svg">
 <g transform="translate(165.92 -4.7452)">
  <g stroke-width=".052778">
   <path d="m-163.19 11.177c-0.30098-0.05854-0.34662-0.10571-0.28346-0.29295l0.0503-0.14911 0.61086 0.01899c0.46289 0.01439 0.68646-0.0026 0.92301-0.07035 1.0703-0.30633 1.7582-1.077 2.0062-2.2477 0.0272-0.12837 0.0542-0.14451 0.24164-0.14451 0.2487 0 0.25811 0.04032 0.12699 0.54419-0.21755 0.83598-0.90275 1.6793-1.6652 2.0494-0.63628 0.30886-1.3735 0.41597-2.0104 0.2921zm-1.1987-0.48819c-0.59797-0.39924-1.1373-1.1574-1.3184-1.8533-0.13713-0.52698-0.0954-0.62552 0.23106-0.54608 0.10777 0.02622 0.14421 0.0887 0.21658 0.37142 0.18094 0.70675 0.57755 1.2825 1.1371 1.6507 0.29668 0.19523 0.33615 0.2705 0.23761 0.45306-0.0783 0.14506-0.20065 0.12664-0.50395-0.07586zm1.1574-0.0622c-0.63568-0.13817-1.2396-0.56091-1.6027-1.1219-0.63602-0.98263-0.48922-2.3168 0.35333-3.2111 0.19014-0.20183 0.36559-0.36696 0.38989-0.36696s0.15852-0.06682 0.29828-0.14849c0.63486-0.37099 1.6714-0.37965 2.3828-0.01992 1.6357 0.82718 1.9749 2.9073 0.68297 4.1882-0.43699 0.43323-0.84908 0.62866-1.4865 0.70494-0.56719 0.06788-0.5954 0.06719-1.0181-0.02467zm1.5622-0.74584c0.61065-0.5775 0.66796-0.67392 0.54067-0.90972-0.0778-0.1441-0.12645-0.12744-0.24037 0.08228-0.0549 0.10116-0.1293 0.18393-0.16522 0.18393-0.0359 0-0.12008 0.05855-0.18701 0.13012-0.17647 0.18868-0.40642 0.22023-0.58576 0.08038-0.14196-0.11071-0.14489-0.12452-0.14324-0.67412l2e-3 -0.5611 0.18384-0.1814c0.10111-0.09977 0.18383-0.20027 0.18383-0.22334 0-0.0757-0.18221-0.04355-0.35907 0.06335-0.38169 0.23072-0.46378 0.0915-0.41679-0.70689 0.0188-0.31944 0.0493-0.70494 0.0679-0.85668 0.0317-0.2595 0.0267-0.27589-0.0832-0.27589-0.31437 0-0.36242 0.14564-0.3837 1.1628-0.0179 0.85471-0.12544 0.92614-0.57784 0.38372-0.1584-0.18992-0.34217-0.40432-0.40839-0.47646-0.15029-0.16374-0.34901-0.15137-0.37398 0.02327-0.0129 0.09014 0.0585 0.19333 0.27885 0.40327 0.27434 0.26133 0.5578 0.72749 0.55987 0.92072 4.3e-4 0.04335 0.0328 0.13952 0.0718 0.2137 0.0391 0.07418 0.0881 0.20424 0.10892 0.28903 0.0208 0.08478 0.0938 0.23883 0.16202 0.34232 0.0683 0.1035 0.20857 0.35445 0.3118 0.55768 0.1575 0.31008 0.22441 0.38715 0.41598 0.47922 0.12555 0.06035 0.27598 0.11079 0.33429 0.11211 0.0644 0.0014 0.34053-0.2194 0.70311-0.5623zm-0.34075-0.61614c0.13786-0.13668-8e-3 -0.76308-0.17806-0.76308-0.0754 0-0.0647 0.70187 0.0118 0.77774 0.0789 0.07821 0.0719 0.07882 0.16623-0.01467zm0.44863-0.30064c0.10424-0.10334 0.0725-0.19969-0.0658-0.19969-0.15902 0-0.21931 0.08397-0.13371 0.18623 0.0778 0.09299 0.11664 0.09561 0.19949 0.01346zm0.30942-0.46844c0.0425-0.035 0.0702-0.113 0.0615-0.17333-0.0128-0.08861-0.0871-0.12714-0.38685-0.20046-0.20407-0.04992-0.40086-0.08022-0.4373-0.06734-0.17372 0.06142 9e-5 0.41868 0.25178 0.51752 0.11332 0.0445 0.41957-0.0013 0.51084-0.07639zm-0.36286-0.65807c-0.0558-0.05533-0.12131-0.07206-0.18363-0.04691-0.0916 0.03698-0.0911 0.04145 9e-3 0.08232 0.0583 0.02377 0.14094 0.04488 0.18363 0.04691 0.064 3e-3 0.0624-0.01134-9e-3 -0.08232zm-4.1565-0.09592c-0.0177-0.04578 8e-3 -0.24206 0.0572-0.43619 0.35138-1.3868 1.6821-2.428 3.1032-2.428 1.4211 0 2.7518 1.0411 3.1032 2.428 0.10583 0.41771 0.0823 0.51302-0.12672 0.51302-0.18836 0-0.24829-0.06901-0.29665-0.34158-0.0704-0.39685-0.39704-0.97842-0.74022-1.318-1.0588-1.0476-2.6989-1.0661-3.793-0.04273-0.40601 0.37972-0.6408 0.7732-0.7826 1.3115-0.0957 0.36332-0.0966 0.36449-0.29408 0.38078-0.14265 0.01176-0.2071-7e-3 -0.2303-0.0669z" fill="#9ed2ec"/>
   <path d="m-163.16 11.131c-0.26034-0.04997-0.32885-0.11679-0.25672-0.2504 0.0506-0.09376 0.10075-0.10023 0.60461-0.07801 0.64811 0.02858 0.98788-0.03306 1.467-0.26613 0.69345-0.33737 1.3548-1.1801 1.4656-1.8675 0.0335-0.20783 0.13528-0.37865 0.22443-0.37666 0.0198 4.51e-4 0.0695 0.02186 0.11053 0.0476 0.11385 0.07146-0.022 0.62273-0.27913 1.1325-0.60343 1.1963-2.0355 1.9083-3.3363 1.6586zm-1.2446-0.50968c-0.58218-0.39162-1.0933-1.1286-1.2553-1.8097-0.10962-0.46105-0.10828-0.46753 0.0971-0.46753 0.17584 0 0.17959 0.0049 0.24061 0.31238 0.12874 0.64875 0.59902 1.3289 1.2043 1.7418 0.23803 0.16236 0.25464 0.19005 0.19947 0.33258-0.049 0.12658-0.1788 0.09736-0.48624-0.10946zm1.128-0.02868c-0.38931-0.12838-0.84387-0.37486-1.0702-0.58032-0.55795-0.50653-0.85237-1.1987-0.79135-1.8603 0.0182-0.19785 0.0328-0.42336 0.0324-0.50112-1e-3 -0.18392 0.35073-0.47504 0.4279-0.35415 0.0715 0.11204 0.0628 0.13576-0.0962 0.2626l-0.14576 0.11627 0.19688-0.03003c0.18443-0.02813 0.20967-0.01447 0.39916 0.21598 0.29427 0.35787 0.4789 0.6462 0.5196 0.81142 0.0197 0.07976 0.0563 0.15761 0.0814 0.17301 0.0251 0.0154 0.072 0.1275 0.10424 0.24912 0.0322 0.12162 0.12399 0.30389 0.20399 0.40505s0.2141 0.30985 0.29802 0.46375c0.10384 0.19044 0.22115 0.31879 0.36726 0.40181 0.41284 0.23457 0.39586 0.23994 0.99061-0.31296 0.55539-0.51629 0.78776-0.79617 0.78776-0.94879 0-0.04755-0.0464-0.14494-0.10311-0.21641-0.0816-0.1029-0.0969-0.18157-0.0735-0.37789 0.0351-0.29358-0.0105-0.34507-0.35347-0.39944-0.13119-0.0208-0.31265-0.04983-0.40324-0.06452-0.20836-0.03379-0.26553 0.08322-0.14943 0.30581 0.0941 0.18044 0.35503 0.30783 0.63048 0.30783 0.10297 0 0.18722 0.02488 0.18722 0.05528 0 0.13599-0.24816 0.47547-0.37043 0.50673-0.0725 0.01855-0.17565 0.08887-0.22912 0.15626-0.0591 0.07444-0.15293 0.12222-0.23914 0.12173-0.30284-0.0017-0.37493-0.1587-0.35517-0.77337 0.0141-0.43867 0.0291-0.49988 0.16074-0.6562 0.20418-0.24247 0.2428-0.25541 0.50005-0.16754 0.25056 0.08558 0.321 0.06386 0.23439-0.07228-0.0865-0.13595-0.77035-0.13975-0.94284-0.0052-0.13107 0.10222-0.23947 0.12835-0.2469 0.05952-2e-3 -0.02168-1e-3 -0.19312 2e-3 -0.38099 0.0107-0.59084 0.0115-0.70522 6e-3 -0.86708-3e-3 -0.08671 9.5e-4 -0.35662 9e-3 -0.59981 0.0172-0.53569 0.11548-0.63064 0.16514-0.15958 0.0203 0.1928 0.0741 0.3722 0.13431 0.44808l0.1004 0.12655 0.0236-0.15924c0.013-0.08758-7e-3 -0.19972-0.0454-0.2492-0.0862-0.1125-0.0915-0.25594-0.0112-0.30511 0.0803-0.04919 0.57499-0.08729 0.57499-0.04428 0 0.01833-0.0709 0.09903-0.15764 0.17932-0.15317 0.14186-0.15671 0.1562-0.12511 0.50717 0.0179 0.19865 0.0402 0.37019 0.0497 0.38119 9e-3 0.011 0.16713-0.07277 0.35039-0.18617 0.30289-0.18742 0.33471-0.22418 0.34984-0.4042 0.0128-0.1525 0.0372-0.1942 0.10601-0.18138 0.0491 0.0092 0.11292 0.06972 0.14169 0.13458 0.0288 0.06486 0.0782 0.11793 0.10973 0.11793 0.0316 0 0.15643 0.08404 0.27748 0.18676 0.29071 0.2467 0.5829 0.83379 0.65966 1.3255 0.15963 1.0224-0.44994 2.1711-1.3976 2.6336-0.47509 0.23188-1.4649 0.33999-1.8748 0.2048zm1.2946-1.3242c0.13459-0.16077-0.0934-0.89572-0.24845-0.80075-0.0526 0.03224-0.0454 0.727 8e-3 0.81338 0.0519 0.08327 0.1647 0.07733 0.24001-0.01263zm0.45316-0.32621c0.0928-0.09203 0.0834-0.20731-0.0162-0.19885-0.034 0.0029-0.10955 0.0088-0.16785 0.01314-0.0646 0.0048-0.10602 0.04554-0.10602 0.10422 0 0.18282 0.14642 0.22395 0.29012 0.08149zm-0.7768-2.1737 0.0169-0.23454-0.10964 0.13818c-0.13807 0.17402-0.14771 0.37294-0.0169 0.34834 0.0686-0.0129 0.0971-0.07855 0.10963-0.25198zm-1.2841 0.98848c-0.0464-0.06575-0.0845-0.14414-0.0845-0.17421 0-0.03007-0.0537-0.07802-0.11927-0.10655-0.0656-0.02853-0.17707-0.14078-0.24773-0.24944-0.085-0.13065-0.2241-0.24241-0.4108-0.32998-0.15528-0.07283-0.28232-0.15143-0.28232-0.17466 0-0.10776 0.0892-0.09572 0.38401 0.05182 0.21301 0.10661 0.36025 0.14882 0.44526 0.12767 0.28197-0.07016 0.55333 0.28022 0.53397 0.68946-0.0132 0.27867-0.0951 0.3408-0.21867 0.16588zm-2.1233-0.04052c-0.0557-0.08942 0.11666-0.68226 0.31418-1.0804 0.35138-0.70822 1.0501-1.2999 1.8333-1.5526 0.55895-0.1803 1.3439-0.1803 1.9029 0 0.48056 0.15501 1.0805 0.5432 1.4087 0.91143 0.28313 0.3177 0.62623 0.99171 0.7098 1.3944 0.0667 0.32123 0.0477 0.3766-0.12876 0.3766-0.10149 0-0.13795-0.03946-0.1821-0.19706-0.0304-0.10838-0.0553-0.22388-0.0555-0.25667-1e-4 -0.03278-0.0949-0.24702-0.21056-0.47608-0.62998-1.2478-2.1044-1.8355-3.4186-1.3625-0.86984 0.31302-1.4185 0.89769-1.7313 1.8448-0.12132 0.36738-0.15626 0.4233-0.27328 0.43739-0.0738 0.0089-0.14973-0.0088-0.16876-0.039341zm2.0738-0.88355c-0.11193-0.07615-0.30244-0.15158-0.42335-0.16763-0.23962-0.03181-0.30221-0.1352-0.20476-0.33825 0.0294-0.06123 0.0668-0.15272 0.0831-0.2033 0.0447-0.13868 0.13898-0.11032 0.13898 0.0418 0 0.15713 0.14874 0.31056 0.49313 0.50868 0.13693 0.07877 0.24896 0.17927 0.24896 0.22334 0 0.11417-0.10203 0.09454-0.33603-0.06464zm0.34862-0.95579c-0.0944-0.07812-0.17161-0.15699-0.17161-0.17528 0-0.01829 0.12523-0.02839 0.27828-0.02245 0.25489 0.0099 0.27828 0.02134 0.27828 0.13616 0 0.20123-0.1812 0.23021-0.38495 0.06157z" fill="#94b6d6"/>
   <path d="m-163.16 11.131c-0.26034-0.04997-0.32885-0.11679-0.25672-0.2504 0.0506-0.09376 0.10075-0.10023 0.60461-0.07801 0.64811 0.02858 0.98788-0.03306 1.467-0.26613 0.69345-0.33737 1.3548-1.1801 1.4656-1.8675 0.0335-0.20783 0.13528-0.37865 0.22443-0.37666 0.0198 4.51e-4 0.0695 0.02186 0.11053 0.0476 0.11385 0.07146-0.022 0.62273-0.27913 1.1325-0.60343 1.1963-2.0355 1.9083-3.3363 1.6586zm-1.2446-0.50968c-0.58218-0.39162-1.0933-1.1286-1.2553-1.8097-0.10962-0.46105-0.10828-0.46753 0.0971-0.46753 0.17584 0 0.17959 0.0049 0.24061 0.31238 0.12874 0.64875 0.59902 1.3289 1.2043 1.7418 0.23803 0.16236 0.25464 0.19005 0.19947 0.33258-0.049 0.12658-0.1788 0.09736-0.48624-0.10946zm1.2605-0.07017c-0.0437-0.02802-0.1459-0.0513-0.22704-0.05175-0.36539-2e-3 -1.0591-0.51463-1.3936-1.0298-0.29157-0.44906-0.36417-0.82386-0.34238-1.7676 4e-3 -0.15953 0.0391-0.22156 0.19292-0.33788 0.15552-0.1176 0.1968-0.12936 0.23638-0.06735 0.0732 0.11468 0.0622 0.14155-0.10944 0.26736-0.0875 0.06411-0.15902 0.13865-0.15902 0.16566 0 0.02701 0.0358 0.01966 0.0795-0.01632s0.0795-0.04987 0.0795-0.03086 0.0452 0.01056 0.1005-0.01877c0.0851-0.04514 0.13798-0.0098 0.34454 0.22987 0.13422 0.15576 0.24404 0.29966 0.24404 0.31978 0 0.02012 0.0596 0.10684 0.13251 0.19271 0.11041 0.13008 0.13252 0.21091 0.13252 0.48449 0 0.30603 0.0153 0.34797 0.22527 0.61678 0.1239 0.15863 0.29488 0.39806 0.37994 0.53207 0.0969 0.15266 0.24042 0.28874 0.3843 0.36441 0.12629 0.06642 0.22963 0.13855 0.22963 0.16027 0 0.05759-0.43659 0.04684-0.53006-0.01305zm1.0601-0.04069c0-0.07028 0.48857-0.5373 0.56213-0.53733 0.0939-4.5e-5 0.59588-0.55395 0.63225-0.69762 0.0182-0.07204-2e-3 -0.23424-0.0445-0.36044-0.0427-0.1262-0.0948-0.33246-0.11582-0.45836-0.021-0.12589-0.0833-0.26778-0.13856-0.3153-0.20573-0.17704-0.28843-0.25759-0.38259-0.37265-0.0712-0.08701-0.12704-0.10829-0.21202-0.0808-0.0635 0.02052-0.21266 0.03398-0.33157 0.02989-0.14773-0.0051-0.26088 0.02741-0.35728 0.10259-0.0776 0.06051-0.16387 0.09605-0.19173 0.07898-0.048-0.02942-0.0681-0.28472-0.0498-0.63267 8e-3 -0.15669 7e-3 -0.32896-3e-3 -0.6306-3e-3 -0.08671 9.6e-4 -0.35662 9e-3 -0.59981 0.0172-0.53569 0.11548-0.63064 0.16514-0.15958 0.0203 0.1928 0.0741 0.3722 0.1343 0.44808l0.10041 0.12655 0.0236-0.15923c0.013-0.08758-7e-3 -0.19972-0.0454-0.2492-0.0862-0.1125-0.0915-0.25594-0.0112-0.30511 0.0803-0.04919 0.57499-0.08729 0.57499-0.04428 0 0.01833-0.0709 0.09903-0.15763 0.17932-0.15318 0.14186-0.15672 0.1562-0.12512 0.50717 0.0179 0.19865 0.0402 0.37019 0.0497 0.38119 9e-3 0.011 0.16714-0.07278 0.35039-0.18617 0.30289-0.18742 0.33471-0.22418 0.34984-0.4042 0.0128-0.1525 0.0372-0.1942 0.10602-0.18138 0.0491 0.0092 0.11299 0.0699 0.14186 0.13498 0.0289 0.06508 0.16027 0.19124 0.292 0.28036 0.41728 0.2823 0.74213 1.0034 0.74213 1.6473 0 0.74118-0.24466 1.3253-0.7742 1.8482-0.31915 0.3152-0.80149 0.59741-1.0059 0.58853-0.0559-0.0024-0.14334 0.0131-0.19435 0.0345-0.0522 0.02192-0.0928 0.01623-0.0928-0.01302zm-0.22165-3.7419 0.0169-0.23454-0.10964 0.13818c-0.13807 0.17402-0.14771 0.37294-0.0169 0.34834 0.0686-0.0129 0.0971-0.07855 0.10963-0.25198zm-1.2512 1.0401c-0.0833-0.08263-0.086-0.2724-3e-3 -0.2216 0.0379 0.02323 0.0468 0.01441 0.0234-0.02317-0.0208-0.03337-0.0919-0.06067-0.15797-0.06067-0.12347 0-0.29194-0.14894-0.39677-0.35078-0.0327-0.06286-0.19068-0.17588-0.35117-0.25115-0.16048-0.07527-0.29179-0.15587-0.29179-0.17911 0-0.10776 0.0892-0.09572 0.38401 0.05182 0.21302 0.10661 0.36025 0.14882 0.44526 0.12767 0.28197-0.07016 0.55334 0.28022 0.53398 0.68946-0.012 0.25387-0.0749 0.3275-0.18586 0.21753zm-2.1561-0.09216c-0.0557-0.08942 0.11666-0.68226 0.31418-1.0804 0.35138-0.70822 1.0501-1.2999 1.8333-1.5526 0.55895-0.1803 1.3439-0.1803 1.9029 0 0.48056 0.15501 1.0805 0.5432 1.4087 0.91143 0.28313 0.3177 0.62623 0.99171 0.7098 1.3944 0.0667 0.32123 0.0477 0.3766-0.12876 0.3766-0.10149 0-0.13795-0.03946-0.1821-0.19706-0.0304-0.10838-0.0553-0.22388-0.0555-0.25667-1e-4 -0.03278-0.0949-0.24702-0.21056-0.47608-0.62998-1.2478-2.1044-1.8355-3.4186-1.3625-0.86984 0.31302-1.4185 0.89769-1.7313 1.8448-0.12132 0.36738-0.15626 0.4233-0.27328 0.43739-0.0738 0.0089-0.14973-0.0088-0.16876-0.039341zm2.0738-0.88355c-0.11193-0.07615-0.30244-0.15158-0.42335-0.16763-0.23962-0.03181-0.30221-0.1352-0.20476-0.33825 0.0294-0.06123 0.0668-0.15272 0.0831-0.2033 0.0447-0.13868 0.13898-0.11032 0.13898 0.0418 0 0.15713 0.14874 0.31056 0.49313 0.50868 0.13693 0.07877 0.24896 0.17927 0.24896 0.22334 0 0.11417-0.10203 0.09454-0.33603-0.06464zm0.34862-0.95579c-0.0944-0.07812-0.17161-0.15699-0.17161-0.17528 0-0.01829 0.12523-0.02839 0.27828-0.02245 0.25489 0.0099 0.27828 0.02134 0.27828 0.13616 0 0.20123-0.1812 0.23021-0.38495 0.06157z" fill="#6dc6e9"/>
   <path d="m-163.22 11.083c-0.11203-0.02375-0.15902-0.06461-0.15902-0.1383 0-0.099 0.0299-0.10357 0.55883-0.08562 0.39699 0.01347 0.65624-0.0058 0.89512-0.06645 1.0236-0.25998 1.8565-1.1027 2.0878-2.1124 0.0562-0.24532 0.0921-0.30999 0.17211-0.30999 0.14789 0 0.15176 0.13672 0.0166 0.588-0.14839 0.49557-0.51133 1.0608-0.89918 1.4004-0.32998 0.28892-1.0065 0.62966-1.416 0.71318-0.2989 0.06096-0.99229 0.06711-1.2563 0.01114zm-1.1726-0.50204c-0.55809-0.37261-1.0344-1.0451-1.214-1.7139-0.11428-0.42575-0.10436-0.52312 0.0533-0.52312 0.10016 0 0.13932 0.03444 0.16433 0.14451 0.10053 0.44255 0.15516 0.59739 0.32298 0.91543 0.17605 0.33364 0.61196 0.80286 0.99528 1.0713 0.10706 0.07498 0.14376 0.13532 0.11986 0.19706-0.05 0.12932-0.13876 0.11098-0.44181-0.09135zm1.2521-0.02986c-0.0437-0.02802-0.1459-0.0513-0.22704-0.05175-0.21537-0.0012-0.64919-0.2365-0.95419-0.51759-0.50801-0.46819-0.77999-1.0417-0.77999-1.6446v-0.30303l0.16355 0.05652c0.0926 0.032 0.28739 0.04209 0.44895 0.02327l0.28541-0.03326 0.18711 0.27546c0.15869 0.2336 0.18712 0.32008 0.18712 0.56914 0 0.26523 0.0218 0.32162 0.22527 0.5821 0.1239 0.15863 0.29488 0.39806 0.37994 0.53207 0.0969 0.15266 0.24042 0.28874 0.3843 0.36441 0.12629 0.06642 0.22963 0.13855 0.22963 0.16027 0 0.05759-0.43659 0.04684-0.53006-0.01305zm1.0601-0.04069c0-0.07028 0.48857-0.5373 0.56213-0.53733 0.0939-4.5e-5 0.59588-0.55395 0.63225-0.69762 0.0182-0.07204-2e-3 -0.23424-0.0445-0.36044-0.0427-0.1262-0.0948-0.33246-0.11582-0.45836-0.021-0.12589-0.0833-0.26778-0.13856-0.3153-0.2033-0.17495-0.28793-0.25699-0.37331-0.36191-0.0771-0.09472-0.13018-0.10425-0.45055-0.08082-0.19974 0.0146-0.416 0.05937-0.48057 0.09948-0.18323 0.11382-0.20094 0.09313-0.19615-0.22926 6e-3 -0.43534 0.0103-0.44881 0.1205-0.42024 0.14167 0.03673 0.2713-0.05165 0.35479-0.24188 0.0399-0.09104 0.0736-0.13596 0.0747-0.09983 4e-3 0.11828 0.18182 0.06833 0.52427-0.14705 0.21818-0.13722 0.35704-0.26525 0.39455-0.36378l0.0579-0.15204 0.12226 0.16428c0.19259 0.2588 0.14055 0.38581-0.14911 0.36393-0.085-0.0064-0.29286 0.07558-0.51832 0.20445-0.30266 0.173-0.37645 0.24003-0.37645 0.342 0 0.2264 0.16567 0.14855 0.42906-0.20161 0.083-0.11035 0.15325-0.14451 0.29717-0.14451 0.11322 0 0.3019-0.06434 0.47257-0.16114 0.15625-0.08863 0.30597-0.14774 0.33271-0.13135 0.0871 0.05335 0.32876 0.50081 0.43345 0.80249 0.19206 0.55342 0.10822 1.349-0.20333 1.9297-0.28191 0.5254-1.1175 1.1922-1.4745 1.1767-0.0559-0.0024-0.14334 0.0131-0.19436 0.0345-0.0522 0.02192-0.0928 0.01623-0.0928-0.01302zm-0.24995-3.0547c0.11027-0.18507 0.1126-0.21523 0.0166-0.21523-0.0577 0-0.1907 0.24374-0.1907 0.34942 0 0.06898 0.0981-0.0066 0.17409-0.13419zm-1.1812 0.31337c0-0.0272 0.0239-0.06406 0.053-0.08193 0.0292-0.01786 0.053 0.0044 0.053 0.04945 0 0.04506-0.0239 0.08193-0.053 0.08193s-0.053-0.02225-0.053-0.04945zm-2.1483-0.30527c0.12393-0.83671 0.77242-1.6971 1.6067-2.1318 1.6986-0.88494 3.8086-0.03501 4.3857 1.7666 0.16616 0.51872 0.16781 0.61475 0.0105 0.61475-0.10482 0-0.13311-0.04748-0.2142-0.35956-0.12432-0.47845-0.41577-0.95352-0.80678-1.315-0.5729-0.52971-1.1276-0.7427-1.9341-0.7427-0.94331 0-1.743 0.41143-2.2839 1.175-0.22147 0.31266-0.35462 0.62416-0.50293 1.1766-0.01 0.03613-0.0807 0.06569-0.15783 0.06569-0.1371 0-0.13938-0.0055-0.10323-0.24961zm1.7008-0.18248c-0.1167-0.16517-0.10275-0.24402 0.0499-0.282 0.18304-0.04555 0.28382 0.0037 0.34751 0.16975 0.0406 0.10598 0.0371 0.15228-0.014 0.18447-0.12526 0.07879-0.2999 0.04589-0.38334-0.07222zm1.2672-0.6341c-0.0439-0.17346 0.058-0.41084 0.1597-0.37214 0.13042 0.04961 0.16019 0.27127 0.0523 0.38944-0.12255 0.13424-0.17474 0.12999-0.21202-0.01731zm-1.501-0.10328c-0.0894-0.08861 0.0344-0.21866 0.13182-0.1385 0.0399 0.0328 0.0725 0.07785 0.0725 0.10013 0 0.07113-0.14398 0.09817-0.2043 0.03837zm1.9024-0.58866c-0.0781-0.09334-0.0291-0.18623 0.0984-0.18623 0.13471 0 0.16879 0.05193 0.10798 0.16456-0.0637 0.11807-0.12066 0.12405-0.20636 0.02167zm-0.87838-0.08409c-0.021-0.03374-8e-3 -0.08015 0.03-0.10315 0.0878-0.05381 0.22084-0.0039 0.19496 0.07318-0.028 0.08333-0.17915 0.10347-0.22497 0.02997z" fill="#5ca6dc"/>
   <path d="m-163.1 11.079c-0.237-0.04557-0.27476-0.07564-0.2324-0.18508 0.0237-0.06116 0.0697-0.07276 0.17882-0.04504 0.27216 0.06917 0.98704 0.03831 1.3108-0.05658 0.49102-0.14391 0.79278-0.31882 1.1885-0.68889 0.41204-0.38535 0.70571-0.87773 0.81868-1.3726 0.058-0.25427 0.0912-0.31072 0.19073-0.32515 0.11034-0.01599 0.11751-0.0027 0.0851 0.15765-0.16165 0.8001-0.58261 1.483-1.2034 1.9524-0.61021 0.46132-1.6117 0.70277-2.3368 0.56337zm-1.2072-0.46662c-0.29746-0.18909-0.78412-0.69678-0.9652-1.0069-0.14153-0.2424-0.31987-0.73393-0.37656-1.0379-0.0285-0.15261-0.0188-0.17079 0.0909-0.17079 0.10624 0 0.13189 0.04066 0.19062 0.30216 0.14681 0.65367 0.62899 1.3535 1.1737 1.7034 0.15162 0.0974 0.25691 0.20207 0.24817 0.2467-0.0254 0.12968-0.11405 0.12068-0.3616-0.03668zm1.098-0.11557c-0.16392-0.12784-0.4777-0.73606-0.45053-0.87331 0.0146-0.07373 0.0619-0.0341 0.19816 0.16588 0.23644 0.34708 0.42268 0.54446 0.60069 0.63665 0.0802 0.04152 0.14576 0.09852 0.14576 0.12668 0 0.09339-0.354 0.05334-0.49408-0.0559zm1.1949-0.05917c0.0113-0.03364 0.10143-0.12232 0.20026-0.19706 0.18357-0.13883 0.17541-0.072-0.0171 0.13999-0.11459 0.12619-0.21715 0.15814-0.18317 0.05707zm-1.8139-0.15226c-0.40319-0.21985-0.7706-0.59341-0.9623-0.97839-0.16725-0.33588-0.16476-0.43724 0.0108-0.43724 0.16689 0 0.63789-0.19641 0.71711-0.29904 0.0626-0.08107 0.0808-0.08384 0.12394-0.01874 0.0278 0.04199 0.0385 0.13658 0.0238 0.2102-0.0429 0.2148 0.12438 0.89332 0.31159 1.2637 0.095 0.18787 0.18061 0.35931 0.19033 0.38099 0.0367 0.08187-0.13378 0.032-0.41521-0.12146zm2.1202 0.10629c0-0.0308 0.1642-0.22799 0.36488-0.4382 0.20069-0.21021 0.40468-0.45848 0.45331-0.55171 0.0837-0.16051 0.0824-0.19378-0.0241-0.62665-0.16088-0.65362-0.15796-0.64602-0.29708-0.77384l-0.12664-0.11636 0.35812-0.21669c0.42933-0.25978 0.383-0.28887-0.0766-0.04809-0.23091 0.12098-0.34537 0.15568-0.38472 0.11667-0.0393-0.03901 0.0376-0.10774 0.25866-0.23101 0.20588-0.1148 0.3255-0.21822 0.34598-0.29911 0.0387-0.15286 0.1902-0.16162 0.32081-0.01854 0.0528 0.0578 0.13911 0.1051 0.19187 0.1051 0.22208 0 0.33938 0.61357 0.23319 1.2198-0.14541 0.83013-0.7022 1.5571-1.4189 1.8527-0.12429 0.05125-0.19877 0.06098-0.19877 0.02597zm-2.9691-1.8911c-0.0719-0.13317-0.0694-0.13687 0.12427-0.18506 0.14072-0.03501 0.14878-0.02811 0.13241 0.11352-0.0215 0.18614-0.17215 0.22813-0.25668 0.07154zm-0.96374-0.81471c-0.0174-0.01728 2e-3 -0.17647 0.0442-0.35375 0.23986-1.0193 1.0682-1.8841 2.1129-2.206 0.51075-0.15738 1.2371-0.15759 1.7492-5.22e-4 0.94158 0.28881 1.7486 1.0506 2.0353 1.9212 0.15293 0.46444 0.16338 0.64061 0.038 0.64061-0.077 0-0.11681-0.06651-0.17316-0.28903-0.32019-1.2643-1.4741-2.1546-2.7927-2.1546-0.67452 0-1.3876 0.29091-1.8994 0.77492-0.40011 0.37836-0.62123 0.72594-0.79275 1.2461-0.1253 0.38001-0.22771 0.51411-0.32157 0.42106zm3.3497-0.12987c0.0642-0.11899 0.16073-0.13494 0.25443-0.04204 0.10686 0.10594 0.0722 0.14714-0.12378 0.14714-0.17096 0-0.18241-0.0092-0.13065-0.1051zm-0.37104-0.17955c0-0.08831 0.0291-0.13576 0.0832-0.13576 0.0553 0 0.0775 0.03833 0.0663 0.11412-0.025 0.16824-0.14945 0.18626-0.14945 0.02163zm-1.2324-0.03486c-0.1245-0.07189-0.12065-0.29524 6e-3 -0.33502 0.23214-0.07305 0.42813 0.18742 0.24236 0.32208-0.11343 0.08223-0.12692 0.08293-0.24814 0.01293zm2.3058 0.02196c-0.10588-0.04236-0.0766-0.26737 0.0459-0.3524 0.14372-0.0998 0.3323-0.03623 0.35573 0.11993 0.0314 0.20912-0.16942 0.32536-0.40161 0.23247zm-1.0633-0.84135c0.0192-0.2248 0.11554-0.28242 0.20261-0.12112 0.0493 0.09123 0.0433 0.13183-0.0311 0.21339-0.1376 0.15074-0.1898 0.12264-0.17148-0.09227zm1.4389 0.0055c-0.0442-0.11414 0.068-0.22147 0.14826-0.14189 0.0678 0.06727 0.0258 0.22424-0.06 0.22424-0.031 0-0.0707-0.03706-0.0882-0.08236zm-2.9861-0.04592c0-0.04165 0.0212-0.08868 0.047-0.10452 0.0584-0.03576 0.17716 0.09815 0.12922 0.14567-0.0631 0.06252-0.17622 0.0361-0.17622-0.04115zm1.9174-0.58952c0.0223-0.115 0.17636-0.13127 0.17636-0.01863 0 0.04296-0.0439 0.08649-0.0976 0.09673-0.0708 0.01352-0.0924-0.0079-0.0788-0.07811zm-0.85725-0.04418c0-0.05413 0.0347-0.0799 0.0928-0.06882 0.11172 0.02133 0.10468 0.1146-0.0105 0.13836-0.048 0.0099-0.0823-0.01905-0.0823-0.06954z" fill="#22a4d5"/>
   <path d="m-163.21 10.497c-0.16392-0.12784-0.4777-0.73606-0.45053-0.87331 0.0146-0.07373 0.0619-0.0341 0.19816 0.16588 0.23644 0.34708 0.42268 0.54446 0.60069 0.63665 0.0802 0.04152 0.14576 0.09852 0.14576 0.12668 0 0.09339-0.354 0.05334-0.49408-0.0559zm1.1949-0.05917c0.0113-0.03364 0.10143-0.12232 0.20026-0.19706 0.18357-0.13883 0.17541-0.072-0.0171 0.13999-0.11459 0.12619-0.21715 0.15814-0.18317 0.05707zm-1.8139-0.15226c-0.16034-0.08743-0.40607-0.27027-0.54607-0.40631-0.2516-0.2445-0.6163-0.87292-0.54665-0.94197 0.0198-0.01962 0.23955-0.08795 0.48836-0.15183 0.3216-0.08258 0.45743-0.09855 0.46988-0.05525 0.01 0.0335 0.0547 0.26045 0.10013 0.50434 0.0479 0.25725 0.15596 0.58822 0.25726 0.78826 0.096 0.18965 0.18258 0.36255 0.1923 0.38423 0.0367 0.08187-0.13378 0.032-0.41521-0.12146zm2.1202 0.10629c0-0.0308 0.1642-0.22799 0.36488-0.4382 0.20069-0.21021 0.40468-0.45848 0.45331-0.55171 0.0837-0.16051 0.0824-0.19378-0.0241-0.62665-0.16088-0.65362-0.15796-0.64602-0.29708-0.77384l-0.12664-0.11636 0.35812-0.21669c0.42933-0.25978 0.383-0.28887-0.0766-0.04809-0.23091 0.12098-0.34537 0.15568-0.38472 0.11667-0.0393-0.03901 0.0375-0.10767 0.25825-0.23078 0.17284-0.09638 0.32581-0.21904 0.33993-0.27257 0.0404-0.15335 0.18592-0.17696 0.32013-0.05196 0.066 0.06146 0.15935 0.11175 0.20746 0.11175 0.21379 0 0.32893 0.62497 0.22474 1.2198-0.14541 0.83013-0.7022 1.5571-1.4189 1.8527-0.12429 0.05125-0.19877 0.06098-0.19877 0.02597zm0.17667-3.1286c-0.0414-0.10707 0.11357-0.23984 0.22883-0.19599 0.0424 0.01615 0.0699 0.07955 0.0611 0.1409-0.0205 0.14223-0.24006 0.18395-0.28993 0.05509z" fill="#2a6fc5"/>
   <path d="m-163.13 10.542c-0.0627-0.03007-0.17449-0.16493-0.24846-0.29968-0.28442-0.51808-0.29671-0.73424-0.0168-0.29494 0.083 0.13021 0.25515 0.311 0.38261 0.40175 0.30023 0.21376 0.21568 0.35268-0.11738 0.19288zm-0.68113-0.30073c-0.27616-0.15769-0.66257-0.49939-0.66257-0.58592 0-0.02751 0.0906-0.05002 0.20142-0.05002 0.11078 0 0.2295-0.02783 0.26381-0.06186 0.0479-0.04744 0.0826-0.01376 0.14916 0.14451 0.0477 0.1135 0.14408 0.31869 0.21413 0.45598 0.0701 0.13729 0.121 0.24939 0.11322 0.24912-8e-3 -2.73e-4 -0.1334-0.06859-0.27917-0.15182zm2.2528 0.06941c0-0.01818 0.16662-0.22021 0.37027-0.44896 0.40893-0.45932 0.46711-0.5941 0.37925-0.87853-0.0327-0.10582-0.0803-0.31654-0.1057-0.46828l-0.0463-0.27589h0.2069c0.1138 0 0.30136-0.04777 0.41681-0.10617l0.20992-0.10617v0.22457c0 0.32295-0.17729 0.89101-0.36017 1.1541-0.1962 0.2822-0.67733 0.73659-0.9018 0.85167-0.0931 0.04771-0.1692 0.07187-0.1692 0.05368z" fill="#2462bd"/>
  </g>
  <g transform="matrix(.086941 0 0 .086941 -165.21 5.4472)">
   <path d="m51.991 7.982c-14.628 0-21.169-7.566-21.232-7.64-0.38-0.456-1.156-0.456-1.536 0-0.064 0.076-6.537 7.64-21.232 7.64-0.552 0-1 0.448-1 1v19.085c0 10.433 4.69 20.348 12.546 26.521 3.167 2.489 6.588 4.29 10.169 5.352 0.093 0.028 0.189 0.042 0.285 0.042s0.191-0.014 0.285-0.042c3.581-1.063 7.002-2.863 10.169-5.352 7.856-6.174 12.546-16.088 12.546-26.521v-19.085c0-0.552-0.447-1-1-1zm-1 20.085c0 9.824-4.404 19.151-11.782 24.949-2.883 2.266-5.983 3.92-9.218 4.921-3.235-1-6.335-2.655-9.218-4.921-7.378-5.797-11.782-15.125-11.782-24.949v-18.096c12.242-0.272 18.865-5.497 21-7.545 2.135 2.049 8.758 7.273 21 7.545z"/>
   <path d="m29.429 7.986c-3.015 2.049-8.163 4.689-15.564 5.633-0.5 0.064-0.874 0.489-0.874 0.992v13.457c0 8.607 3.833 16.758 10.254 21.804 2.022 1.589 4.169 2.835 6.381 3.703 0.118 0.046 0.242 0.069 0.365 0.069 0.198 0 0.395-0.059 0.563-0.174 0.273-0.187 0.437-0.496 0.437-0.826v-43.831c0-0.371-0.205-0.71-0.532-0.884-0.326-0.172-0.723-0.15-1.03 0.057z"/>
  </g>
 </g>
</svg>
