<?xml version="1.0" encoding="UTF-8" standalone="no"?>
<svg
   id="ic_empty_transactions"
   width="100"
   height="100"
   viewBox="0 0 100 100"
   version="1.1"
   sodipodi:docname="img-empty-transactions.svg"
   inkscape:version="1.1.1 (3bf5ae0d25, 2021-09-20)"
   xmlns:inkscape="http://www.inkscape.org/namespaces/inkscape"
   xmlns:sodipodi="http://sodipodi.sourceforge.net/DTD/sodipodi-0.dtd"
   xmlns="http://www.w3.org/2000/svg"
   xmlns:svg="http://www.w3.org/2000/svg">
  <sodipodi:namedview
     id="namedview935"
     pagecolor="#ffffff"
     bordercolor="#666666"
     borderopacity="1.0"
     inkscape:pageshadow="2"
     inkscape:pageopacity="0.0"
     inkscape:pagecheckerboard="0"
     showgrid="false"
     inkscape:zoom="8.72"
     inkscape:cx="50.057339"
     inkscape:cy="50.057339"
     inkscape:window-width="1842"
     inkscape:window-height="1057"
     inkscape:window-x="1990"
     inkscape:window-y="413"
     inkscape:window-maximized="1"
     inkscape:current-layer="ic_empty_transactions" />
  <defs
     id="defs917">
    <style
       type="text/css"
       id="style915">
            .cls-1{fill:#d6d6d6}.cls-2{fill:#666}.cls-3{fill:none}
        </style>
  </defs>
  <g
     id="Group_9015"
     data-name="Group 9015">
    <path
       id="Path_18970"
       d="M50 26a24 24 0 1 0 24 24 24 24 0 0 0-24-24zm0 42a18 18 0 1 1 18-18 18 18 0 0 1-18 18z"
       class="cls-1"
       data-name="Path 18970" />
    <g
       id="Group_9014"
       data-name="Group 9014">
      <g
         id="Group_9012"
         data-name="Group 9012">
        <g
           id="Group_9011"
           data-name="Group 9011" />
      </g>
      <g
         id="Group_9013"
         data-name="Group 9013">
        <path
           id="Path_18972"
           d="M50 31a19 19 0 1 0 19 19 19.021 19.021 0 0 0-19-19zm0 36a17 17 0 1 1 17-17 17.019 17.019 0 0 1-17 17z"
           class="cls-2"
           data-name="Path 18972" />
        <path
           id="Rectangle_4664"
           d="M0 0h2v4H0z"
           class="cls-2"
           data-name="Rectangle 4664"
           transform="translate(83 56)" />
        <path
           id="Rectangle_4665"
           d="M0 0h2v8H0z"
           class="cls-2"
           data-name="Rectangle 4665"
           transform="translate(83 44)" />
        <path
           id="Rectangle_4666"
           d="M0 0h2v8H0z"
           class="cls-2"
           data-name="Rectangle 4666"
           transform="translate(15 48)" />
        <path
           id="Rectangle_4667"
           d="M0 0h2v4H0z"
           class="cls-2"
           data-name="Rectangle 4667"
           transform="translate(15 40)" />
        <path
           id="Path_18973"
           d="M95.162 71H85v-7h-2v9h7.838L76 90.456 61.162 73H68v-2h-4.461a24.989 24.989 0 0 0-22.4-44.374L24 6.456 4.838 29H15v7h2v-9H9.162L24 9.544 38.838 27H32v2h4.461a24.989 24.989 0 0 0 22.4 44.374L76 93.544zM27 50a23 23 0 1 1 23 23 23.026 23.026 0 0 1-23-23z"
           class="cls-2"
           data-name="Path 18973" />
      </g>
    </g>
  </g>
  <path
     id="Rectangle_4668"
     d="M0 0h100v100H0z"
     class="cls-3"
     data-name="Rectangle 4668" />
  <path
     style="fill:#9ed2ec;stroke-width:0.199475"
     d="m 47.791996,61.694816 c -1.137562,-0.22126 -1.31006,-0.39955 -1.071345,-1.10721 l 0.19011,-0.563569 2.308762,0.07177 c 1.749506,0.05439 2.594495,-0.0098 3.488542,-0.26589 4.045266,-1.157775 6.645128,-4.07053 7.582677,-8.495316 0.102803,-0.485163 0.204851,-0.546191 0.913285,-0.546191 0.939969,0 0.975534,0.152391 0.479963,2.056793 -0.822237,3.159593 -3.411969,6.346824 -6.293556,7.745613 -2.404838,1.16736 -5.191182,1.57218 -7.598476,1.10399 z m -4.530482,-1.845144 c -2.260044,-1.508924 -4.298381,-4.374249 -4.982854,-7.004459 -0.518286,-1.991716 -0.360567,-2.364166 0.873298,-2.063936 0.40732,0.0991 0.545046,0.335245 0.81857,1.403796 0.683868,2.671192 2.182866,4.847349 4.297625,6.23898 1.12131,0.737888 1.270488,1.022381 0.898054,1.712345 -0.295937,0.548238 -0.758362,0.478628 -1.904693,-0.286715 z m 4.374576,-0.235087 c -2.40257,-0.522206 -4.685064,-2.119986 -6.057449,-4.240313 -2.403855,-3.713884 -1.84902,-8.756545 1.335421,-12.136607 0.718639,-0.762814 1.381757,-1.386935 1.4736,-1.386935 0.09184,0 0.599131,-0.252548 1.127357,-0.561233 2.399471,-1.402152 6.317103,-1.434902 9.005745,-0.07529 6.182287,3.126346 7.464341,10.988213 2.581304,15.829284 -1.651615,1.637403 -3.209121,2.376028 -5.618192,2.66433 -2.14371,0.256555 -2.250331,0.253947 -3.847786,-0.09324 z m 5.904189,-2.81892 c 2.307969,-2.182677 2.524574,-2.547092 2.043477,-3.438304 -0.294047,-0.544614 -0.477921,-0.481655 -0.908485,0.310979 -0.207496,0.382337 -0.488693,0.695157 -0.624453,0.695157 -0.135685,0 -0.453846,0.221292 -0.70681,0.491789 -0.666973,0.713129 -1.536075,0.832377 -2.213896,0.303798 -0.536541,-0.41842 -0.547615,-0.470619 -0.541379,-2.547869 l 0.0076,-2.1207 0.694828,-0.685592 c 0.382148,-0.377083 0.694791,-0.756929 0.694791,-0.844115 0,-0.286111 -0.688668,-0.164599 -1.357115,0.239433 -1.442608,0.872008 -1.75287,0.345826 -1.57527,-2.671703 0.07106,-1.207317 0.186331,-2.664348 0.25663,-3.23785 0.119811,-0.980802 0.100914,-1.04273 -0.314456,-1.04273 -1.18817,0 -1.369777,0.550439 -1.450205,4.394778 -0.06765,3.230393 -0.474104,3.500364 -2.183962,1.450296 -0.598677,-0.717793 -1.293241,-1.528154 -1.543522,-1.800798 -0.568025,-0.618841 -1.319092,-0.572099 -1.413467,0.08795 -0.04876,0.340686 0.221102,0.730704 1.053921,1.524174 1.036876,0.987707 2.10822,2.749565 2.116044,3.479898 0.0016,0.163842 0.123969,0.527319 0.27137,0.8077 0.14778,0.280365 0.332977,0.77195 0.411666,1.092381 0.07861,0.320428 0.35452,0.902653 0.612359,1.293815 0.258142,0.391162 0.788296,1.339657 1.178457,2.107763 0.595276,1.171946 0.848164,1.463257 1.572208,1.811242 0.47452,0.228094 1.043074,0.418749 1.263458,0.423715 0.243402,0.0053 1.287043,-0.829213 2.657424,-2.125218 z m -1.287874,-2.328707 c 0.521046,-0.51657 -0.03024,-2.884077 -0.672982,-2.884077 -0.284977,0 -0.244536,2.652721 0.0446,2.939508 0.298205,0.295597 0.271748,0.297902 0.628271,-0.05545 z m 1.69561,-1.136262 c 0.393978,-0.390583 0.274015,-0.754736 -0.248693,-0.754736 -0.601021,0 -0.828888,0.317367 -0.505361,0.703852 0.294047,0.351459 0.440844,0.361361 0.753978,0.05087 z m 1.169461,-1.770477 c 0.16063,-0.132283 0.265323,-0.427075 0.232441,-0.655113 -0.04838,-0.334904 -0.329197,-0.48054 -1.46211,-0.757652 -0.771288,-0.188674 -1.515062,-0.303193 -1.652788,-0.254513 -0.656579,0.232139 3.41e-4,1.582424 0.95161,1.956 0.428296,0.168189 1.585776,-0.0049 1.930734,-0.288718 z m -1.371439,-2.48719 c -0.210898,-0.209121 -0.458495,-0.272352 -0.694035,-0.177297 -0.346205,0.139767 -0.344315,0.156661 0.03402,0.31113 0.220346,0.08984 0.532686,0.169626 0.694034,0.177298 0.24189,0.01134 0.235843,-0.04286 -0.03402,-0.311131 z M 38.036468,48.710497 c -0.0669,-0.173027 0.03024,-0.914876 0.216189,-1.648585 1.32805,-5.241596 6.357392,-9.176579 11.728668,-9.176579 5.371238,0 10.40058,3.934983 11.72863,9.176579 0.399987,1.578732 0.311055,1.938985 -0.478942,1.938985 -0.711912,0 -0.938419,-0.260825 -1.121197,-1.291 -0.266078,-1.499913 -1.500623,-3.697961 -2.797682,-4.981232 -4.001952,-3.959365 -10.200415,-4.029184 -14.335937,-0.161499 -1.534526,1.435173 -2.421921,2.922319 -2.957858,4.956983 -0.361701,1.373181 -0.365102,1.377615 -1.111484,1.439164 -0.539149,0.04445 -0.78274,-0.02646 -0.870425,-0.25285 z"
     id="path1611" />
  <path
     style="fill:#94b6d6;stroke-width:0.199475"
     d="m 47.917703,61.520436 c -0.983962,-0.18886 -1.242898,-0.44141 -0.970281,-0.9464 0.191245,-0.354371 0.380788,-0.378825 2.285141,-0.294843 2.449549,0.108018 3.733719,-0.124952 5.544378,-1.005842 2.620913,-1.2751 5.120579,-4.460222 5.539275,-7.058283 0.126615,-0.785484 0.511295,-1.43113 0.84824,-1.42359 0.07483,0.0017 0.262677,0.08262 0.417751,0.179906 0.430299,0.270085 -0.08315,2.353616 -1.05498,4.280166 -2.28068,4.521518 -7.693379,7.212486 -12.609524,6.268896 z m -4.703811,-1.926351 c -2.200366,-1.48015 -4.132309,-4.265413 -4.744441,-6.839992 -0.414312,-1.742559 -0.409247,-1.767058 0.366992,-1.767058 0.664592,0 0.678765,0.01852 0.909392,1.180637 0.486576,2.451975 2.264013,5.022598 4.551798,6.583106 0.899641,0.613659 0.962419,0.718307 0.753903,1.257014 -0.185197,0.478404 -0.67578,0.367975 -1.837758,-0.413707 z m 4.263231,-0.108397 c -1.471408,-0.4852 -3.18943,-1.416809 -4.044775,-2.19332 -2.108787,-1.914445 -3.221555,-4.530361 -2.990929,-7.031161 0.06879,-0.747791 0.123969,-1.600082 0.122457,-1.893982 -0.0038,-0.695127 1.325594,-1.795415 1.61726,-1.338512 0.270236,0.423447 0.237354,0.513112 -0.363591,0.992508 l -0.550904,0.439461 0.744114,-0.1135 c 0.697058,-0.106318 0.792453,-0.05469 1.508636,0.816303 1.112202,1.352572 1.810016,2.442315 1.963843,3.066776 0.07446,0.301456 0.212787,0.595688 0.307653,0.653885 0.09487,0.05821 0.272126,0.481896 0.393978,0.941547 0.121701,0.459651 0.468624,1.14855 0.770986,1.530883 0.302362,0.382333 0.809197,1.171075 1.126375,1.752752 0.392466,0.719786 0.835842,1.204869 1.388069,1.518646 1.56034,0.886563 1.496164,0.906841 3.744038,-1.182838 2.099112,-1.951341 2.97736,-3.009132 2.97736,-3.585964 0,-0.179716 -0.17537,-0.547804 -0.389707,-0.817937 -0.308409,-0.388895 -0.366236,-0.686257 -0.277795,-1.428242 0.132662,-1.10959 -0.03968,-1.304187 -1.33595,-1.509683 -0.495836,-0.07862 -1.181669,-0.188334 -1.524056,-0.243856 -0.787503,-0.12771 -1.003578,0.314533 -0.564775,1.155818 0.355654,0.681985 1.341846,1.163463 2.382917,1.163463 0.389177,0 0.707603,0.09403 0.707603,0.208932 0,0.513993 -0.937928,1.797059 -1.400051,1.915214 -0.274015,0.07011 -0.663874,0.335887 -0.865965,0.590589 -0.22337,0.281348 -0.578003,0.461927 -0.903836,0.460079 -1.144592,-0.0064 -1.417059,-0.599796 -1.342375,-2.922992 0.05329,-1.657965 0.109984,-1.88931 0.607521,-2.480129 0.771704,-0.916422 0.917669,-0.965329 1.889953,-0.63323 0.946998,0.323452 1.213228,0.241361 0.885883,-0.273184 -0.326929,-0.513831 -2.911559,-0.528189 -3.563489,-0.01965 -0.495383,0.386325 -0.905084,0.485088 -0.933166,0.224958 -0.0076,-0.08194 -0.0038,-0.72991 0.0076,-1.439959 0.04044,-2.2331 0.04347,-2.665398 0.02268,-3.277156 -0.01134,-0.327723 0.0036,-1.34787 0.03402,-2.267014 0.06501,-2.024651 0.43646,-2.383506 0.624151,-0.603118 0.07673,0.728701 0.280063,1.406733 0.507629,1.693531 l 0.379464,0.478291 0.0892,-0.601833 c 0.04913,-0.331011 -0.02646,-0.754836 -0.17159,-0.941843 -0.325796,-0.425182 -0.345827,-0.967317 -0.04233,-1.153179 0.303496,-0.185915 2.17319,-0.329915 2.17319,-0.167357 0,0.06928 -0.267968,0.374286 -0.595804,0.677733 -0.578911,0.536153 -0.59229,0.59037 -0.472857,1.916878 0.06765,0.750818 0.151937,1.399144 0.187843,1.440722 0.03402,0.04158 0.631672,-0.275036 1.324308,-0.703627 1.144781,-0.708355 1.265046,-0.847306 1.32223,-1.527677 0.04838,-0.576397 0.140599,-0.733981 0.400668,-0.68552 0.185575,0.03477 0.426784,0.263509 0.535521,0.508657 0.108851,0.24514 0.295559,0.445723 0.414728,0.445723 0.119433,0 0.591231,0.317631 1.048743,0.705883 1.098746,0.932417 2.203087,3.15134 2.493203,5.009651 0.603326,3.864185 -1.70056,8.205595 -5.282192,9.953666 -1.795616,0.876377 -5.536517,1.285016 -7.086047,0.774051 z m 4.893052,-5.004711 c 0.508687,-0.607639 -0.353008,-3.385417 -0.939023,-3.026464 -0.198803,0.121852 -0.171591,2.747723 0.03024,3.074207 0.196157,0.314721 0.622488,0.29227 0.907124,-0.04774 z m 1.712731,-1.232905 c 0.35074,-0.34783 0.315213,-0.783552 -0.06123,-0.751543 -0.128504,0.01096 -0.414048,0.03326 -0.634394,0.04966 -0.244157,0.01814 -0.400706,0.17212 -0.400706,0.393918 0,0.690983 0.553399,0.846412 1.096517,0.307993 z m -2.935937,-8.215581 0.06387,-0.886439 -0.414387,0.522248 c -0.52184,0.657713 -0.558274,1.409556 -0.06387,1.31656 0.259275,-0.04875 0.366992,-0.296881 0.414349,-0.952369 z m -4.853178,3.735973 c -0.17537,-0.248504 -0.31937,-0.544785 -0.31937,-0.658432 0,-0.11365 -0.202961,-0.294879 -0.450784,-0.402693 -0.247937,-0.10783 -0.669241,-0.532075 -0.936303,-0.942766 -0.32126,-0.493799 -0.846992,-0.91621 -1.55263,-1.247165 -0.586885,-0.275263 -1.067036,-0.572318 -1.067036,-0.660151 0,-0.407263 0.337134,-0.361776 1.451377,0.195855 0.805077,0.402921 1.361574,0.562477 1.682872,0.482529 1.065713,-0.265172 2.091326,1.059099 2.018154,2.605848 -0.04989,1.053233 -0.359433,1.288082 -0.826469,0.626963 z m -8.02492,-0.153147 c -0.210519,-0.337965 0.44092,-2.57862 1.187452,-4.083269 1.328051,-2.676756 3.968844,-4.913167 6.929008,-5.868012 2.112567,-0.68143 5.079458,-0.68143 7.192025,0 1.81629,0.585865 4.083931,2.05304 5.324259,3.444771 1.070097,1.200741 2.366853,3.748181 2.682708,5.270109 0.252095,1.214106 0.180284,1.423363 -0.486652,1.423363 -0.383584,0 -0.521385,-0.14914 -0.688252,-0.744809 -0.114897,-0.409644 -0.209007,-0.846179 -0.209763,-0.97008 -3.78e-4,-0.123893 -0.358677,-0.933615 -0.795818,-1.799372 -2.381026,-4.71625 -7.953449,-6.937165 -12.920768,-5.149622 -3.287585,1.183072 -5.361411,3.392852 -6.543496,6.972499 -0.458533,1.388519 -0.590589,1.599878 -1.03287,1.653113 -0.278929,0.03364 -0.565908,-0.03326 -0.637833,-0.148691 z m 7.83806,-3.339409 c -0.423042,-0.287811 -1.14308,-0.572897 -1.600063,-0.633562 -0.90565,-0.120227 -1.142211,-0.510989 -0.773896,-1.278441 0.111118,-0.23142 0.252473,-0.57719 0.314079,-0.768359 0.168945,-0.524126 0.525279,-0.41695 0.525279,0.157985 0,0.593881 0.562166,1.173766 1.863798,1.922581 0.517531,0.297713 0.940951,0.677567 0.940951,0.844116 0,0.431497 -0.385625,0.357317 -1.270034,-0.244309 z m 1.317619,-3.612442 c -0.356787,-0.295257 -0.648605,-0.593356 -0.648605,-0.662468 0,-0.06913 0.473311,-0.107301 1.051767,-0.08485 0.963364,0.03742 1.051767,0.08065 1.051767,0.514606 0,0.760558 -0.68485,0.870092 -1.454929,0.232705 z"
     id="path1609" />
  <path
     style="fill:#6dc6e9;stroke-width:0.199475"
     d="m 47.917703,61.520436 c -0.983962,-0.18886 -1.242898,-0.44141 -0.970281,-0.9464 0.191245,-0.354371 0.380788,-0.378825 2.285141,-0.294843 2.449549,0.108018 3.733719,-0.124952 5.544378,-1.005842 2.620913,-1.2751 5.120579,-4.460222 5.539275,-7.058283 0.126615,-0.785484 0.511295,-1.43113 0.84824,-1.42359 0.07483,0.0017 0.262677,0.08262 0.417751,0.179906 0.430299,0.270085 -0.08315,2.353616 -1.05498,4.280166 -2.28068,4.521518 -7.693379,7.212486 -12.609524,6.268896 z m -4.703811,-1.926351 c -2.200366,-1.48015 -4.132309,-4.265413 -4.744441,-6.839992 -0.414312,-1.742559 -0.409247,-1.767058 0.366992,-1.767058 0.664592,0 0.678765,0.01852 0.909392,1.180637 0.486576,2.451975 2.264013,5.022598 4.551798,6.583106 0.899641,0.613659 0.962419,0.718307 0.753903,1.257014 -0.185197,0.478404 -0.67578,0.367975 -1.837758,-0.413707 z m 4.764094,-0.265209 c -0.165165,-0.105903 -0.551433,-0.19389 -0.858104,-0.195591 -1.381001,-0.0076 -4.002935,-1.945056 -5.267263,-3.89231 -1.101997,-1.697238 -1.37639,-3.113815 -1.294034,-6.680722 0.01512,-0.602959 0.147779,-0.837377 0.729146,-1.27703 0.587792,-0.444473 0.743811,-0.48892 0.893405,-0.254552 0.276661,0.433452 0.235086,0.535004 -0.413632,1.010514 -0.330708,0.242305 -0.60102,0.524039 -0.60102,0.626109 0,0.102085 0.135307,0.07431 0.300472,-0.06168 0.165166,-0.135987 0.300473,-0.188485 0.300473,-0.116636 0,0.07185 0.170834,0.03991 0.379842,-0.07094 0.321638,-0.170608 0.521499,-0.03704 1.302199,0.868808 0.507288,0.588687 0.922356,1.132561 0.922356,1.208609 0,0.07604 0.225259,0.403813 0.500825,0.728368 0.417297,0.49166 0.500863,0.797137 0.500863,1.831147 0,1.156644 0.05783,1.315177 0.851414,2.331144 0.468283,0.599554 1.114507,1.504486 1.435994,2.010959 0.366236,0.576971 0.908674,1.091316 1.452472,1.377313 0.477317,0.251036 0.867893,0.523642 0.867893,0.60576 0,0.217663 -1.650104,0.177033 -2.003376,-0.04932 z m 4.006715,-0.153789 c 0,-0.265626 1.846564,-2.030726 2.124586,-2.030866 0.354898,-1.7e-4 2.252145,-2.093685 2.389606,-2.636659 0.06879,-0.272277 -0.0076,-0.885302 -0.168189,-1.362281 -0.161385,-0.476984 -0.358299,-1.256545 -0.437744,-1.732365 -0.07937,-0.475816 -0.314835,-1.012078 -0.523692,-1.191693 -0.777562,-0.669146 -1.090129,-0.973576 -1.446009,-1.408444 -0.269103,-0.328857 -0.480151,-0.409278 -0.801336,-0.305386 -0.24,0.07756 -0.803754,0.128428 -1.253178,0.11297 -0.558349,-0.01928 -0.986003,0.103597 -1.350349,0.387745 -0.293292,0.2287 -0.619351,0.363024 -0.724649,0.298507 -0.181417,-0.111193 -0.257386,-1.076114 -0.188221,-2.391197 0.03024,-0.59221 0.02646,-1.243317 -0.01134,-2.383385 -0.01134,-0.327723 0.0036,-1.347874 0.03402,-2.267014 0.06501,-2.024655 0.436459,-2.383506 0.624151,-0.603122 0.07672,0.728704 0.280063,1.406737 0.50759,1.693535 l 0.379503,0.478288 0.0892,-0.60183 c 0.04913,-0.331011 -0.02646,-0.754836 -0.171591,-0.941847 -0.325795,-0.425178 -0.345827,-0.967317 -0.04233,-1.153175 0.303496,-0.185915 2.173191,-0.329915 2.173191,-0.167358 0,0.06928 -0.267969,0.374287 -0.595767,0.677734 -0.578948,0.536149 -0.592328,0.59037 -0.472895,1.916878 0.06765,0.750818 0.151937,1.399143 0.187843,1.440722 0.03402,0.04158 0.63171,-0.275074 1.324309,-0.703631 1.144781,-0.708351 1.265045,-0.847302 1.32223,-1.527674 0.04838,-0.576396 0.140598,-0.733984 0.400705,-0.685519 0.185575,0.03477 0.427049,0.264189 0.536164,0.510146 0.109228,0.245971 0.605745,0.722804 1.103622,1.059632 1.577121,1.066957 2.804901,3.792332 2.804901,6.226193 0,2.801299 -0.924699,5.008844 -2.92611,6.985503 -1.206237,1.191301 -3.029254,2.257922 -3.801903,2.224382 -0.211275,-0.0091 -0.541757,0.04951 -0.734551,0.130394 -0.197291,0.08285 -0.35074,0.06134 -0.35074,-0.04921 z m -0.837732,-14.142607 0.06387,-0.886439 -0.414387,0.522247 c -0.52184,0.657714 -0.558274,1.409556 -0.06387,1.316561 0.259275,-0.04876 0.366992,-0.296882 0.414349,-0.952369 z m -4.729134,3.931166 c -0.314835,-0.312302 -0.325039,-1.029547 -0.01134,-0.837562 0.143244,0.0878 0.176881,0.05446 0.08844,-0.08757 -0.07861,-0.126123 -0.347338,-0.229304 -0.597052,-0.229304 -0.466658,0 -1.103395,-0.562938 -1.499603,-1.325767 -0.12359,-0.237582 -0.72068,-0.664759 -1.327256,-0.94924 -0.606539,-0.284485 -1.102829,-0.589108 -1.102829,-0.67694 0,-0.407263 0.337134,-0.361776 1.451377,0.195855 0.805115,0.40292 1.361574,0.562477 1.682872,0.482529 1.065713,-0.265172 2.091364,1.059099 2.018192,2.605848 -0.04535,0.959497 -0.283086,1.23781 -0.702463,0.822157 z m -8.148964,-0.348321 c -0.210519,-0.337966 0.44092,-2.578621 1.187452,-4.08327 1.328051,-2.676756 3.968844,-4.913166 6.929008,-5.868011 2.112567,-0.68143 5.079458,-0.68143 7.192025,0 1.81629,0.585865 4.083931,2.053039 5.324259,3.444771 1.070097,1.200741 2.366853,3.74818 2.682708,5.270109 0.252095,1.214105 0.180284,1.423363 -0.486652,1.423363 -0.383584,0 -0.521385,-0.149141 -0.688252,-0.744809 -0.114897,-0.409644 -0.209007,-0.84618 -0.209763,-0.97008 -3.78e-4,-0.123893 -0.358677,-0.933615 -0.795818,-1.799373 -2.381026,-4.716249 -7.953449,-6.937164 -12.920768,-5.149621 -3.287585,1.183071 -5.361411,3.392851 -6.543496,6.972499 -0.458533,1.388519 -0.590589,1.599877 -1.03287,1.653112 -0.278929,0.03364 -0.565908,-0.03326 -0.637833,-0.14869 z m 7.83806,-3.339409 c -0.423042,-0.287812 -1.14308,-0.572897 -1.600063,-0.633563 -0.90565,-0.120226 -1.142211,-0.510988 -0.773896,-1.27844 0.111118,-0.23142 0.252473,-0.577191 0.314079,-0.768359 0.168945,-0.524126 0.525279,-0.41695 0.525279,0.157984 0,0.593881 0.562166,1.173766 1.863798,1.922582 0.517531,0.297713 0.940951,0.677567 0.940951,0.844116 0,0.431497 -0.385625,0.357316 -1.270034,-0.244309 z m 1.317619,-3.612443 c -0.356787,-0.295256 -0.648605,-0.593355 -0.648605,-0.662468 0,-0.06913 0.473311,-0.107301 1.051767,-0.08485 0.963364,0.03742 1.051767,0.08066 1.051767,0.514605 0,0.760558 -0.68485,0.870093 -1.454929,0.232706 z"
     id="path1607" />
  <path
     style="fill:#5ca6dc;stroke-width:0.199475"
     d="m 47.677476,61.339236 c -0.42342,-0.0898 -0.60102,-0.24419 -0.60102,-0.52269 0,-0.374172 0.113007,-0.391452 2.112113,-0.3236 1.500435,0.0509 2.480277,-0.0219 3.383131,-0.251152 3.8688,-0.98262 7.016768,-4.167629 7.890973,-7.983855 0.212409,-0.92719 0.348095,-1.171608 0.650495,-1.171608 0.558954,0 0.573581,0.516725 0.06274,2.222365 -0.560844,1.873024 -1.932586,4.009433 -3.398476,5.292968 -1.247168,1.092 -3.804132,2.379822 -5.351887,2.695462 -1.1297,0.2304 -3.750387,0.25365 -4.748145,0.0421 z m -4.431987,-1.897485 c -2.109317,-1.40829 -3.909695,-3.950072 -4.588158,-6.47757 -0.431924,-1.609141 -0.394431,-1.977146 0.201449,-1.977146 0.378557,0 0.526564,0.130167 0.62109,0.546195 0.379956,1.672614 0.586431,2.25785 1.220711,3.459903 0.665386,1.261005 2.31292,3.034421 3.761689,4.049062 0.404636,0.283389 0.543345,0.511453 0.453014,0.744805 -0.188976,0.488772 -0.524447,0.419452 -1.669833,-0.34526 z m 4.732497,-0.112856 c -0.165165,-0.105903 -0.551433,-0.19389 -0.858104,-0.195591 -0.813997,-0.0045 -2.453631,-0.893847 -3.606387,-1.956254 -1.920038,-1.769549 -2.947994,-3.936959 -2.947994,-6.215735 v -1.14531 l 0.618142,0.213619 c 0.349984,0.120945 1.086198,0.15908 1.696819,0.08795 l 1.078715,-0.125708 0.707187,1.041113 c 0.599773,0.882916 0.707225,1.20977 0.707225,2.151084 0,1.002447 0.08239,1.215578 0.851415,2.200073 0.468283,0.599554 1.114507,1.504487 1.435993,2.010959 0.366237,0.576972 0.908674,1.091316 1.452473,1.377313 0.477316,0.251036 0.867893,0.523642 0.867893,0.60576 0,0.217663 -1.650104,0.177033 -2.003377,-0.04932 z m 4.006715,-0.153789 c 0,-0.265626 1.846564,-2.030727 2.124586,-2.030866 0.354898,-1.71e-4 2.252145,-2.093685 2.389606,-2.636659 0.06879,-0.272278 -0.0076,-0.885302 -0.168189,-1.362281 -0.161385,-0.476984 -0.358299,-1.256545 -0.437744,-1.732365 -0.07937,-0.475816 -0.314835,-1.012078 -0.523692,-1.191693 -0.768378,-0.66124 -1.088239,-0.971312 -1.410935,-1.367849 -0.291402,-0.357996 -0.492019,-0.394 -1.702866,-0.305461 -0.754923,0.05518 -1.572284,0.22439 -1.816328,0.375987 -0.692523,0.430194 -0.759458,0.351988 -0.741354,-0.866513 0.02268,-1.645364 0.03893,-1.696275 0.455433,-1.588309 0.535445,0.138822 1.025386,-0.195212 1.340938,-0.914207 0.150804,-0.344088 0.278174,-0.513857 0.282331,-0.37731 0.01512,0.447027 0.687194,0.258255 1.981493,-0.555776 0.824617,-0.518623 1.349443,-1.002508 1.491213,-1.374905 l 0.218834,-0.574628 0.462085,0.620916 c 0.7279,0.978126 0.531213,1.458187 -0.563565,1.375487 -0.32126,-0.02419 -1.106872,0.285657 -1.959005,0.772732 -1.143912,0.653843 -1.422803,0.907204 -1.422803,1.292613 0,0.855678 0.626154,0.561464 1.621644,-0.761975 0.313701,-0.417071 0.579213,-0.546195 1.123162,-0.546195 0.427919,0 1.14104,-0.243174 1.786092,-0.609048 0.590551,-0.334979 1.156422,-0.55838 1.257486,-0.496448 0.329197,0.201637 1.242558,1.892821 1.638237,3.033044 0.725896,2.091647 0.40902,5.098719 -0.768492,7.293198 -1.065486,1.985757 -4.223508,4.505928 -5.572951,4.447349 -0.211276,-0.0091 -0.541757,0.04951 -0.734589,0.130394 -0.197291,0.08285 -0.35074,0.06134 -0.35074,-0.04921 z M 51.040008,47.629605 c 0.416769,-0.699481 0.425575,-0.813472 0.06274,-0.813472 -0.218079,0 -0.720756,0.921238 -0.720756,1.320639 0,0.260712 0.370771,-0.02495 0.657978,-0.507167 z m -4.464415,1.184406 c 0,-0.102803 0.09033,-0.242117 0.200315,-0.309657 0.110362,-0.0675 0.200314,0.01663 0.200314,0.186898 0,0.170305 -0.09033,0.309656 -0.200314,0.309656 -0.109985,0 -0.200315,-0.08409 -0.200315,-0.186897 z m -8.119597,-1.153784 c 0.468396,-3.162376 2.919382,-6.414335 6.072529,-8.057035 6.420057,-3.344636 14.394822,-0.132321 16.576025,6.676982 0.628007,1.960524 0.634243,2.323476 0.03968,2.323476 -0.39617,0 -0.503093,-0.179452 -0.809575,-1.358979 -0.46987,-1.808322 -1.571414,-3.60384 -3.049247,-4.970252 -2.165291,-2.002069 -4.261644,-2.807074 -7.309984,-2.807074 -3.565266,0 -6.587792,1.555011 -8.632101,4.440948 -0.837052,1.1817 -1.340296,2.359049 -1.900838,4.447087 -0.0378,0.136554 -0.305008,0.248277 -0.596523,0.248277 -0.518173,0 -0.52679,-0.02079 -0.39016,-0.943423 z m 6.428107,-0.689692 c -0.441071,-0.62428 -0.388347,-0.922288 0.188598,-1.065827 0.691805,-0.172158 1.072706,0.01398 1.313424,0.641567 0.153449,0.400566 0.14022,0.575566 -0.05291,0.697202 -0.473423,0.297789 -1.13348,0.173443 -1.448844,-0.272957 z m 4.789455,-2.396599 c -0.165921,-0.655593 0.219213,-1.5528 0.603591,-1.406506 0.492926,0.187503 0.605442,1.025273 0.197669,1.471915 -0.463181,0.507382 -0.660435,0.491285 -0.801336,-0.06542 z m -5.673147,-0.390342 c -0.337889,-0.334904 0.130016,-0.826427 0.498218,-0.523457 0.150803,0.123969 0.274016,0.294236 0.274016,0.378429 0,0.268838 -0.544177,0.371036 -0.772158,0.145021 z m 7.190249,-2.224856 c -0.295181,-0.352782 -0.109984,-0.703854 0.371906,-0.703854 0.50914,0 0.637946,0.196271 0.408113,0.621959 -0.240756,0.446245 -0.456038,0.468835 -0.779943,0.0819 z m -3.319861,-0.317821 c -0.07937,-0.127521 -0.03024,-0.302929 0.113386,-0.389854 0.331842,-0.203377 0.834671,-0.01474 0.736856,0.276585 -0.105826,0.314948 -0.677102,0.391072 -0.85028,0.113273 z"
     id="path1605" />
  <path
     style="fill:#22a4d5;stroke-width:0.199475"
     d="m 48.125993,61.323106 c -0.895748,-0.17224 -1.038463,-0.28589 -0.878363,-0.69954 0.08957,-0.231154 0.263433,-0.274996 0.675856,-0.170228 1.028636,0.261428 3.730544,0.144798 4.954204,-0.213846 1.855824,-0.543923 2.996334,-1.205008 4.491818,-2.603671 1.557316,-1.456449 2.66725,-3.31741 3.094223,-5.187949 0.219213,-0.961021 0.344693,-1.174364 0.72087,-1.228914 0.417033,-0.06043 0.444132,-0.0102 0.321637,0.595846 -0.61096,3.023999 -2.20199,5.605168 -4.548396,7.379033 -2.306306,1.743569 -6.091503,2.656139 -8.831887,2.129269 z m -4.562571,-1.7636 c -1.124258,-0.714671 -2.963603,-2.633515 -3.648,-3.805702 -0.534916,-0.916165 -1.208957,-2.773926 -1.423218,-3.922653 -0.107717,-0.576801 -0.07106,-0.645502 0.343559,-0.645502 0.401537,0 0.498481,0.153676 0.720453,1.142041 0.554873,2.470582 2.377285,5.11553 4.435956,6.438036 0.573052,0.368126 0.970999,0.763722 0.937965,0.932402 -0.096,0.490118 -0.431055,0.456128 -1.366677,-0.138633 z m 4.149846,-0.436788 c -0.61954,-0.483156 -1.80548,-2.781953 -1.70279,-3.300716 0.05518,-0.278665 0.233952,-0.128882 0.748951,0.626956 0.893631,1.311795 1.597531,2.057814 2.270324,2.406218 0.303118,0.156926 0.550904,0.372359 0.550904,0.478806 0,0.35297 -1.337953,0.2016 -1.867389,-0.211276 z m 4.51612,-0.223635 c 0.04271,-0.127143 0.383357,-0.462319 0.756888,-0.744809 0.693808,-0.524727 0.662967,-0.272126 -0.06463,0.529111 -0.433096,0.476931 -0.820724,0.597714 -0.692296,0.215698 z m -6.855799,-0.575452 c -1.523867,-0.830925 -2.912504,-2.242799 -3.637039,-3.697865 -0.632126,-1.269448 -0.622715,-1.652574 0.04082,-1.652574 0.630765,0 2.410923,-0.742333 2.710337,-1.130219 0.236598,-0.306406 0.305386,-0.316875 0.468435,-0.07083 0.10507,0.158702 0.145511,0.516219 0.08995,0.79446 -0.162141,0.81183 0.470098,3.376315 1.177663,4.776121 0.359055,0.710053 0.682621,1.358034 0.719358,1.439963 0.138708,0.30943 -0.505625,0.120944 -1.569298,-0.459062 z m 8.013506,0.401711 c 0,-0.11641 0.620598,-0.861683 1.379074,-1.656175 0.758513,-0.794491 1.529499,-1.73283 1.713298,-2.0852 0.316346,-0.606663 0.311433,-0.732381 -0.09109,-2.368451 -0.60805,-2.470359 -0.597014,-2.441646 -1.122822,-2.924753 l -0.478639,-0.439797 1.353524,-0.818979 c 1.622665,-0.981838 1.447559,-1.091799 -0.289512,-0.181757 -0.87273,0.457232 -1.305335,0.588416 -1.45406,0.440965 -0.148535,-0.147439 0.142111,-0.407206 0.977613,-0.873113 0.778129,-0.433904 1.230236,-0.824779 1.307641,-1.130509 0.146268,-0.577743 0.718866,-0.610832 1.21251,-0.07007 0.199559,0.218457 0.52577,0.397233 0.725178,0.397233 0.839358,0 1.282696,2.319004 0.881348,4.610301 -0.549581,3.137491 -2.653984,5.88519 -5.362847,7.002172 -0.469758,0.193701 -0.751257,0.230476 -0.751257,0.09816 z M 42.165451,51.577858 c -0.271748,-0.503308 -0.262299,-0.517311 0.469682,-0.699443 0.531855,-0.132321 0.562318,-0.106242 0.500447,0.429045 -0.08126,0.703528 -0.650646,0.862216 -0.970129,0.270387 z m -3.642482,-3.079204 c -0.06576,-0.06531 0.0076,-0.666958 0.167055,-1.337015 0.906557,-3.852525 4.037102,-7.121019 7.985915,-8.337759 1.930394,-0.594807 4.675691,-0.595619 6.611112,-0.002 3.558728,1.091581 6.609033,3.970878 7.692435,7.261217 0.578003,1.755364 0.617499,2.421207 0.143622,2.421207 -0.291024,0 -0.441487,-0.251376 -0.654463,-1.092381 -1.210167,-4.778427 -5.571515,-8.143235 -10.555049,-8.143235 -2.549367,0 -5.244359,1.09951 -7.178835,2.928836 -1.512227,1.430003 -2.347956,2.743702 -2.99622,4.709684 -0.473575,1.436274 -0.860637,1.943086 -1.215383,1.591404 z m 12.660397,-0.490847 c 0.242646,-0.449737 0.607483,-0.509998 0.961625,-0.158891 0.40388,0.400403 0.272882,0.556123 -0.46783,0.556123 -0.646148,0 -0.689423,-0.03477 -0.493795,-0.397232 z M 49.78101,47.329204 c 0,-0.33377 0.109984,-0.513089 0.314457,-0.513089 0.209008,0 0.292913,0.144869 0.250582,0.431331 -0.09449,0.635864 -0.56485,0.703967 -0.56485,0.08175 z M 45.123158,47.19745 c -0.470551,-0.27171 -0.456,-1.115853 0.02268,-1.26621 0.87738,-0.276094 1.618129,0.70834 0.916006,1.217329 -0.428711,0.310791 -0.479697,0.313437 -0.937852,0.04887 z m 8.714683,0.083 c -0.400176,-0.1601 -0.289511,-1.01052 0.173481,-1.331924 0.543193,-0.377197 1.255937,-0.136932 1.344491,0.453286 0.118677,0.79039 -0.640327,1.229707 -1.517896,0.878638 z m -4.018847,-3.179913 c 0.07257,-0.849649 0.436687,-1.067406 0.76577,-0.457784 0.186331,0.344807 0.163654,0.498244 -0.117543,0.806529 -0.520063,0.569707 -0.717354,0.46354 -0.648113,-0.348737 z m 5.4384,0.02079 c -0.167055,-0.431384 0.257008,-0.837067 0.560353,-0.536262 0.256252,0.254249 0.09751,0.847536 -0.226772,0.847536 -0.117165,0 -0.267212,-0.140069 -0.333354,-0.311282 z m -11.286161,-0.17356 c 0,-0.157417 0.08013,-0.335169 0.177638,-0.395044 0.220725,-0.135156 0.669581,0.370961 0.488391,0.55056 -0.238488,0.236296 -0.666029,0.136441 -0.666029,-0.155527 z m 7.246753,-2.228107 c 0.08428,-0.434653 0.666558,-0.496146 0.666558,-0.07041 0,0.162369 -0.165921,0.326891 -0.368882,0.365594 -0.267591,0.0511 -0.349228,-0.02986 -0.297827,-0.295219 z m -3.24,-0.16698 c 0,-0.204586 0.13115,-0.301984 0.35074,-0.260107 0.422249,0.08062 0.395641,0.433115 -0.03968,0.522943 -0.181417,0.03742 -0.311055,-0.072 -0.311055,-0.262828 z"
     id="path1603" />
  <path
     style="fill:#2a6fc5;stroke-width:0.199475"
     d="m 47.713268,59.122718 c -0.61954,-0.483156 -1.80548,-2.781953 -1.70279,-3.300716 0.05518,-0.278665 0.233952,-0.128882 0.748951,0.626956 0.893631,1.311795 1.597531,2.057814 2.270324,2.406218 0.303118,0.156926 0.550904,0.372359 0.550904,0.478806 0,0.35297 -1.337953,0.2016 -1.867389,-0.211276 z m 4.51612,-0.223635 c 0.04271,-0.127143 0.383357,-0.462319 0.756888,-0.744809 0.693808,-0.524727 0.662967,-0.272126 -0.06463,0.529111 -0.433096,0.476931 -0.820724,0.597714 -0.692296,0.215698 z m -6.855799,-0.575452 c -0.606009,-0.330444 -1.534752,-1.021504 -2.063886,-1.535669 -0.950929,-0.924087 -2.329323,-3.299244 -2.066079,-3.560204 0.07484,-0.07415 0.905386,-0.332409 1.84577,-0.573849 1.215496,-0.312114 1.728869,-0.372473 1.775925,-0.208819 0.03779,0.126614 0.20674,0.984377 0.378444,1.906169 0.181039,0.972269 0.589455,2.223198 0.972321,2.979233 0.362835,0.716784 0.690066,1.370275 0.726803,1.452204 0.138709,0.30943 -0.505625,0.120945 -1.569298,-0.459065 z m 8.013506,0.401711 c 0,-0.11641 0.620598,-0.861683 1.379074,-1.656175 0.758513,-0.794491 1.529499,-1.73283 1.713298,-2.0852 0.316346,-0.606663 0.311433,-0.732381 -0.09109,-2.368451 -0.60805,-2.470359 -0.597014,-2.441646 -1.122822,-2.924753 l -0.478639,-0.439797 1.353524,-0.818979 c 1.622665,-0.981838 1.447559,-1.091799 -0.289512,-0.181757 -0.87273,0.457232 -1.305335,0.588416 -1.45406,0.440965 -0.148535,-0.147439 0.141733,-0.406946 0.976063,-0.872239 0.653254,-0.364271 1.231408,-0.827876 1.284775,-1.030198 0.152693,-0.579575 0.70269,-0.668813 1.20994,-0.196384 0.249449,0.23229 0.602268,0.422359 0.784101,0.422359 0.808025,0 1.2432,2.362106 0.849411,4.610301 -0.549581,3.137491 -2.653984,5.88519 -5.362847,7.002172 -0.469758,0.193701 -0.751257,0.230476 -0.751257,0.09816 z m 0.667729,-11.82471 c -0.156472,-0.404677 0.429241,-0.906478 0.864869,-0.740749 0.160252,0.06104 0.264189,0.300661 0.23093,0.53255 -0.07748,0.537555 -0.907314,0.695237 -1.095799,0.208215 z"
     id="path1601" />
  <path
     style="fill:#2462bd;stroke-width:0.199475"
     d="m 48.048097,59.293957 c -0.236977,-0.113651 -0.65949,-0.623358 -0.939062,-1.132661 -1.074973,-1.958098 -1.121424,-2.775089 -0.0635,-1.11475 0.313701,0.492138 0.964347,1.175423 1.446085,1.518408 1.134728,0.807896 0.815169,1.332982 -0.443641,0.729003 z m -2.57435,-1.136606 c -1.043754,-0.595983 -2.504202,-1.887471 -2.504202,-2.214495 0,-0.103975 0.342425,-0.189052 0.761273,-0.189052 0.418696,0 0.867401,-0.105184 0.997077,-0.233801 0.181039,-0.179301 0.312189,-0.05201 0.563754,0.546194 0.180284,0.428984 0.544555,1.204514 0.80931,1.723398 0.264945,0.51888 0.457323,0.942584 0.427919,0.94156 -0.03024,-10e-4 -0.504189,-0.259238 -1.055131,-0.573823 z m 8.514331,0.262337 c 0,-0.06871 0.629745,-0.832294 1.399445,-1.696843 1.545563,-1.73602 1.765456,-2.245425 1.433386,-3.320421 -0.12359,-0.399933 -0.303496,-1.196378 -0.399496,-1.76988 L 56.246421,50.58981 h 0.781984 c 0.430111,0 1.138999,-0.180548 1.575345,-0.401265 l 0.793399,-0.401268 v 0.848783 c 0,1.22061 -0.670073,3.3676 -1.361273,4.361809 -0.741543,1.066601 -2.559987,2.783955 -3.408378,3.218918 -0.351874,0.180322 -0.639496,0.271635 -0.639496,0.202886 z"
     id="path1599" />
</svg>
