<svg id="ic_empty_Dark_transactions" version="1.1" viewBox="0 0 100 100" xmlns="http://www.w3.org/2000/svg">
 <defs>
  <style type="text/css">.cls-1{fill:#413d4a}.cls-2{fill:#a09ea5}.cls-3{fill:none}</style>
 </defs>
 <path class="cls-1" d="m50 26a24 24 0 1 0 24 24 24 24 0 0 0-24-24zm0 42a18 18 0 1 1 18-18 18 18 0 0 1-18 18z" data-name="Path 18988"/>
 <g data-name="Group 9035">
  <g data-name="Group 9033"></g>
  <g data-name="Group 9034">
   <path class="cls-2" d="m50 31a19 19 0 1 0 19 19 19.021 19.021 0 0 0-19-19zm0 36a17 17 0 1 1 17-17 17.019 17.019 0 0 1-17 17z" data-name="Path 18990"/>
   <path class="cls-2" transform="translate(83,56)" d="m0 0h2v4h-2z" data-name="Rectangle 4693"/>
   <path class="cls-2" transform="translate(83,44)" d="m0 0h2v8h-2z" data-name="Rectangle 4694"/>
   <path class="cls-2" transform="translate(15,48)" d="m0 0h2v8h-2z" data-name="Rectangle 4695"/>
   <path class="cls-2" transform="translate(15,40)" d="m0 0h2v4h-2z" data-name="Rectangle 4696"/>
   <path class="cls-2" d="m95.162 71h-10.162v-7h-2v9h7.838l-14.838 17.456-14.838-17.456h6.838v-2h-4.461a24.989 24.989 0 0 0-22.4-44.374l-17.139-20.17-19.162 22.544h10.162v7h2v-9h-7.838l14.838-17.456 14.838 17.456h-6.838v2h4.461a24.989 24.989 0 0 0 22.4 44.374l17.139 20.17zm-68.162-21a23 23 0 1 1 23 23 23.026 23.026 0 0 1-23-23z" data-name="Path 18991"/>
  </g>
 </g>
 <path class="cls-3" d="M0 0h100v100H0z" data-name="Rectangle 4697"/>
 <g stroke-width=".19948">
  <path d="m47.93 61.516c-1.1376-0.22125-1.3101-0.39955-1.0713-1.1072l0.19011-0.56357 2.3088 0.07177c1.7495 0.05439 2.5945-0.0098 3.4885-0.26589 4.0453-1.1578 6.6451-4.0705 7.5827-8.4953 0.1028-0.48516 0.20485-0.54619 0.91328-0.54619 0.93997 0 0.97553 0.15239 0.47996 2.0568-0.82224 3.1596-3.412 6.3468-6.2936 7.7456-2.4048 1.1674-5.1912 1.5722-7.5985 1.104zm-4.5305-1.8451c-2.26-1.5089-4.2984-4.3742-4.9829-7.0045-0.51829-1.9917-0.36057-2.3642 0.8733-2.0639 0.40732 0.0991 0.54505 0.33524 0.81857 1.4038 0.68387 2.6712 2.1829 4.8473 4.2976 6.239 1.1213 0.73789 1.2705 1.0224 0.89805 1.7123-0.29594 0.54824-0.75836 0.47863-1.9047-0.28672zm4.3746-0.23509c-2.4026-0.52221-4.6851-2.12-6.0574-4.2403-2.4039-3.7139-1.849-8.7565 1.3354-12.137 0.71864-0.76281 1.3818-1.3869 1.4736-1.3869 0.09184 0 0.59913-0.25255 1.1274-0.56123 2.3995-1.4022 6.3171-1.4349 9.0057-0.07529 6.1823 3.1263 7.4643 10.988 2.5813 15.829-1.6516 1.6374-3.2091 2.376-5.6182 2.6643-2.1437 0.25656-2.2503 0.25395-3.8478-0.09324zm5.9042-2.8189c2.308-2.1827 2.5246-2.5471 2.0435-3.4383-0.29405-0.54461-0.47792-0.48166-0.90848 0.31098-0.2075 0.38234-0.48869 0.69516-0.62445 0.69516-0.13568 0-0.45385 0.22129-0.70681 0.49179-0.66697 0.71313-1.5361 0.83238-2.2139 0.3038-0.53654-0.41842-0.54762-0.47062-0.54138-2.5479l0.0076-2.1207 0.69483-0.68559c0.38215-0.37708 0.69479-0.75693 0.69479-0.84412 0-0.28611-0.68867-0.1646-1.3571 0.23943-1.4426 0.87201-1.7529 0.34583-1.5753-2.6717 0.07106-1.2073 0.18633-2.6643 0.25663-3.2378 0.11981-0.9808 0.10091-1.0427-0.31446-1.0427-1.1882 0-1.3698 0.55044-1.4502 4.3948-0.06765 3.2304-0.4741 3.5004-2.184 1.4503-0.59868-0.71779-1.2932-1.5282-1.5435-1.8008-0.56802-0.61884-1.3191-0.5721-1.4135 0.08795-0.04876 0.34069 0.2211 0.7307 1.0539 1.5242 1.0369 0.98771 2.1082 2.7496 2.116 3.4799 0.0016 0.16384 0.12397 0.52732 0.27137 0.8077 0.14778 0.28036 0.33298 0.77195 0.41167 1.0924 0.07861 0.32043 0.35452 0.90265 0.61236 1.2938 0.25814 0.39116 0.7883 1.3397 1.1785 2.1078 0.59528 1.1719 0.84816 1.4633 1.5722 1.8112 0.47452 0.22809 1.0431 0.41875 1.2635 0.42372 0.2434 0.0053 1.287-0.82921 2.6574-2.1252zm-1.2879-2.3287c0.52105-0.51657-0.03024-2.8841-0.67298-2.8841-0.28498 0-0.24454 2.6527 0.0446 2.9395 0.2982 0.2956 0.27175 0.2979 0.62827-0.05545zm1.6956-1.1363c0.39398-0.39058 0.27402-0.75474-0.24869-0.75474-0.60102 0-0.82889 0.31737-0.50536 0.70385 0.29405 0.35146 0.44084 0.36136 0.75398 0.05087zm1.1695-1.7705c0.16063-0.13228 0.26532-0.42708 0.23244-0.65511-0.04838-0.3349-0.3292-0.48054-1.4621-0.75765-0.77129-0.18867-1.5151-0.30319-1.6528-0.25451-0.65658 0.23214 3.41e-4 1.5824 0.95161 1.956 0.4283 0.16819 1.5858-0.0049 1.9307-0.28872zm-1.3714-2.4872c-0.2109-0.20912-0.4585-0.27235-0.69404-0.1773-0.3462 0.13977-0.34432 0.15666 0.03402 0.31113 0.22035 0.08984 0.53269 0.16962 0.69403 0.1773 0.24189 0.01134 0.23584-0.04286-0.03402-0.31113zm-15.71-0.36253c-0.0669-0.17303 0.03024-0.91488 0.21619-1.6486 1.328-5.2416 6.3574-9.1766 11.729-9.1766 5.3712 0 10.401 3.935 11.729 9.1766 0.39999 1.5787 0.31106 1.939-0.47894 1.939-0.71191 0-0.93842-0.26082-1.1212-1.291-0.26608-1.4999-1.5006-3.698-2.7977-4.9812-4.002-3.9594-10.2-4.0292-14.336-0.1615-1.5345 1.4352-2.4219 2.9223-2.9579 4.957-0.3617 1.3732-0.3651 1.3776-1.1115 1.4392-0.53915 0.04445-0.78274-0.02646-0.87042-0.25285z" fill="#9ed2ec"/>
  <path d="m48.055 61.342c-0.98396-0.18886-1.2429-0.44141-0.97028-0.9464 0.19124-0.35437 0.38079-0.37882 2.2851-0.29484 2.4495 0.10802 3.7337-0.12495 5.5444-1.0058 2.6209-1.2751 5.1206-4.4602 5.5393-7.0583 0.12662-0.78548 0.5113-1.4311 0.84824-1.4236 0.07483 0.0017 0.26268 0.08262 0.41775 0.17991 0.4303 0.27008-0.08315 2.3536-1.055 4.2802-2.2807 4.5215-7.6934 7.2125-12.61 6.2689zm-4.7038-1.9264c-2.2004-1.4802-4.1323-4.2654-4.7444-6.84-0.41431-1.7426-0.40925-1.7671 0.36699-1.7671 0.66459 0 0.67876 0.01852 0.90939 1.1806 0.48658 2.452 2.264 5.0226 4.5518 6.5831 0.89964 0.61366 0.96242 0.71831 0.7539 1.257-0.1852 0.4784-0.67578 0.36798-1.8378-0.41371zm4.2632-0.1084c-1.4714-0.4852-3.1894-1.4168-4.0448-2.1933-2.1088-1.9144-3.2216-4.5304-2.9909-7.0312 0.06879-0.74779 0.12397-1.6001 0.12246-1.894-0.0038-0.69513 1.3256-1.7954 1.6173-1.3385 0.27024 0.42345 0.23735 0.51311-0.36359 0.99251l-0.5509 0.43946 0.74411-0.1135c0.69706-0.10632 0.79245-0.05469 1.5086 0.8163 1.1122 1.3526 1.81 2.4423 1.9638 3.0668 0.07446 0.30146 0.21279 0.59569 0.30765 0.65388 0.09487 0.05821 0.27213 0.4819 0.39398 0.94155 0.1217 0.45965 0.46862 1.1486 0.77099 1.5309s0.8092 1.1711 1.1264 1.7528c0.39247 0.71979 0.83584 1.2049 1.3881 1.5186 1.5603 0.88656 1.4962 0.90684 3.744-1.1828 2.0991-1.9513 2.9774-3.0091 2.9774-3.586 0-0.17972-0.17537-0.5478-0.38971-0.81794-0.30841-0.3889-0.36624-0.68626-0.2778-1.4282 0.13266-1.1096-0.03968-1.3042-1.336-1.5097-0.49584-0.07861-1.1817-0.18833-1.5241-0.24386-0.7875-0.12771-1.0036 0.31453-0.56478 1.1558 0.35565 0.68198 1.3418 1.1635 2.3829 1.1635 0.38918 0 0.7076 0.09404 0.7076 0.20893 0 0.51399-0.93793 1.7971-1.4001 1.9152-0.27402 0.07011-0.66387 0.33589-0.86596 0.59059-0.22337 0.28135-0.578 0.46193-0.90384 0.46008-1.1446-0.0064-1.4171-0.5998-1.3424-2.923 0.05329-1.658 0.10998-1.8893 0.60752-2.4801 0.7717-0.91642 0.91767-0.96533 1.89-0.63323 0.947 0.32345 1.2132 0.24136 0.88588-0.27318-0.32693-0.51383-2.9116-0.52819-3.5635-0.01965-0.49538 0.38632-0.90508 0.48509-0.93317 0.22496-0.0076-0.08194-0.0038-0.72991 0.0076-1.44 0.04044-2.2331 0.04346-2.6654 0.02268-3.2772-0.01134-0.32772 0.0036-1.3479 0.03402-2.267 0.06501-2.0247 0.43646-2.3835 0.62415-0.60312 0.07673 0.7287 0.28006 1.4067 0.50763 1.6935l0.37946 0.47829 0.0892-0.60183c0.04913-0.33101-0.02646-0.75484-0.17159-0.94184-0.3258-0.42518-0.34583-0.96732-0.04233-1.1532 0.3035-0.18592 2.1732-0.32992 2.1732-0.16736 0 0.06928-0.26797 0.37429-0.5958 0.67773-0.57891 0.53615-0.59229 0.59037-0.47286 1.9169 0.06765 0.75082 0.15194 1.3991 0.18784 1.4407 0.03402 0.04158 0.63167-0.27504 1.3243-0.70363 1.1448-0.70836 1.265-0.84731 1.3222-1.5277 0.04838-0.5764 0.1406-0.73398 0.40067-0.68552 0.18558 0.03477 0.42678 0.26351 0.53552 0.50866 0.10885 0.24514 0.29556 0.44572 0.41473 0.44572 0.11943 0 0.59123 0.31763 1.0487 0.70588 1.0987 0.93242 2.2031 3.1513 2.4932 5.0097 0.60333 3.8642-1.7006 8.2056-5.2822 9.9537-1.7956 0.87638-5.5365 1.285-7.086 0.77405zm4.8931-5.0047c0.50869-0.60764-0.35301-3.3854-0.93902-3.0265-0.1988 0.12185-0.17159 2.7477 0.03024 3.0742 0.19616 0.31472 0.62249 0.29227 0.90712-0.04774zm1.7127-1.2329c0.35074-0.34783 0.31521-0.78355-0.06123-0.75154-0.1285 0.01096-0.41405 0.03326-0.63439 0.04966-0.24416 0.01814-0.40071 0.17212-0.40071 0.39392 0 0.69098 0.5534 0.84641 1.0965 0.30799zm-2.9359-8.2156 0.06387-0.88644-0.41439 0.52225c-0.52184 0.65771-0.55827 1.4096-0.06387 1.3166 0.25928-0.04876 0.36699-0.29688 0.41435-0.95237zm-4.8532 3.736c-0.17537-0.2485-0.31937-0.54478-0.31937-0.65843 0-0.11365-0.20296-0.29488-0.45078-0.40269-0.24794-0.10783-0.66924-0.53207-0.9363-0.94276-0.32126-0.4938-0.84699-0.91621-1.5526-1.2472-0.58688-0.27526-1.067-0.57232-1.067-0.66015 0-0.40726 0.33713-0.36178 1.4514 0.19586 0.80508 0.40292 1.3616 0.56248 1.6829 0.48253 1.0657-0.26517 2.0913 1.0591 2.0182 2.6058-0.04989 1.0532-0.35943 1.2881-0.82647 0.62696zm-8.0249-0.15315c-0.21052-0.33796 0.44092-2.5786 1.1875-4.0833 1.3281-2.6768 3.9688-4.9132 6.929-5.868 2.1126-0.68143 5.0795-0.68143 7.192 0 1.8163 0.58586 4.0839 2.053 5.3243 3.4448 1.0701 1.2007 2.3669 3.7482 2.6827 5.2701 0.2521 1.2141 0.18028 1.4234-0.48665 1.4234-0.38358 0-0.52138-0.14914-0.68825-0.74481-0.1149-0.40964-0.20901-0.84618-0.20976-0.97008-3.78e-4 -0.12389-0.35868-0.93362-0.79582-1.7994-2.381-4.7162-7.9534-6.9372-12.921-5.1496-3.2876 1.1831-5.3614 3.3929-6.5435 6.9725-0.45853 1.3885-0.59059 1.5999-1.0329 1.6531-0.27893 0.03364-0.56591-0.03326-0.63783-0.14869zm7.8381-3.3394c-0.42304-0.28781-1.1431-0.5729-1.6001-0.63356-0.90565-0.12023-1.1422-0.51099-0.7739-1.2784 0.11112-0.23142 0.25247-0.57719 0.31408-0.76836 0.16894-0.52413 0.52528-0.41695 0.52528 0.15798 0 0.59388 0.56217 1.1738 1.8638 1.9226 0.51753 0.29771 0.94095 0.67757 0.94095 0.84412 0 0.4315-0.38562 0.35732-1.27-0.24431zm1.3176-3.6124c-0.35679-0.29526-0.6486-0.59336-0.6486-0.66247 0-0.06913 0.47331-0.1073 1.0518-0.08485 0.96336 0.03742 1.0518 0.08066 1.0518 0.51461 0 0.76056-0.68485 0.87009-1.4549 0.2327z" fill="#94b6d6"/>
  <path d="m48.055 61.342c-0.98396-0.18886-1.2429-0.44141-0.97028-0.9464 0.19124-0.35437 0.38079-0.37882 2.2851-0.29484 2.4495 0.10802 3.7337-0.12495 5.5444-1.0058 2.6209-1.2751 5.1206-4.4602 5.5393-7.0583 0.12662-0.78548 0.5113-1.4311 0.84824-1.4236 0.07483 0.0017 0.26268 0.08262 0.41775 0.17991 0.4303 0.27008-0.08315 2.3536-1.055 4.2802-2.2807 4.5215-7.6934 7.2125-12.61 6.2689zm-4.7038-1.9264c-2.2004-1.4802-4.1323-4.2654-4.7444-6.84-0.41431-1.7426-0.40925-1.7671 0.36699-1.7671 0.66459 0 0.67876 0.01852 0.90939 1.1806 0.48658 2.452 2.264 5.0226 4.5518 6.5831 0.89964 0.61366 0.96242 0.71831 0.7539 1.257-0.1852 0.4784-0.67578 0.36798-1.8378-0.41371zm4.7641-0.26521c-0.16516-0.1059-0.55143-0.19389-0.8581-0.19559-1.381-0.0076-4.0029-1.9451-5.2673-3.8923-1.102-1.6972-1.3764-3.1138-1.294-6.6807 0.01512-0.60296 0.14778-0.83738 0.72915-1.277 0.58779-0.44447 0.74381-0.48892 0.8934-0.25455 0.27666 0.43345 0.23509 0.535-0.41363 1.0105-0.33071 0.2423-0.60102 0.52404-0.60102 0.62611 0 0.10208 0.13531 0.07431 0.30047-0.06168 0.16517-0.13599 0.30047-0.18848 0.30047-0.11664 0 0.07185 0.17083 0.03991 0.37984-0.07094 0.32164-0.17061 0.5215-0.03704 1.3022 0.86881 0.50729 0.58869 0.92236 1.1326 0.92236 1.2086 0 0.07604 0.22526 0.40381 0.50082 0.72837 0.4173 0.49166 0.50086 0.79714 0.50086 1.8311 0 1.1566 0.05783 1.3152 0.85141 2.3311 0.46828 0.59955 1.1145 1.5045 1.436 2.011 0.36624 0.57697 0.90867 1.0913 1.4525 1.3773 0.47732 0.25104 0.86789 0.52364 0.86789 0.60576 0 0.21766-1.6501 0.17703-2.0034-0.04932zm4.0067-0.15379c0-0.26563 1.8466-2.0307 2.1246-2.0309 0.3549-1.71e-4 2.2521-2.0937 2.3896-2.6367 0.06879-0.27228-0.0076-0.8853-0.16819-1.3623-0.16138-0.47698-0.3583-1.2565-0.43774-1.7324-0.07937-0.47582-0.31484-1.0121-0.52369-1.1917-0.77756-0.66915-1.0901-0.97358-1.446-1.4084-0.2691-0.32886-0.48015-0.40928-0.80134-0.30538-0.24 0.07756-0.80375 0.12843-1.2532 0.11297-0.55835-0.01928-0.986 0.1036-1.3503 0.38774-0.29329 0.2287-0.61935 0.36302-0.72465 0.29851-0.18142-0.11119-0.25739-1.0761-0.18822-2.3912 0.03024-0.59221 0.02646-1.2433-0.01134-2.3834-0.01134-0.32772 0.0036-1.3479 0.03402-2.267 0.06501-2.0247 0.43646-2.3835 0.62415-0.60312 0.07672 0.7287 0.28006 1.4067 0.50759 1.6935l0.3795 0.47829 0.0892-0.60183c0.04913-0.33101-0.02646-0.75484-0.17159-0.94185-0.3258-0.42518-0.34583-0.96732-0.04233-1.1532 0.3035-0.18592 2.1732-0.32992 2.1732-0.16736 0 0.06928-0.26797 0.37429-0.59577 0.67773-0.57895 0.53615-0.59233 0.59037-0.4729 1.9169 0.06765 0.75082 0.15194 1.3991 0.18784 1.4407 0.03402 0.04158 0.63171-0.27507 1.3243-0.70363 1.1448-0.70835 1.265-0.8473 1.3222-1.5277 0.04838-0.5764 0.1406-0.73398 0.4007-0.68552 0.18558 0.03477 0.42705 0.26419 0.53616 0.51014 0.10923 0.24597 0.60574 0.7228 1.1036 1.0596 1.5771 1.067 2.8049 3.7923 2.8049 6.2262 0 2.8013-0.9247 5.0088-2.9261 6.9855-1.2062 1.1913-3.0293 2.2579-3.8019 2.2244-0.21128-0.0091-0.54176 0.04951-0.73455 0.13039-0.19729 0.08285-0.35074 0.06134-0.35074-0.04921zm-0.83773-14.143 0.06387-0.88644-0.41439 0.52225c-0.52184 0.65771-0.55827 1.4096-0.06387 1.3166 0.25928-0.04876 0.36699-0.29688 0.41435-0.95237zm-4.7291 3.9312c-0.31484-0.3123-0.32504-1.0295-0.01134-0.83756 0.14324 0.0878 0.17688 0.05446 0.08844-0.08757-0.07861-0.12612-0.34734-0.2293-0.59705-0.2293-0.46666 0-1.1034-0.56294-1.4996-1.3258-0.12359-0.23758-0.72068-0.66476-1.3273-0.94924-0.60654-0.28448-1.1028-0.58911-1.1028-0.67694 0-0.40726 0.33713-0.36178 1.4514 0.19586 0.80512 0.40292 1.3616 0.56248 1.6829 0.48253 1.0657-0.26517 2.0914 1.0591 2.0182 2.6058-0.04535 0.9595-0.28309 1.2378-0.70246 0.82216zm-8.149-0.34832c-0.21052-0.33797 0.44092-2.5786 1.1875-4.0833 1.3281-2.6768 3.9688-4.9132 6.929-5.868 2.1126-0.68143 5.0795-0.68143 7.192 0 1.8163 0.58586 4.0839 2.053 5.3243 3.4448 1.0701 1.2007 2.3669 3.7482 2.6827 5.2701 0.2521 1.2141 0.18028 1.4234-0.48665 1.4234-0.38358 0-0.52138-0.14914-0.68825-0.74481-0.1149-0.40964-0.20901-0.84618-0.20976-0.97008-3.78e-4 -0.12389-0.35868-0.93362-0.79582-1.7994-2.381-4.7162-7.9534-6.9372-12.921-5.1496-3.2876 1.1831-5.3614 3.3929-6.5435 6.9725-0.45853 1.3885-0.59059 1.5999-1.0329 1.6531-0.27893 0.03364-0.56591-0.03326-0.63783-0.14869zm7.8381-3.3394c-0.42304-0.28781-1.1431-0.5729-1.6001-0.63356-0.90565-0.12023-1.1422-0.51099-0.7739-1.2784 0.11112-0.23142 0.25247-0.57719 0.31408-0.76836 0.16894-0.52413 0.52528-0.41695 0.52528 0.15798 0 0.59388 0.56217 1.1738 1.8638 1.9226 0.51753 0.29771 0.94095 0.67757 0.94095 0.84412 0 0.4315-0.38562 0.35732-1.27-0.24431zm1.3176-3.6124c-0.35679-0.29526-0.6486-0.59336-0.6486-0.66247 0-0.06913 0.47331-0.1073 1.0518-0.08485 0.96336 0.03742 1.0518 0.08066 1.0518 0.5146 0 0.76056-0.68485 0.87009-1.4549 0.23271z" fill="#6dc6e9"/>
  <path d="m47.815 61.16c-0.42342-0.08976-0.60102-0.2442-0.60102-0.52269 0-0.37417 0.11301-0.39145 2.1121-0.3236 1.5004 0.05091 2.4803-0.02192 3.3831-0.25115 3.8688-0.98262 7.0168-4.1676 7.891-7.9839 0.21241-0.92719 0.3481-1.1716 0.6505-1.1716 0.55895 0 0.57358 0.51672 0.06274 2.2224-0.56084 1.873-1.9326 4.0094-3.3985 5.293-1.2472 1.092-3.8041 2.3798-5.3519 2.6955-1.1297 0.2304-3.7504 0.25364-4.7481 0.0421zm-4.432-1.8975c-2.1093-1.4083-3.9097-3.9501-4.5882-6.4776-0.43192-1.6091-0.39443-1.9771 0.20145-1.9771 0.37856 0 0.52656 0.13017 0.62109 0.5462 0.37996 1.6726 0.58643 2.2578 1.2207 3.4599 0.66539 1.261 2.3129 3.0344 3.7617 4.0491 0.40464 0.28339 0.54334 0.51145 0.45301 0.7448-0.18898 0.48877-0.52445 0.41945-1.6698-0.34526zm4.7325-0.11286c-0.16516-0.1059-0.55143-0.19389-0.8581-0.19559-0.814-0.0045-2.4536-0.89385-3.6064-1.9563-1.92-1.7695-2.948-3.937-2.948-6.2157v-1.1453l0.61814 0.21362c0.34998 0.12094 1.0862 0.15908 1.6968 0.08795l1.0787-0.12571 0.70719 1.0411c0.59977 0.88292 0.70722 1.2098 0.70722 2.1511 0 1.0024 0.08239 1.2156 0.85142 2.2001 0.46828 0.59955 1.1145 1.5045 1.436 2.011 0.36624 0.57697 0.90867 1.0913 1.4525 1.3773 0.47732 0.25104 0.86789 0.52364 0.86789 0.60576 0 0.21766-1.6501 0.17703-2.0034-0.04932zm4.0067-0.15379c0-0.26562 1.8466-2.0307 2.1246-2.0309 0.3549-1.7e-4 2.2521-2.0937 2.3896-2.6367 0.06879-0.27228-0.0076-0.8853-0.16819-1.3623-0.16138-0.47698-0.3583-1.2565-0.43774-1.7324-0.07937-0.47582-0.31484-1.0121-0.52369-1.1917-0.76838-0.66124-1.0882-0.97131-1.4109-1.3678-0.2914-0.358-0.49202-0.394-1.7029-0.30546-0.75492 0.05518-1.5723 0.22439-1.8163 0.37599-0.69252 0.43019-0.75946 0.35199-0.74135-0.86651 0.02268-1.6454 0.03893-1.6963 0.45543-1.5883 0.53544 0.13882 1.0254-0.19521 1.3409-0.91421 0.1508-0.34409 0.27817-0.51386 0.28233-0.37731 0.01512 0.44703 0.68719 0.25826 1.9815-0.55578 0.82462-0.51862 1.3494-1.0025 1.4912-1.3749l0.21883-0.57463 0.46208 0.62092c0.7279 0.97813 0.53121 1.4582-0.56356 1.3755-0.32126-0.02419-1.1069 0.28566-1.959 0.77273-1.1439 0.65384-1.4228 0.9072-1.4228 1.2926 0 0.85568 0.62615 0.56146 1.6216-0.76198 0.3137-0.41707 0.57921-0.5462 1.1232-0.5462 0.42792 0 1.141-0.24318 1.7861-0.60905 0.59055-0.33498 1.1564-0.55838 1.2575-0.49645 0.3292 0.20164 1.2426 1.8928 1.6382 3.033 0.7259 2.0916 0.40902 5.0987-0.76849 7.2932-1.0655 1.9858-4.2235 4.5059-5.573 4.4473-0.21128-0.0091-0.54176 0.04951-0.73459 0.13039-0.19729 0.08285-0.35074 0.06134-0.35074-0.04921zm-0.94469-11.546c0.41677-0.69948 0.42558-0.81347 0.06274-0.81347-0.21808 0-0.72076 0.92124-0.72076 1.3206 0 0.26071 0.37077-0.02495 0.65798-0.50717zm-4.4644 1.1844c0-0.1028 0.09033-0.24212 0.20032-0.30966 0.11036-0.0675 0.20031 0.01663 0.20031 0.1869 0 0.1703-0.09033 0.30966-0.20031 0.30966-0.10998 0-0.20032-0.08409-0.20032-0.1869zm-8.1196-1.1538c0.4684-3.1624 2.9194-6.4143 6.0725-8.057 6.4201-3.3446 14.395-0.13232 16.576 6.677 0.62801 1.9605 0.63424 2.3235 0.03968 2.3235-0.39617 0-0.50309-0.17945-0.80958-1.359-0.46987-1.8083-1.5714-3.6038-3.0492-4.9703-2.1653-2.0021-4.2616-2.8071-7.31-2.8071-3.5653 0-6.5878 1.555-8.6321 4.4409-0.83705 1.1817-1.3403 2.359-1.9008 4.4471-0.03779 0.13655-0.30501 0.24828-0.59652 0.24828-0.51817 0-0.52679-0.02079-0.39016-0.94342zm6.4281-0.68969c-0.44107-0.62428-0.38835-0.92229 0.1886-1.0658 0.6918-0.17216 1.0727 0.01398 1.3134 0.64157 0.15345 0.40057 0.14022 0.57556-0.05291 0.6972-0.47342 0.29779-1.1335 0.17344-1.4488-0.27296zm4.7895-2.3966c-0.16592-0.65559 0.21921-1.5528 0.60359-1.4065 0.49293 0.1875 0.60544 1.0253 0.19767 1.4719-0.46318 0.50738-0.66044 0.49128-0.80134-0.06542zm-5.6731-0.39034c-0.33789-0.3349 0.13002-0.82643 0.49822-0.52346 0.1508 0.12397 0.27402 0.29424 0.27402 0.37843 0 0.26884-0.54418 0.37104-0.77216 0.14502zm7.1902-2.2249c-0.29518-0.35278-0.10998-0.70385 0.37191-0.70385 0.50914 0 0.63795 0.19627 0.40811 0.62196-0.24076 0.44624-0.45604 0.46884-0.77994 0.0819zm-3.3199-0.31782c-0.07937-0.12752-0.03024-0.30293 0.11339-0.38986 0.33184-0.20338 0.83467-0.01474 0.73686 0.27659-0.10583 0.31495-0.6771 0.39107-0.85028 0.11327z" fill="#5ca6dc"/>
  <path d="m48.264 61.144c-0.89575-0.17223-1.0385-0.28588-0.87836-0.69953 0.08958-0.23116 0.26343-0.275 0.67586-0.17023 1.0286 0.26143 3.7305 0.14479 4.9542-0.21385 1.8558-0.54392 2.9963-1.205 4.4918-2.6037 1.5573-1.4564 2.6672-3.3174 3.0942-5.188 0.21921-0.96102 0.34469-1.1744 0.72087-1.2289 0.41703-0.06043 0.44413-0.0102 0.32164 0.59585-0.61096 3.024-2.202 5.6052-4.5484 7.379-2.3063 1.7436-6.0915 2.6561-8.8319 2.1293zm-4.5626-1.7636c-1.1243-0.71467-2.9636-2.6335-3.648-3.8057-0.53492-0.91616-1.209-2.7739-1.4232-3.9227-0.10772-0.5768-0.07106-0.6455 0.34356-0.6455 0.40154 0 0.49848 0.15368 0.72045 1.142 0.55487 2.4706 2.3773 5.1155 4.436 6.438 0.57305 0.36813 0.971 0.76372 0.93796 0.9324-0.096 0.49012-0.43106 0.45613-1.3667-0.13863zm4.1498-0.43679c-0.61954-0.48316-1.8055-2.782-1.7028-3.3007 0.05518-0.27866 0.23395-0.12888 0.74895 0.62696 0.89363 1.3118 1.5975 2.0578 2.2703 2.4062 0.30312 0.15693 0.5509 0.37236 0.5509 0.47881 0 0.35297-1.338 0.2016-1.8674-0.21128zm4.5161-0.22363c0.04271-0.12714 0.38336-0.46232 0.75689-0.74481 0.69381-0.52473 0.66297-0.27213-0.06463 0.52911-0.4331 0.47693-0.82072 0.59771-0.6923 0.2157zm-6.8558-0.57545c-1.5239-0.83093-2.9125-2.2428-3.637-3.6979-0.63213-1.2694-0.62272-1.6526 0.04082-1.6526 0.63076 0 2.4109-0.74233 2.7103-1.1302 0.2366-0.30641 0.30539-0.31688 0.46844-0.07083 0.10507 0.1587 0.14551 0.51622 0.08995 0.79446-0.16214 0.81183 0.4701 3.3763 1.1777 4.7761 0.35906 0.71005 0.68262 1.358 0.71936 1.44 0.13871 0.30943-0.50562 0.12094-1.5693-0.45906zm8.0135 0.40171c0-0.11641 0.6206-0.86168 1.3791-1.6562 0.75851-0.79449 1.5295-1.7328 1.7133-2.0852 0.31635-0.60666 0.31143-0.73238-0.09109-2.3685-0.60805-2.4704-0.59701-2.4416-1.1228-2.9248l-0.47864-0.4398 1.3535-0.81898c1.6227-0.98184 1.4476-1.0918-0.28951-0.18176-0.87273 0.45723-1.3053 0.58842-1.4541 0.44096-0.14854-0.14744 0.14211-0.40721 0.97761-0.87311 0.77813-0.4339 1.2302-0.82478 1.3076-1.1305 0.14627-0.57774 0.71887-0.61083 1.2125-0.07007 0.19956 0.21846 0.52577 0.39723 0.72518 0.39723 0.83936 0 1.2827 2.319 0.88135 4.6103-0.54958 3.1375-2.654 5.8852-5.3628 7.0022-0.46976 0.1937-0.75126 0.23048-0.75126 0.09815zm-11.222-7.1475c-0.27175-0.50331-0.2623-0.51731 0.46968-0.69944 0.53186-0.13232 0.56232-0.10624 0.50045 0.42904-0.08126 0.70353-0.65065 0.86222-0.97013 0.27039zm-3.6425-3.0792c-0.06576-0.06531 0.0076-0.66696 0.16706-1.337 0.90656-3.8525 4.0371-7.121 7.9859-8.3378 1.9304-0.59481 4.6757-0.59562 6.6111-2e-3 3.5587 1.0916 6.609 3.9709 7.6924 7.2612 0.578 1.7554 0.6175 2.4212 0.14362 2.4212-0.29102 0-0.44149-0.25138-0.65446-1.0924-1.2102-4.7784-5.5715-8.1432-10.555-8.1432-2.5494 0-5.2444 1.0995-7.1788 2.9288-1.5122 1.43-2.348 2.7437-2.9962 4.7097-0.47358 1.4363-0.86064 1.9431-1.2154 1.5914zm12.66-0.49085c0.24265-0.44974 0.60748-0.51 0.96162-0.15889 0.40388 0.4004 0.27288 0.55612-0.46783 0.55612-0.64615 0-0.68942-0.03477-0.4938-0.39723zm-1.4024-0.6786c0-0.33377 0.10998-0.51309 0.31446-0.51309 0.20901 0 0.29291 0.14487 0.25058 0.43133-0.09449 0.63586-0.56485 0.70397-0.56485 0.08175zm-4.6579-0.13175c-0.47055-0.27171-0.456-1.1159 0.02268-1.2662 0.87738-0.27609 1.6181 0.70834 0.91601 1.2173-0.42871 0.31079-0.4797 0.31344-0.93785 0.04887zm8.7147 0.083c-0.40018-0.1601-0.28951-1.0105 0.17348-1.3319 0.54319-0.3772 1.2559-0.13693 1.3445 0.45329 0.11868 0.79039-0.64033 1.2297-1.5179 0.87864zm-4.0188-3.1799c0.07257-0.84965 0.43669-1.0674 0.76577-0.45778 0.18633 0.34481 0.16365 0.49824-0.11754 0.80653-0.52006 0.56971-0.71735 0.46354-0.64811-0.34874zm5.4384 0.02079c-0.16706-0.43138 0.25701-0.83707 0.56035-0.53626 0.25625 0.25425 0.09751 0.84754-0.22677 0.84754-0.11716 0-0.26721-0.14007-0.33335-0.31128zm-11.286-0.17356c0-0.15742 0.08013-0.33517 0.17764-0.39504 0.22072-0.13516 0.66958 0.37096 0.48839 0.55056-0.23849 0.2363-0.66603 0.13644-0.66603-0.15553zm7.2468-2.2281c0.08428-0.43465 0.66656-0.49615 0.66656-0.07041 0 0.16237-0.16592 0.32689-0.36888 0.36559-0.26759 0.0511-0.34923-0.02986-0.29783-0.29522zm-3.24-0.16698c0-0.20459 0.13115-0.30198 0.35074-0.26011 0.42225 0.08062 0.39564 0.43312-0.03968 0.52294-0.18142 0.03742-0.31106-0.072-0.31106-0.26283z" fill="#22a4d5"/>
  <path d="m47.851 58.944c-0.61954-0.48316-1.8055-2.782-1.7028-3.3007 0.05518-0.27866 0.23395-0.12888 0.74895 0.62696 0.89363 1.3118 1.5975 2.0578 2.2703 2.4062 0.30312 0.15693 0.5509 0.37236 0.5509 0.47881 0 0.35297-1.338 0.2016-1.8674-0.21128zm4.5161-0.22363c0.04271-0.12714 0.38336-0.46232 0.75689-0.74481 0.69381-0.52473 0.66297-0.27213-0.06463 0.52911-0.4331 0.47693-0.82072 0.59771-0.6923 0.2157zm-6.8558-0.57545c-0.60601-0.33044-1.5348-1.0215-2.0639-1.5357-0.95093-0.92409-2.3293-3.2992-2.0661-3.5602 0.07483-0.07415 0.90539-0.33241 1.8458-0.57385 1.2155-0.31211 1.7289-0.37247 1.7759-0.20882 0.0378 0.12661 0.20674 0.98438 0.37844 1.9062 0.18104 0.97227 0.58946 2.2232 0.97232 2.9792 0.36284 0.71678 0.69007 1.3703 0.7268 1.4522 0.13871 0.30943-0.50562 0.12094-1.5693-0.45906zm8.0135 0.40171c0-0.11641 0.6206-0.86168 1.3791-1.6562 0.75851-0.79449 1.5295-1.7328 1.7133-2.0852 0.31635-0.60666 0.31143-0.73238-0.09109-2.3685-0.60805-2.4704-0.59701-2.4416-1.1228-2.9248l-0.47864-0.4398 1.3535-0.81898c1.6227-0.98184 1.4476-1.0918-0.28951-0.18176-0.87273 0.45723-1.3053 0.58842-1.4541 0.44096-0.14854-0.14744 0.14173-0.40695 0.97606-0.87224 0.65325-0.36427 1.2314-0.82788 1.2848-1.0302 0.15269-0.57958 0.70269-0.66881 1.2099-0.19638 0.24945 0.23229 0.60227 0.42236 0.7841 0.42236 0.80802 0 1.2432 2.3621 0.84941 4.6103-0.54958 3.1375-2.654 5.8852-5.3628 7.0022-0.46976 0.1937-0.75126 0.23048-0.75126 0.09815zm0.66773-11.825c-0.15647-0.40468 0.42924-0.90648 0.86487-0.74075 0.16025 0.06104 0.26419 0.30066 0.23093 0.53255-0.07748 0.53756-0.90731 0.69524-1.0958 0.20821z" fill="#2a6fc5"/>
  <path d="m48.186 59.115c-0.23698-0.11365-0.65949-0.62336-0.93906-1.1327-1.075-1.9581-1.1214-2.7751-0.0635-1.1148 0.3137 0.49214 0.96435 1.1754 1.4461 1.5184 1.1347 0.8079 0.81517 1.333-0.44364 0.729zm-2.5744-1.1366c-1.0438-0.59598-2.5042-1.8875-2.5042-2.2145 0-0.10398 0.34242-0.18905 0.76127-0.18905 0.4187 0 0.8674-0.10518 0.99708-0.2338 0.18104-0.1793 0.31219-0.05201 0.56375 0.54619 0.18028 0.42898 0.54456 1.2045 0.80931 1.7234 0.26494 0.51888 0.45732 0.94258 0.42792 0.94156-0.03024-1e-3 -0.50419-0.25924-1.0551-0.57382zm8.5143 0.26234c0-0.06871 0.62974-0.83229 1.3994-1.6968 1.5456-1.736 1.7655-2.2454 1.4334-3.3204-0.12359-0.39993-0.3035-1.1964-0.3995-1.7699l-0.17499-1.0427h0.78198c0.43011 0 1.139-0.18055 1.5753-0.40126l0.7934-0.40127v0.84878c0 1.2206-0.67007 3.3676-1.3613 4.3618-0.74154 1.0666-2.56 2.784-3.4084 3.2189-0.35187 0.18032-0.6395 0.27164-0.6395 0.20288z" fill="#2462bd"/>
 </g>
</svg>
