<svg width="64mm" height="64.52mm" version="1.1" viewBox="0 0 64 64.52" xmlns="http://www.w3.org/2000/svg">
 <g transform="translate(179.79 5.1931)" stroke-width=".50084">
  <path d="m-153.31 56.847c-2.8439-0.5579-3.2752-1.0075-2.6783-2.792l0.47535-1.4211 5.7718 0.181c4.3738 0.13716 6.4863-0.02524 8.7214-0.67048 10.113-2.9195 16.613-10.265 18.957-21.422 0.25701-1.2234 0.5121-1.3773 2.2832-1.3773 2.3499 0 2.4388 0.38426 1.1999 5.1865-2.0555 7.9674-8.5298 16.005-15.734 19.532-6.0121 2.9437-12.978 3.9645-18.996 2.7839zm-11.326-4.6528c-5.6501-3.805-10.746-11.03-12.457-17.663-1.2957-5.0224-0.90177-5.9616 2.1832-5.2046 1.0183 0.24989 1.3626 0.84541 2.0464 3.5399 1.7096 6.7359 5.4571 12.223 10.744 15.733 2.8033 1.8607 3.1763 2.5781 2.2451 4.318-0.73988 1.3825-1.8958 1.2069-4.7617-0.72304zm10.936-0.59281c-6.0064-1.3168-11.713-5.3459-15.144-10.693-6.0096-9.3652-4.6225-22.081 3.3386-30.604 1.7967-1.9236 3.4544-3.4974 3.684-3.4974 0.22954 0 1.4978-0.63686 2.8184-1.4152 5.9986-3.5358 15.793-3.6183 22.514-0.18982 15.456 7.8836 18.661 27.709 6.4532 39.916-4.129 4.129-8.0228 5.9915-14.045 6.7185-5.3593 0.64692-5.6258 0.64041-9.6194-0.23514zm14.76-7.1084c5.7699-5.504 6.3114-6.4229 5.1086-8.6703-0.73499-1.3733-1.1948-1.2146-2.2712 0.78419-0.51922 0.96412-1.2217 1.7529-1.5611 1.7529-0.33941 0-1.1346 0.55806-1.767 1.2401-1.6674 1.7983-3.8401 2.099-5.5347 0.76603-1.3414-1.0551-1.3691-1.1867-1.3535-6.4249l0.0159-5.3477 1.737-1.7288c0.95538-0.95086 1.7371-1.9087 1.7371-2.1286 0-0.72147-1.7217-0.41506-3.3928 0.60382-3.6066 2.1989-4.3822 0.87206-3.9382-6.7371 0.17763-3.0444 0.4662-6.7186 0.64128-8.1648 0.29941-2.4733 0.25271-2.6294-0.78606-2.6294-2.9704 0-3.4245 1.388-3.6255 11.082-0.16892 8.146-1.1853 8.8268-5.4599 3.6572-1.4967-1.81-3.2331-3.8535-3.8588-4.541-1.4201-1.5605-3.2977-1.4426-3.5337 0.22181-0.12181 0.85912 0.55241 1.8426 2.6348 3.8435 2.5922 2.4907 5.2705 6.9335 5.2901 8.7751 4e-3 0.4132 0.30987 1.3297 0.67882 2.0367 0.36896 0.70702 0.83205 1.9466 1.0291 2.7546 0.19704 0.80803 0.88595 2.2762 1.5309 3.2626 0.64496 0.98638 1.9707 3.3782 2.9461 5.3151 1.4882 2.9553 2.1204 3.6898 3.9305 4.5673 1.1864 0.57513 2.6078 1.0559 3.1587 1.0685 0.60826 0.01377 3.2176-2.091 6.6436-5.3591zm-3.2197-5.8722c1.3026-1.3026-0.0785-7.2727-1.6824-7.2727-0.71229 0-0.61147 6.6893 0.11173 7.4125 0.74534 0.74535 0.67978 0.75119 1.5707-0.13977zm4.239-2.8653c0.98493-0.98492 0.68504-1.9032-0.62153-1.9032-1.5026 0-2.0723 0.80033-1.2635 1.7749 0.73553 0.88626 1.1021 0.91121 1.885 0.12831zm2.9236-4.4646c0.40192-0.33356 0.66353-1.0769 0.58137-1.652-0.12067-0.84456-0.8232-1.2118-3.6553-1.9106-1.9282-0.47578-3.7876-0.76457-4.1319-0.64177-1.6415 0.5854 8.5e-4 3.9903 2.379 4.9324 1.0707 0.42412 3.9645-0.01235 4.8268-0.72808zm-3.4286-6.2719c-0.52731-0.5273-1.1463-0.6868-1.7351-0.44708-0.86565 0.35245-0.86097 0.39501 0.0863 0.78455 0.55093 0.22654 1.3317 0.42772 1.7351 0.44708 0.60521 0.02905 0.59012-0.10805-0.0863-0.78455zm-39.274-0.91423c-0.16741-0.43628 0.0758-2.307 0.5406-4.1572 3.3202-13.218 15.893-23.14 29.322-23.14s26.001 9.9227 29.322 23.14c1 3.981 0.77755 4.8895-1.1973 4.8895-1.7798 0-2.3461-0.65767-2.803-3.2555-0.66524-3.7823-3.7516-9.325-6.9942-12.561-10.005-9.9842-25.501-10.16-35.84-0.40721-3.8364 3.619-6.0548 7.3691-7.3947 12.5-0.90425 3.4627-0.91281 3.4739-2.7787 3.6291-1.3479 0.11212-1.9568-0.06631-2.1761-0.63756z" fill="#9ed2ec"/>
  <path d="m-152.99 56.407c-2.4599-0.47623-3.1072-1.1131-2.4257-2.3865 0.47824-0.89361 0.95195-0.95526 5.7128-0.74353 6.1239 0.27236 9.3343-0.31512 13.861-2.5364 6.5523-3.2154 12.801-11.247 13.848-17.799 0.31645-1.9807 1.2782-3.6088 2.1206-3.5898 0.18692 0.0043 0.65689 0.20837 1.0444 0.45367 1.0758 0.68106-0.20811 5.935-2.6375 10.793-5.7016 11.402-19.233 18.187-31.524 15.808zm-11.76-4.8576c-5.5008-3.7324-10.331-10.756-11.861-17.248-1.0358-4.3942-1.0231-4.4559 0.91777-4.4559 1.6615 0 1.6969 0.04635 2.2735 2.9772 1.2164 6.1831 5.66 12.665 11.379 16.6 2.2491 1.5474 2.406 1.8113 1.8848 3.1698-0.46293 1.2064-1.6894 0.92789-4.5944-1.0432zm10.658-0.27338c-3.6785-1.2235-7.9736-3.5727-10.112-5.5308-5.272-4.8276-8.0539-11.424-7.4773-17.73 0.17241-1.8857 0.31018-4.0349 0.30613-4.776-0.01-1.7529 3.314-4.5274 4.0431-3.3753 0.67574 1.0678 0.59364 1.2939-0.90884 2.5028l-1.3773 1.1082 1.8603-0.28618c1.7427-0.26808 1.9812-0.13791 3.7716 2.0584 2.7804 3.4107 4.525 6.1587 4.9096 7.7334 0.18565 0.76013 0.53183 1.5021 0.76929 1.6489 0.23746 0.14676 0.68068 1.2152 0.98493 2.3743 0.30425 1.1591 1.1716 2.8963 1.9274 3.8604 0.75583 0.96412 2.023 2.9531 2.8159 4.4199 0.98116 1.8151 2.0896 3.0383 3.4702 3.8295 3.9008 2.2356 3.7404 2.2867 9.3601-2.9827 5.2477-4.9206 7.4433-7.588 7.4433-9.0426 0-0.45323-0.43839-1.3814-0.97422-2.0626-0.7714-0.98066-0.91595-1.7305-0.69436-3.6015 0.33139-2.798-0.0991-3.2887-3.3398-3.8069-1.2396-0.19821-2.9541-0.47493-3.8101-0.61494-1.9688-0.32202-2.509 0.79311-1.4119 2.9146 0.88932 1.7197 3.3546 2.9339 5.9572 2.9339 0.97297 0 1.769 0.23707 1.769 0.52683 0 1.2961-2.3448 4.5316-3.5001 4.8295-0.68547 0.17679-1.6597 0.84696-2.1649 1.4893-0.55803 0.70942-1.445 1.1648-2.2596 1.1602-2.8615-0.01637-3.5427-1.5125-3.3559-7.3708 0.13331-4.1808 0.27498-4.7642 1.5188-6.2541 1.9293-2.3109 2.2942-2.4342 4.7249-1.5968 2.3674 0.81565 3.0331 0.60861 2.2146-0.68885-0.8173-1.2957-7.2788-1.3319-8.9086-0.04992-1.2385 0.97418-2.2628 1.2232-2.333 0.56723-0.0222-0.2066-0.0142-1.8406 0.0182-3.6311 0.10109-5.6311 0.10833-6.7212 0.0554-8.2639-0.0284-0.82639 9e-3 -3.3989 0.0828-5.7167 0.16271-5.1055 1.0911-6.0104 1.5604-1.5209 0.19206 1.8375 0.70013 3.5473 1.269 4.2705l0.9487 1.2061 0.22274-1.5176c0.12252-0.83469-0.0704-1.9034-0.42865-2.375-0.81456-1.0722-0.86444-2.4393-0.10606-2.9079 0.75863-0.46885 5.433-0.8319 5.433-0.42197 0 0.17472-0.67025 0.94378-1.4894 1.709-1.4473 1.352-1.4807 1.4887-1.1822 4.8337 0.16899 1.8933 0.38035 3.5282 0.46971 3.633 0.0893 0.10485 1.5792-0.69359 3.3108-1.7743 2.8619-1.7862 3.1626-2.1366 3.3056-3.8523 0.1211-1.4535 0.35137-1.8509 1.0017-1.7286 0.46443 0.087284 1.0669 0.66447 1.3388 1.2827 0.27192 0.61818 0.73847 1.124 1.0368 1.124 0.29829 0 1.4781 0.801 2.6219 1.78 2.7469 2.3512 5.5077 7.9466 6.233 12.633 1.5083 9.7442-4.2515 20.692-13.206 25.1-4.489 2.2099-13.841 3.2404-17.715 1.9519zm12.233-12.62c1.2717-1.5323-0.88299-8.5369-2.3476-7.6317-0.4972 0.30728-0.42911 6.9288 0.0796 7.7521 0.4905 0.79363 1.5562 0.73705 2.2678-0.12039zm4.2817-3.109c0.87714-0.87713 0.78812-1.9759-0.15353-1.8951-0.32138 0.02754-1.0351 0.08389-1.586 0.1252-0.61012 0.04576-1.0017 0.43406-1.0017 0.99334 0 1.7424 1.3834 2.1344 2.7412 0.7766zm-7.3398-20.717 0.15944-2.2353-1.0359 1.3169c-1.3046 1.6585-1.3957 3.5544-0.15944 3.3199 0.64812-0.12293 0.91801-0.74862 1.0359-2.4016zm-12.133 9.4209c-0.43889-0.62661-0.79799-1.3738-0.79799-1.6603 0-0.28658-0.50711-0.74354-1.1269-1.0155-0.61979-0.27192-1.6732-1.3417-2.3408-2.3773-0.80276-1.2452-2.1174-2.3104-3.8815-3.1449-1.4672-0.69409-2.6676-1.4432-2.6676-1.6647 0-1.027 0.84285-0.91226 3.6284 0.49391 2.0127 1.016 3.4039 1.4184 4.2072 1.2168 2.6643-0.66869 5.2283 2.6707 5.0454 6.5711-0.12451 2.6559-0.89851 3.2481-2.0662 1.581zm-20.062-0.38618c-0.52668-0.8522 1.1023-6.5024 2.9686-10.297 3.3201-6.7499 9.922-12.389 17.322-14.797 5.2813-1.7183 12.699-1.7183 17.98 0 4.5407 1.4774 10.21 5.1771 13.311 8.6866 2.6752 3.0279 5.9171 9.4517 6.7068 13.289 0.62995 3.0616 0.45109 3.5892-1.2167 3.5892-0.9589 0-1.3035-0.37612-1.7206-1.8782-0.28687-1.033-0.52285-2.1338-0.52438-2.4462-1e-3 -0.31243-0.89682-2.3543-1.9895-4.5374-5.9525-11.893-19.884-17.493-32.302-12.986-8.2189 2.9833-13.403 8.5556-16.359 17.582-1.1463 3.5014-1.4764 4.0344-2.5821 4.1686-0.69727 0.08466-1.4148-0.08407-1.5946-0.37494zm19.595-8.4209c-1.0576-0.72572-2.8577-1.4447-4.0002-1.5976-2.2641-0.30317-2.8555-1.2885-1.9348-3.2238 0.27766-0.58359 0.63088-1.4555 0.78495-1.9375 0.4224-1.3217 1.3132-1.0514 1.3132 0.3984 0 1.4976 1.4054 2.9598 4.6595 4.8481 1.2938 0.75074 2.3523 1.7086 2.3523 2.1286 0 1.0881-0.96409 0.90102-3.1751-0.61611zm3.294-9.1094c-0.89181-0.74451-1.6215-1.4962-1.6215-1.6705s1.1832-0.27056 2.6294-0.21395c2.4084 0.094269 2.6294 0.20336 2.6294 1.2977 0 1.9179-1.7121 2.1941-3.6374 0.58682z" fill="#94b6d6"/>
  <path d="m-152.99 56.407c-2.4599-0.47623-3.1072-1.1131-2.4257-2.3865 0.47824-0.89361 0.95195-0.95526 5.7128-0.74353 6.1239 0.27236 9.3343-0.31512 13.861-2.5364 6.5523-3.2154 12.801-11.247 13.848-17.799 0.31645-1.9807 1.2782-3.6088 2.1206-3.5898 0.18692 0.0043 0.65689 0.20837 1.0444 0.45367 1.0758 0.68106-0.20811 5.935-2.6375 10.793-5.7016 11.402-19.233 18.187-31.524 15.808zm-11.76-4.8576c-5.5008-3.7324-10.331-10.756-11.861-17.248-1.0358-4.3942-1.0231-4.4559 0.91777-4.4559 1.6615 0 1.6969 0.04635 2.2735 2.9772 1.2164 6.1831 5.66 12.665 11.379 16.6 2.2491 1.5474 2.406 1.8113 1.8848 3.1698-0.46293 1.2064-1.6894 0.92789-4.5944-1.0432zm11.91-0.66876c-0.41319-0.26703-1.3786-0.48896-2.1452-0.49317-3.4525-0.01898-10.007-4.9048-13.168-9.8151-2.755-4.2799-3.4409-7.852-3.2351-16.847 0.0348-1.5205 0.36942-2.1116 1.8229-3.2202 1.4695-1.1208 1.8594-1.2329 2.2335-0.64189 0.69171 1.093 0.58779 1.3491-1.034 2.5482-0.82638 0.61097-1.5025 1.3215-1.5025 1.5788s0.33806 0.18741 0.75126-0.15551c0.41319-0.34292 0.75126-0.47528 0.75126-0.29412 0 0.18115 0.42732 0.10067 0.9496-0.17884 0.80379-0.43017 1.3037-0.09374 3.2555 2.1908 1.2682 1.4845 2.3059 2.8559 2.3059 3.0477 0 0.19176 0.56345 1.0183 1.2521 1.8367 1.0432 1.2398 1.2521 2.0101 1.2521 4.6175 0 2.9167 0.14475 3.3164 2.1286 5.8784 1.1707 1.5119 2.7862 3.7938 3.59 5.071 0.91564 1.4549 2.2716 2.7519 3.6311 3.4731 1.1933 0.63307 2.1697 1.3205 2.1697 1.5275 0 0.54883-4.1252 0.44641-5.0084-0.12435zm10.017-0.38783c0-0.66981 4.6164-5.1208 5.3114-5.1212 0.88697-4.36e-4 5.6303-5.2796 5.974-6.6488 0.17233-0.68658-0.0169-2.2324-0.42046-3.4352s-0.896-3.1686-1.0943-4.3684c-0.1983-1.1999-0.78747-2.5521-1.3092-3.005-1.9439-1.6874-2.7253-2.455-3.615-3.5516-0.6728-0.82924-1.2004-1.0321-2.0034-0.77007-0.59952 0.19561-2.0093 0.32381-3.1329 0.28489-1.3959-0.04836-2.465 0.26128-3.3758 0.97776-0.73314 0.5767-1.5484 0.91542-1.8116 0.75273-0.45363-0.28035-0.64355-2.7136-0.47066-6.0298 0.0778-1.4934 0.07-3.1352-0.0287-6.0101-0.0284-0.82639 9e-3 -3.3989 0.0828-5.7167 0.16271-5.1055 1.0911-6.0104 1.5604-1.5209 0.19205 1.8375 0.70011 3.5473 1.269 4.2705l0.94871 1.2061 0.22274-1.5176c0.12252-0.83469-0.0704-1.9034-0.42865-2.375-0.81456-1.0722-0.86444-2.4393-0.10606-2.9079 0.75862-0.46885 5.433-0.8319 5.433-0.42197 0 0.17472-0.67025 0.94378-1.4894 1.709-1.4473 1.352-1.4807 1.4887-1.1822 4.8337 0.16899 1.8933 0.38035 3.5282 0.46971 3.633 0.0893 0.10485 1.5792-0.69359 3.3108-1.7743 2.862-1.7862 3.1626-2.1366 3.3056-3.8523 0.1211-1.4535 0.35138-1.8509 1.0017-1.7286 0.46443 0.087284 1.0676 0.66617 1.3404 1.2864 0.27279 0.62025 1.5144 1.8227 2.7591 2.672 3.9428 2.6905 7.0122 9.563 7.0122 15.7 0 7.0639-2.3117 12.631-7.3152 17.615-3.0155 3.0041-7.5731 5.6937-9.5047 5.6092-0.52799-0.02311-1.3544 0.12485-1.8364 0.32884-0.49369 0.20891-0.87648 0.1547-0.87648-0.12412zm-2.0944-35.663 0.15944-2.2353-1.0359 1.3169c-1.3046 1.6585-1.3957 3.5544-0.15944 3.3199 0.64812-0.12293 0.91801-0.74862 1.0359-2.4016zm-11.823 9.9131c-0.78749-0.7875-0.81236-2.5962-0.029-2.1121 0.35824 0.22141 0.44226 0.13739 0.22085-0.22086-0.19655-0.31802-0.86823-0.57823-1.4926-0.57823-1.1666 0-2.7584-1.4195-3.749-3.3431-0.30852-0.59914-1.8017-1.6763-3.3181-2.3937-1.5164-0.71738-2.7571-1.4855-2.7571-1.707 0-1.027 0.84285-0.91226 3.6284 0.49391 2.0127 1.016 3.4039 1.4184 4.2072 1.2168 2.6643-0.66869 5.2283 2.6707 5.0454 6.5711-0.11344 2.4195-0.70794 3.1213-1.7561 2.0732zm-20.372-0.87839c-0.52668-0.8522 1.1023-6.5024 2.9686-10.297 3.3201-6.7499 9.922-12.389 17.322-14.797 5.2813-1.7183 12.699-1.7183 17.98 0 4.5407 1.4774 10.21 5.1771 13.311 8.6866 2.6752 3.0279 5.9171 9.4517 6.7068 13.289 0.62995 3.0616 0.45109 3.5892-1.2167 3.5892-0.9589 0-1.3035-0.37612-1.7206-1.8782-0.28687-1.033-0.52285-2.1338-0.52438-2.4462-1e-3 -0.31243-0.89682-2.3543-1.9895-4.5374-5.9525-11.893-19.884-17.493-32.302-12.986-8.2189 2.9833-13.403 8.5556-16.359 17.582-1.1463 3.5014-1.4764 4.0344-2.5821 4.1686-0.69727 0.08466-1.4148-0.08407-1.5946-0.37494zm19.595-8.4209c-1.0576-0.72572-2.8577-1.4447-4.0002-1.5976-2.2641-0.30317-2.8555-1.2885-1.9348-3.2238 0.27766-0.58359 0.63088-1.4555 0.78495-1.9375 0.4224-1.3217 1.3132-1.0514 1.3132 0.3984 0 1.4976 1.4054 2.9598 4.6595 4.8481 1.2938 0.75074 2.3523 1.7086 2.3523 2.1286 0 1.0881-0.96409 0.90102-3.1751-0.61611zm3.294-9.1094c-0.89181-0.74451-1.6215-1.4962-1.6215-1.6705s1.1832-0.27056 2.6294-0.21395c2.4084 0.094269 2.6294 0.20336 2.6294 1.2977 0 1.9179-1.7121 2.1941-3.6374 0.58682z" fill="#6dc6e9"/>
  <path d="m-153.59 55.95c-1.0585-0.22635-1.5025-0.61583-1.5025-1.3181 0-0.94353 0.28204-0.98711 5.2803-0.81602 3.751 0.12838 6.2006-0.05503 8.4578-0.63328 9.672-2.4778 17.542-10.509 19.727-20.133 0.531-2.3381 0.87025-2.9544 1.6262-2.9544 1.3974 0 1.4339 1.303 0.15706 5.6041-1.4022 4.7231-4.8315 10.11-8.4962 13.347-3.1179 2.7537-9.5103 6.0011-13.38 6.7971-2.8242 0.58097-9.3759 0.63956-11.87 0.10615zm-11.08-4.7848c-5.2733-3.5512-9.7742-9.9608-11.47-16.334-1.0799-4.0577-0.98611-4.9857 0.50365-4.9857 0.94643 0 1.3165 0.32825 1.5527 1.3773 0.9499 4.2178 1.4661 5.6936 3.0518 8.7247 1.6634 3.1798 5.7823 7.6518 9.4042 10.21 1.0116 0.71462 1.3584 1.2897 1.1326 1.8782-0.47298 1.2325-1.3112 1.0577-4.1746-0.8706zm11.831-0.28462c-0.41319-0.26703-1.3786-0.48896-2.1452-0.49317-2.035-0.01122-6.134-2.254-9.0159-4.933-4.8001-4.4622-7.37-9.9277-7.37-15.674v-2.8881l1.5454 0.53871c0.87478 0.30495 2.7156 0.40118 4.2421 0.22176l2.6968-0.31695 1.768 2.6253c1.4994 2.2264 1.768 3.0506 1.768 5.4243 0 2.5278 0.20619 3.0653 2.1286 5.5478 1.1707 1.5119 2.7862 3.7938 3.59 5.071 0.91564 1.4549 2.2716 2.7519 3.6311 3.4731 1.1933 0.63307 2.1697 1.3205 2.1697 1.5275 0 0.54883-4.1252 0.44641-5.0084-0.12435zm10.017-0.38783c0-0.66981 4.6164-5.1208 5.3114-5.1212 0.88697-4.36e-4 5.6303-5.2796 5.974-6.6488 0.17233-0.68658-0.0169-2.2324-0.42046-3.4352s-0.896-3.1686-1.0943-4.3684c-0.1983-1.1999-0.78747-2.5521-1.3092-3.005-1.921-1.6674-2.7206-2.4493-3.5273-3.4493-0.72838-0.90276-1.2301-0.99354-4.2572-0.7703-1.8873 0.13919-3.9306 0.56582-4.5407 0.94809-1.7314 1.0848-1.8986 0.88762-1.8534-2.1851 0.061-4.1491 0.0975-4.2774 1.1386-4.0052 1.3386 0.35005 2.5634-0.49225 3.3523-2.3053 0.3775-0.86762 0.69519-1.2958 0.70597-0.95144 0.0353 1.1272 1.7179 0.6512 4.9536-1.4015 2.0615-1.3078 3.3736-2.528 3.728-3.467l0.54696-1.449 1.1552 1.5657c1.8197 2.4665 1.328 3.6771-1.4089 3.4685-0.80293-0.06118-2.7672 0.72035-4.8975 1.9486-2.8598 1.6488-3.5569 2.2877-3.5569 3.2595 0 2.1577 1.5653 1.4158 4.054-1.9215 0.7843-1.0517 1.4481-1.3773 2.8079-1.3773 1.0698 0 2.8526-0.6132 4.4652-1.5358 1.4764-0.8447 2.8911-1.408 3.1438-1.2519 0.82268 0.50845 3.1063 4.7731 4.0956 7.6483 1.8147 5.2744 1.0225 12.857-1.9212 18.391-2.6638 5.0074-10.559 11.362-13.932 11.215-0.52799-0.02311-1.3544 0.12485-1.8364 0.32884-0.49369 0.20891-0.87647 0.1547-0.87647-0.12412zm-2.3618-29.114c1.0419-1.7639 1.064-2.0513 0.15699-2.0513-0.54496 0-1.802 2.323-1.802 3.3302 0 0.65738 0.92683-0.06321 1.645-1.2789zm-11.161 2.9867c0-0.25921 0.22538-0.61058 0.50083-0.78082 0.27547-0.17024 0.50085 0.04182 0.50085 0.47128 0 0.42945-0.22538 0.78082-0.50085 0.78082-0.27545 0-0.50083-0.21208-0.50083-0.47128zm-20.299-2.9094c1.171-7.9745 7.2984-16.175 15.181-20.317 16.05-8.4341 35.987-0.33367 41.44 16.837 1.57 4.9438 1.5856 5.859 0.0997 5.859-0.99047 0-1.2578-0.45256-2.024-3.4269-1.1747-4.56-3.9285-9.0877-7.6231-12.533-5.4132-5.0486-10.654-7.0785-18.275-7.0785-8.9131 0-16.469 3.9212-21.58 11.199-2.0927 2.9798-3.3508 5.9487-4.7521 11.214-0.0916 0.34433-0.76272 0.62605-1.4913 0.62605-1.2955 0-1.317-0.05249-0.97537-2.379zm16.07-1.7392c-1.1026-1.5742-0.97085-2.3257 0.47132-2.6877 1.7295-0.43408 2.6818 0.03511 3.2835 1.6178 0.38405 1.0101 0.35073 1.4514-0.13274 1.7581-1.1836 0.75092-2.8337 0.43736-3.6221-0.68827zm11.974-6.0434c-0.41492-1.6532 0.5477-3.9156 1.509-3.5467 1.2322 0.47285 1.5136 2.5854 0.49429 3.7117-1.1579 1.2794-1.651 1.2389-2.0033-0.16494zm-14.183-0.98431c-0.84454-0.84454 0.32506-2.084 1.2456-1.32 0.37664 0.31259 0.68482 0.74201 0.68482 0.95427 0 0.67794-1.3605 0.93568-1.9304 0.36571zm17.976-5.6104c-0.73832-0.88963-0.27468-1.7749 0.92956-1.7749 1.2729 0 1.5949 0.49491 1.0204 1.5684-0.60223 1.1253-1.1401 1.1822-1.9499 0.20651zm-8.2996-0.80147c-0.19871-0.32151-0.0711-0.7639 0.28352-0.98308 0.82975-0.51281 2.0867-0.036969 1.8422 0.69742-0.26439 0.7942-1.6928 0.98615-2.1257 0.28566z" fill="#5ca6dc"/>
  <path d="m-152.47 55.909c-2.2394-0.43428-2.5962-0.72091-2.1959-1.764 0.22369-0.58293 0.65889-0.6935 1.6896-0.42928 2.5716 0.65921 9.3263 0.36512 12.385-0.53925 4.6396-1.3716 7.4908-3.0386 11.23-6.5656 3.8932-3.6727 6.668-8.3654 7.7355-13.082 0.54845-2.4234 0.86129-2.9614 1.8021-3.0989 1.0426-0.15242 1.1103-0.02585 0.80418 1.5025-1.5274 7.6255-5.5049 14.134-11.371 18.607-5.7658 4.3967-15.229 6.6979-22.08 5.3693zm-11.406-4.4472c-2.8107-1.8022-7.409-6.6408-9.12-9.5967-1.3373-2.3103-3.0224-6.9949-3.5581-9.8916-0.26898-1.4545-0.17757-1.6277 0.85886-1.6277 1.0038 0 1.2462 0.38755 1.8011 2.8798 1.3871 6.23 5.9432 12.9 11.09 16.235 1.4326 0.92828 2.4275 1.9258 2.3449 2.3512-0.2399 1.2359-1.0776 1.1502-3.4167-0.34956zm10.375-1.1014c-1.5489-1.2184-4.5137-7.0152-4.257-8.3233 0.13785-0.7027 0.58516-0.32504 1.8724 1.581 2.234 3.3079 3.9937 5.1891 5.6757 6.0677 0.75753 0.39568 1.3773 0.939 1.3773 1.2074 0 0.89006-3.3449 0.50835-4.6684-0.53274zm11.29-0.56394c0.1069-0.32064 0.95836-1.1658 1.8922-1.8782 1.7346-1.3232 1.6575-0.68625-0.16146 1.3342-1.0827 1.2027-2.0518 1.5072-1.7307 0.54391zm-17.139-1.4511c-3.8096-2.0953-7.2812-5.6556-9.0926-9.3248-1.5803-3.2011-1.5567-4.1672 0.10165-4.1672 1.5769 0 6.0274-1.8719 6.7759-2.85 0.59132-0.7727 0.76391-0.79902 1.171-0.1786 0.26263 0.40022 0.36379 1.3017 0.22477 2.0034-0.40561 2.0472 1.1752 8.5139 2.9442 12.044 0.89728 1.7905 1.7066 3.4245 1.7984 3.6311 0.34681 0.7803-1.264 0.30501-3.9232-1.1576zm20.034 1.013c0-0.29353 1.5515-2.1729 3.4478-4.1763 1.8963-2.0034 3.8237-4.3696 4.2832-5.2582 0.79109-1.5298 0.77901-1.8468-0.22766-5.9724-1.52-6.2294-1.4925-6.157-2.807-7.3752l-1.1967-1.109 3.3838-2.0652c4.0567-2.4759 3.6189-2.7532-0.72372-0.45835-2.1819 1.153-3.2633 1.4838-3.6351 1.112-0.37183-0.37183 0.35526-1.0268 2.444-2.2017 1.9453-1.0942 3.0756-2.0798 3.269-2.8508 0.36565-1.4569 1.7972-1.5403 3.0313-0.17668 0.49859 0.55093 1.3144 1.0017 1.813 1.0017 2.0984 0 3.2067 5.8478 2.2033 11.626-1.3739 7.9117-6.6349 14.84-13.407 17.657-1.1744 0.48844-1.8782 0.58117-1.8782 0.24746zm-28.054-18.024c-0.67923-1.2692-0.65572-1.3045 1.1742-1.7638 1.3296-0.33372 1.4057-0.2679 1.2511 1.0819-0.20326 1.7741-1.6266 2.1742-2.4252 0.68186zm-9.1062-7.7647c-0.16467-0.16467 0.0231-1.6818 0.41727-3.3715 2.2663-9.7148 10.093-17.957 19.965-21.025 4.826-1.4999 11.689-1.502 16.528-0.004969 8.8968 2.7526 16.522 10.013 19.231 18.31 1.445 4.4264 1.5437 6.1055 0.35893 6.1055-0.72719 0-1.1037-0.63392-1.6362-2.7546-3.0254-12.05-13.929-20.535-26.388-20.535-6.3734 0-13.111 2.7726-17.947 7.3855-3.7805 3.606-5.8699 6.9187-7.4905 11.876-1.184 3.6218-2.1516 4.8998-3.0384 4.013zm31.651-1.2378c0.60695-1.1341 1.5187-1.286 2.404-0.40067 1.0097 1.0097 0.68218 1.4024-1.1696 1.4024-1.6154 0-1.7236-0.08781-1.2345-1.0017zm-3.5059-1.7112c0-0.84167 0.27473-1.2938 0.7861-1.2938 0.52205 0 0.73234 0.36535 0.62606 1.0877-0.23594 1.6034-1.4122 1.7752-1.4122 0.20618zm-11.645-0.33227c-1.1764-0.68519-1.14-2.8138 0.0547-3.193 2.1935-0.69618 4.0453 1.7862 2.29 3.0697-1.0717 0.78367-1.1993 0.79037-2.3446 0.12326zm21.787 0.20926c-1.0004-0.40368-0.72364-2.5482 0.43348-3.3587 1.358-0.95119 3.1398-0.34526 3.3613 1.143 0.29655 1.9931-1.6008 3.1009-3.7948 2.2156zm-10.047-8.0187c0.18106-2.1425 1.0917-2.6916 1.9144-1.1544 0.46536 0.86951 0.40941 1.2564-0.29413 2.0338-1.3001 1.4366-1.7934 1.1689-1.6203-0.87942zm13.596 0.05283c-0.41742-1.0878 0.64231-2.1108 1.4008-1.3523 0.64109 0.64109 0.24394 2.1372-0.56734 2.1372-0.29276 0-0.66783-0.35322-0.8335-0.78493zm-28.215-0.43762c0-0.39694 0.19985-0.84521 0.44409-0.99617 0.5515-0.34085 1.674 0.9354 1.221 1.3883-0.59588 0.59589-1.6651 0.34407-1.6651-0.39216zm18.117-5.6185c0.21108-1.096 1.6664-1.2511 1.6664-0.17755 0 0.40942-0.41489 0.8243-0.92196 0.92196-0.66932 0.1289-0.87331-0.075074-0.74441-0.7444zm-8.1-0.42111c0-0.51585 0.32825-0.7615 0.87647-0.65592 1.0557 0.20331 0.98912 1.0922-0.0988 1.3187-0.45376 0.094482-0.77772-0.1816-0.77772-0.66278z" fill="#22a4d5"/>
  <path d="m-153.5 50.361c-1.5489-1.2184-4.5137-7.0152-4.257-8.3233 0.13785-0.7027 0.58516-0.32504 1.8724 1.581 2.234 3.3079 3.9937 5.1891 5.6757 6.0677 0.75753 0.39568 1.3773 0.939 1.3773 1.2074 0 0.89006-3.3449 0.50835-4.6684-0.53274zm11.29-0.56394c0.1069-0.32064 0.95836-1.1658 1.8922-1.8782 1.7346-1.3232 1.6575-0.68625-0.16146 1.3342-1.0827 1.2027-2.0518 1.5072-1.7307 0.54391zm-17.139-1.4511c-1.515-0.83329-3.8369-2.5759-5.1597-3.8724-2.3773-2.3302-5.8233-8.3196-5.1652-8.9776 0.18702-0.18702 2.2635-0.83819 4.6144-1.4471 3.0387-0.78701 4.3222-0.93923 4.4398-0.52658 0.091 0.31925 0.51676 2.4823 0.94615 4.8067 0.45291 2.4517 1.4736 5.6062 2.4308 7.5126 0.90752 1.8075 1.7252 3.4554 1.817 3.662 0.3468 0.7803-1.264 0.30501-3.9232-1.1576zm20.034 1.013c0-0.29353 1.5515-2.1729 3.4478-4.1763 1.8963-2.0034 3.8237-4.3696 4.2832-5.2582 0.79109-1.5298 0.77901-1.8468-0.22766-5.9724-1.52-6.2294-1.4925-6.157-2.807-7.3752l-1.1967-1.109 3.3838-2.0652c4.0567-2.4759 3.6189-2.7532-0.72372-0.45835-2.1819 1.153-3.2633 1.4838-3.6351 1.112-0.37183-0.37183 0.35409-1.0262 2.4401-2.1995 1.6332-0.91861 3.0785-2.0876 3.212-2.5978 0.3822-1.4615 1.7568-1.6865 3.0249-0.4952 0.62354 0.58578 1.5057 1.065 1.9603 1.065 2.02 0 3.108 5.9564 2.1235 11.626-1.3739 7.9117-6.6349 14.84-13.407 17.657-1.1744 0.48844-1.8782 0.58117-1.8782 0.24746zm1.6693-29.818c-0.3916-1.0205 1.0731-2.2858 2.1622-1.8679 0.40098 0.15387 0.66079 0.75818 0.57736 1.3429-0.1934 1.3555-2.2682 1.7532-2.7395 0.52501z" fill="#2a6fc5"/>
  <path d="m-152.67 50.792c-0.59223-0.28662-1.6487-1.5719-2.3477-2.8562-2.6874-4.9377-2.8035-6.9978-0.15843-2.811 0.78404 1.241 2.4109 2.964 3.6152 3.8289 2.8368 2.0372 2.0379 3.3613-1.1091 1.8383zm-6.4358-2.8661c-2.6094-1.5029-6.2605-4.7596-6.2605-5.5842 0-0.2622 0.85644-0.47673 1.9032-0.47673 1.0468 0 2.1685-0.26528 2.4927-0.58952 0.45214-0.45213 0.78059-0.13114 1.4094 1.3773 0.45092 1.0818 1.3614 3.0374 2.0233 4.3458 0.6619 1.3084 1.1433 2.3769 1.0698 2.3743-0.0735-0.0026-1.2605-0.65373-2.6378-1.447zm21.286 0.66151c0-0.17328 1.5744-2.0988 3.4986-4.2789 3.8638-4.3777 4.4136-5.6622 3.5835-8.373-0.30885-1.0085-0.7583-3.0169-0.9988-4.4631l-0.43725-2.6294h1.955c1.0752 0 2.8475-0.45534 3.9384-1.0119l1.9834-1.0119v2.1404c0 3.078-1.6751 8.492-3.4031 10.999-1.8538 2.6896-6.3999 7.0202-8.521 8.117-0.87929 0.45469-1.5987 0.68494-1.5987 0.51166z" fill="#2462bd"/>
 </g>
</svg>
